SplineFontDB: 3.0
FontName: Neuton-Extrabold
FullName: Neuton Extrabold
FamilyName: Neuton
Weight: Extrabold
Copyright: Copyright (c) 2010, 2011 Brian M Zick (http://21326.info/), \nwith Reserved Font Name 'Neuton'.\n\nThis Font Software is licensed under the SIL Open Font License, Version 1.1.\nThis license is available with a FAQ at: http://scripts.sil.org/OFL\n   WITHOUT WARRANTIES OR CONDITIONS OF ANY KIND, either express or implied.\n   See the License for the specific language governing permissions and\n   limitations under the License.
UComments: "2011-6-6: Created." 
Version: 1.46
ItalicAngle: 0
UnderlinePosition: -361
UnderlineWidth: 0
Ascent: 1638
Descent: 410
LayerCount: 3
Layer: 0 1 "Back"  1
Layer: 1 1 "Fore"  0
Layer: 2 1 "3"  1
XUID: [1021 467 2011608612 15596835]
FSType: 1
OS2Version: 1
OS2_WeightWidthSlopeOnly: 0
OS2_UseTypoMetrics: 0
CreationTime: 1307367768
ModificationTime: 1333038471
PfmFamily: 17
TTFWeight: 800
TTFWidth: 5
LineGap: 0
VLineGap: 0
Panose: 2 0 9 3 0 0 0 0 0 0
OS2TypoAscent: 2106
OS2TypoAOffset: 0
OS2TypoDescent: -485
OS2TypoDOffset: 0
OS2TypoLinegap: 0
OS2WinAscent: 2106
OS2WinAOffset: 0
OS2WinDescent: 485
OS2WinDOffset: 0
HheadAscent: 2106
HheadAOffset: 0
HheadDescent: -485
HheadDOffset: 0
OS2SubXSize: 1095
OS2SubYSize: 1179
OS2SubXOff: 0
OS2SubYOff: 235
OS2SupXSize: 1095
OS2SupYSize: 1179
OS2SupXOff: 0
OS2SupYOff: 809
OS2StrikeYSize: 84
OS2StrikeYPos: 4436
OS2Vendor: 'PfEd'
Lookup: 3 0 0 "Neuton-Regular-'salt' Stylistic Alternates"  {"Neuton-Regular-Alternate Substitution in Latin lookup 0-1"  } ['salt' ('DFLT' <'dflt' > 'latn' <'dflt' > ) ]
Lookup: 1 0 0 "Neuton-Regular-'c2sc' Capitals to Small Capitals in Latin lookup 3"  {"Neuton-Regular-'c2sc' Capitals to Small Capitals in Latin lookup 3-1" ("sc" ) } ['c2sc' ('DFLT' <'dflt' > 'latn' <'dflt' > ) ]

StartChar: A
Encoding: 33 65 0
Width: 1502
VWidth: 0
Flags: MW
LayerCount: 3
Back
SplineSet
0 0 m 5,0,-1
 19 138 l 1,1,-1
 180 241 l 1,2,-1
 618 1205 l 1,3,-1
 965 1270 l 1,4,-1
 1305 238 l 1,5,-1
 1453 145 l 1,6,-1
 1441 -2 l 1,7,-1
 716 -2 l 1,8,-1
 732 136 l 1,9,-1
 898 240 l 1,10,-1
 869 341 l 1,11,-1
 471 341 l 1,12,-1
 431 240 l 1,13,-1
 620 148 l 1,14,-1
 605 0 l 1,15,-1
 0 0 l 5,0,-1
546 534 m 5,16,-1
 815 534 l 1,17,-1
 703 933 l 1,18,-1
 546 534 l 5,16,-1
EndSplineSet
Fore
SplineSet
562 561 m 1,0,-1
 813 561 l 1,1,-1
 686 933 l 1,2,-1
 562 561 l 1,0,-1
34 0 m 1,3,-1
 53 138 l 1,4,-1
 204 241 l 1,5,-1
 592 1205 l 1,6,-1
 939 1270 l 1,7,-1
 1329 238 l 1,8,-1
 1467 145 l 1,9,-1
 1455 -2 l 1,10,-1
 740 -2 l 1,11,-1
 756 136 l 1,12,-1
 922 240 l 1,13,-1
 884 352 l 1,14,-1
 492 352 l 1,15,-1
 455 240 l 1,16,-1
 644 148 l 1,17,-1
 629 0 l 1,18,-1
 34 0 l 1,3,-1
EndSplineSet
Substitution2: "Neuton-Regular-'c2sc' Capitals to Small Capitals in Latin lookup 3-1" a.sc
Colour: ffffff
EndChar

StartChar: AE
Encoding: 133 198 1
Width: 1983
VWidth: 0
Flags: MW
LayerCount: 3
Back
SplineSet
691 1100 m 1,0,-1
 710 1244 l 1,1,-1
 1883 1244 l 1,2,-1
 1853 826 l 1,3,-1
 1682 852 l 1,4,-1
 1599 1072 l 1,5,-1
 1254 1072 l 1,6,-1
 1254 712 l 1,7,-1
 1504 732.286 l 1,8,-1
 1549 735.938 l 1,9,-1
 1673 746 l 1,10,-1
 1640 470 l 1,11,-1
 1507 494.119 l 1,12,-1
 1462 502.28 l 1,13,-1
 1254 540 l 1,14,-1
 1254 210 l 1,15,-1
 1617 170 l 1,16,-1
 1763 428 l 1,17,-1
 1928 411 l 1,18,-1
 1898 0 l 1,19,-1
 707 0 l 1,20,-1
 717 138 l 1,21,-1
 881 217 l 1,22,-1
 881 1030 l 1,23,-1
 691 1100 l 1,0,-1
EndSplineSet
Fore
SplineSet
701 615 m 1,0,-1
 987 615 l 1,1,-1
 975 1008 l 1,2,-1
 701 615 l 1,0,-1
45 -2 m 1,3,-1
 65 162 l 1,4,-1
 199 237 l 1,5,-1
 760 1020 l 1,6,-1
 580 1094 l 1,7,-1
 601 1244 l 1,8,-1
 1852 1244 l 1,9,-1
 1822 826 l 1,10,-1
 1651 852 l 1,11,-1
 1568 1072 l 1,12,-1
 1320 1072 l 1,13,-1
 1337 708 l 1,14,-1
 1469 724 l 1,15,-1
 1497 727 l 1,16,-1
 1675 749 l 1,17,-1
 1643 507 l 1,18,-1
 1477 523 l 1,19,-1
 1453 526 l 1,20,-1
 1344 536 l 1,21,-1
 1360 198 l 1,22,-1
 1626 180 l 1,23,-1
 1772 428 l 1,24,-1
 1937 411 l 1,25,-1
 1907 0 l 1,26,-1
 836 0 l 1,27,-1
 849 138 l 1,28,-1
 1012 217 l 1,29,-1
 999 443 l 1,30,-1
 597 443 l 1,31,-1
 465 243 l 1,32,-1
 646 150 l 1,33,-1
 629 -2 l 1,34,-1
 45 -2 l 1,3,-1
EndSplineSet
Substitution2: "Neuton-Regular-'c2sc' Capitals to Small Capitals in Latin lookup 3-1" ae.sc
Colour: ffffff
EndChar

StartChar: Aacute
Encoding: 128 193 2
Width: 1502
VWidth: 0
Flags: MW
LayerCount: 3
Fore
SplineSet
633 1337 m 1,0,-1
 778 1642 l 1,1,-1
 1128 1632 l 1,2,-1
 867 1311 l 1,3,-1
 633 1337 l 1,0,-1
562 561 m 1,4,-1
 813 561 l 1,5,-1
 686 933 l 1,6,-1
 562 561 l 1,4,-1
34 0 m 1,7,-1
 53 138 l 1,8,-1
 204 241 l 1,9,-1
 592 1205 l 1,10,-1
 939 1270 l 1,11,-1
 1329 238 l 1,12,-1
 1467 145 l 1,13,-1
 1455 -2 l 1,14,-1
 740 -2 l 1,15,-1
 756 136 l 1,16,-1
 922 240 l 1,17,-1
 884 352 l 1,18,-1
 492 352 l 1,19,-1
 455 240 l 1,20,-1
 644 148 l 1,21,-1
 629 0 l 1,22,-1
 34 0 l 1,7,-1
EndSplineSet
Substitution2: "Neuton-Regular-'c2sc' Capitals to Small Capitals in Latin lookup 3-1" aacute.sc
Colour: ffffff
EndChar

StartChar: Acircumflex
Encoding: 129 194 3
Width: 1502
VWidth: 0
Flags: MW
LayerCount: 3
Fore
SplineSet
464 1318 m 1,0,-1
 617 1573 l 1,1,-1
 942 1573 l 1,2,-1
 1096 1318 l 1,3,-1
 843 1309 l 1,4,-1
 779 1430 l 1,5,-1
 765 1430 l 1,6,-1
 697 1308 l 1,7,-1
 464 1318 l 1,0,-1
562 561 m 1,8,-1
 813 561 l 1,9,-1
 686 933 l 1,10,-1
 562 561 l 1,8,-1
34 0 m 1,11,-1
 53 138 l 1,12,-1
 204 241 l 1,13,-1
 592 1205 l 1,14,-1
 939 1270 l 1,15,-1
 1329 238 l 1,16,-1
 1467 145 l 1,17,-1
 1455 -2 l 1,18,-1
 740 -2 l 1,19,-1
 756 136 l 1,20,-1
 922 240 l 1,21,-1
 884 352 l 1,22,-1
 492 352 l 1,23,-1
 455 240 l 1,24,-1
 644 148 l 1,25,-1
 629 0 l 1,26,-1
 34 0 l 1,11,-1
EndSplineSet
Substitution2: "Neuton-Regular-'c2sc' Capitals to Small Capitals in Latin lookup 3-1" acircumflex.sc
Colour: ffffff
EndChar

StartChar: Adieresis
Encoding: 131 196 4
Width: 1502
VWidth: 0
Flags: MW
LayerCount: 3
Fore
SplineSet
789 1416 m 0,0,1
 789 1435 789 1435 795.5 1452.5 c 128,-1,2
 802 1470 802 1470 817 1486.5 c 128,-1,3
 832 1503 832 1503 860 1513 c 128,-1,4
 888 1523 888 1523 927 1523 c 0,5,6
 968 1523 968 1523 997 1513 c 128,-1,7
 1026 1503 1026 1503 1041.5 1487 c 128,-1,8
 1057 1471 1057 1471 1063.5 1454 c 128,-1,9
 1070 1437 1070 1437 1070 1418 c 0,10,11
 1070 1309 1070 1309 926 1309 c 0,12,13
 789 1309 789 1309 789 1416 c 0,0,1
480 1416 m 0,14,15
 480 1435 480 1435 486.5 1452.5 c 128,-1,16
 493 1470 493 1470 508 1486.5 c 128,-1,17
 523 1503 523 1503 551 1513 c 128,-1,18
 579 1523 579 1523 618 1523 c 0,19,20
 659 1523 659 1523 688 1513 c 128,-1,21
 717 1503 717 1503 732.5 1487 c 128,-1,22
 748 1471 748 1471 754.5 1454 c 128,-1,23
 761 1437 761 1437 761 1418 c 0,24,25
 761 1309 761 1309 617 1309 c 0,26,27
 480 1309 480 1309 480 1416 c 0,14,15
562 561 m 1,28,-1
 813 561 l 1,29,-1
 686 933 l 1,30,-1
 562 561 l 1,28,-1
34 0 m 1,31,-1
 53 138 l 1,32,-1
 204 241 l 1,33,-1
 592 1205 l 1,34,-1
 939 1270 l 1,35,-1
 1329 238 l 1,36,-1
 1467 145 l 1,37,-1
 1455 -2 l 1,38,-1
 740 -2 l 1,39,-1
 756 136 l 1,40,-1
 922 240 l 1,41,-1
 884 352 l 1,42,-1
 492 352 l 1,43,-1
 455 240 l 1,44,-1
 644 148 l 1,45,-1
 629 0 l 1,46,-1
 34 0 l 1,31,-1
EndSplineSet
Substitution2: "Neuton-Regular-'c2sc' Capitals to Small Capitals in Latin lookup 3-1" adieresis.sc
Colour: ffffff
EndChar

StartChar: Agrave
Encoding: 127 192 5
Width: 1502
VWidth: 0
Flags: MW
LayerCount: 3
Fore
SplineSet
878 1334 m 1,0,-1
 644 1308 l 1,1,-1
 383 1629 l 1,2,-1
 733 1639 l 1,3,-1
 878 1334 l 1,0,-1
562 561 m 1,4,-1
 813 561 l 1,5,-1
 686 933 l 1,6,-1
 562 561 l 1,4,-1
34 0 m 1,7,-1
 53 138 l 1,8,-1
 204 241 l 1,9,-1
 592 1205 l 1,10,-1
 939 1270 l 1,11,-1
 1329 238 l 1,12,-1
 1467 145 l 1,13,-1
 1455 -2 l 1,14,-1
 740 -2 l 1,15,-1
 756 136 l 1,16,-1
 922 240 l 1,17,-1
 884 352 l 1,18,-1
 492 352 l 1,19,-1
 455 240 l 1,20,-1
 644 148 l 1,21,-1
 629 0 l 1,22,-1
 34 0 l 1,7,-1
EndSplineSet
Substitution2: "Neuton-Regular-'c2sc' Capitals to Small Capitals in Latin lookup 3-1" agrave.sc
Colour: ffffff
EndChar

StartChar: Aring
Encoding: 132 197 6
Width: 1502
VWidth: 0
Flags: MW
LayerCount: 3
Fore
SplineSet
697 1474 m 0,0,1
 697 1417 697 1417 765 1417 c 0,2,3
 791 1417 791 1417 811.5 1432 c 128,-1,4
 832 1447 832 1447 832 1474 c 128,-1,5
 832 1501 832 1501 810 1517 c 128,-1,6
 788 1533 788 1533 759 1533 c 0,7,8
 735 1533 735 1533 716 1516 c 128,-1,9
 697 1499 697 1499 697 1474 c 0,0,1
486 1469 m 0,10,11
 486 1545 486 1545 556.5 1593.5 c 128,-1,12
 627 1642 627 1642 770 1642 c 0,13,14
 1055 1642 1055 1642 1055 1478 c 0,15,16
 1055 1406 1055 1406 982.5 1356.5 c 128,-1,17
 910 1307 910 1307 762 1307 c 0,18,19
 615 1307 615 1307 550.5 1349 c 128,-1,20
 486 1391 486 1391 486 1469 c 0,10,11
562 561 m 1,21,-1
 813 561 l 1,22,-1
 686 933 l 1,23,-1
 562 561 l 1,21,-1
34 0 m 1,24,-1
 53 138 l 1,25,-1
 204 241 l 1,26,-1
 592 1205 l 1,27,-1
 939 1270 l 1,28,-1
 1329 238 l 1,29,-1
 1467 145 l 1,30,-1
 1455 -2 l 1,31,-1
 740 -2 l 1,32,-1
 756 136 l 1,33,-1
 922 240 l 1,34,-1
 884 352 l 1,35,-1
 492 352 l 1,36,-1
 455 240 l 1,37,-1
 644 148 l 1,38,-1
 629 0 l 1,39,-1
 34 0 l 1,24,-1
EndSplineSet
Substitution2: "Neuton-Regular-'c2sc' Capitals to Small Capitals in Latin lookup 3-1" aring.sc
Colour: ffffff
EndChar

StartChar: Atilde
Encoding: 130 195 7
Width: 1502
VWidth: 0
Flags: MW
LayerCount: 3
Fore
SplineSet
581 1308 m 1,0,-1
 464 1319 l 1,1,2
 466 1399 466 1399 482.5 1455.5 c 128,-1,3
 499 1512 499 1512 526 1543 c 128,-1,4
 553 1574 553 1574 592 1586.5 c 128,-1,5
 631 1599 631 1599 674 1595.5 c 128,-1,6
 717 1592 717 1592 769 1576 c 2,7,-1
 839 1554 l 2,8,9
 906 1532 906 1532 941 1542.5 c 128,-1,10
 976 1553 976 1553 990 1604 c 1,11,-1
 1105 1593 l 1,12,13
 1095 1407 1095 1407 1022.5 1349 c 128,-1,14
 950 1291 950 1291 811 1334 c 2,15,-1
 745 1354 l 1,16,17
 658 1378 658 1378 628.5 1368 c 128,-1,18
 599 1358 599 1358 581 1308 c 1,0,-1
562 561 m 1,19,-1
 813 561 l 1,20,-1
 686 933 l 1,21,-1
 562 561 l 1,19,-1
34 0 m 1,22,-1
 53 138 l 1,23,-1
 204 241 l 1,24,-1
 592 1205 l 1,25,-1
 939 1270 l 1,26,-1
 1329 238 l 1,27,-1
 1467 145 l 1,28,-1
 1455 -2 l 1,29,-1
 740 -2 l 1,30,-1
 756 136 l 1,31,-1
 922 240 l 1,32,-1
 884 352 l 1,33,-1
 492 352 l 1,34,-1
 455 240 l 1,35,-1
 644 148 l 1,36,-1
 629 0 l 1,37,-1
 34 0 l 1,22,-1
EndSplineSet
Substitution2: "Neuton-Regular-'c2sc' Capitals to Small Capitals in Latin lookup 3-1" atilde.sc
Colour: ffffff
EndChar

StartChar: B
Encoding: 34 66 8
Width: 1311
VWidth: 0
Flags: MW
LayerCount: 3
Fore
SplineSet
586 698 m 1,0,-1
 770 698 l 1,1,2
 797 731 797 731 816 790 c 128,-1,3
 835 849 835 849 835 907 c 0,4,5
 835 983 835 983 791 1031.5 c 128,-1,6
 747 1080 747 1080 650 1080 c 0,7,8
 614 1080 614 1080 586 1075 c 1,9,-1
 586 698 l 1,0,-1
586 186 m 1,10,-1
 728 186 l 2,11,12
 811 186 811 186 854 234.5 c 128,-1,13
 897 283 897 283 897 378 c 0,14,15
 897 456 897 456 837.5 506.5 c 128,-1,16
 778 557 778 557 672 557 c 2,17,-1
 586 557 l 1,18,-1
 586 186 l 1,10,-1
34 0 m 1,19,-1
 48 138 l 1,20,-1
 214 217 l 1,21,-1
 214 1008 l 1,22,-1
 45 1052 l 1,23,-1
 55 1211 l 1,24,25
 261 1257 261 1257 722 1257 c 0,26,27
 963 1257 963 1257 1081.5 1178 c 128,-1,28
 1200 1099 1200 1099 1200 951 c 0,29,30
 1200 873 1200 873 1140 799.5 c 128,-1,31
 1080 726 1080 726 997 694 c 1,32,-1
 997 684 l 1,33,34
 1061 681 1061 681 1124 644 c 128,-1,35
 1187 607 1187 607 1231.5 538.5 c 128,-1,36
 1276 470 1276 470 1276 390 c 0,37,38
 1276 197 1276 197 1109 98.5 c 128,-1,39
 942 0 942 0 628 0 c 2,40,-1
 34 0 l 1,19,-1
EndSplineSet
Substitution2: "Neuton-Regular-'c2sc' Capitals to Small Capitals in Latin lookup 3-1" b.sc
Colour: ffffff
EndChar

StartChar: C
Encoding: 35 67 9
Width: 1235
VWidth: 0
Flags: MW
LayerCount: 3
Back
SplineSet
0 619 m 4,0,1
 0 911 0 911 203.5 1090 c 0
 407 1269 407 1269 755 1269 c 0,2,3
 914 1269 914 1269 1038.5 1231.5 c 0
 1163 1194 1163 1194 1256.5 1116 c 0
 1350 1038 1350 1038 1399.5 908.5 c 0
 1449 779 1449 779 1449 603 c 0,4,5
 1449 448 1449 448 1391 326.5 c 0
 1333 205 1333 205 1229.5 128.5 c 0
 1126 52 1126 52 988 12.5 c 0
 850 -27 850 -27 685 -27 c 0,6,7
 512 -27 512 -27 380 20 c 0
 248 67 248 67 165.5 153.5 c 0
 83 240 83 240 41.5 357 c 0
 0 474 0 474 0 619 c 4,0,1
448 671 m 4,8,9
 448 630 448 630 453 582.5 c 0
 458 535 458 535 469.5 475.5 c 0
 481 416 481 416 503 362.5 c 0
 525 309 525 309 555.5 263 c 0
 586 217 586 217 633 190 c 0
 680 163 680 163 738 163 c 0,10,11
 868 163 868 163 933 262.5 c 0
 998 362 998 362 998 573 c 0,12,13
 998 609 998 609 995.5 648.5 c 0
 993 688 993 688 985 740.5 c 0
 977 793 977 793 964 840 c 0
 951 887 951 887 928.5 934.5 c 0
 906 982 906 982 877 1016.5 c 0
 848 1051 848 1051 804.5 1072.5 c 0
 761 1094 761 1094 709 1094 c 0,14,15
 572 1094 572 1094 510 985.5 c 0
 448 877 448 877 448 671 c 4,8,9
EndSplineSet
Fore
SplineSet
36 583 m 0,0,1
 36 691 36 691 61.5 789.5 c 128,-1,2
 87 888 87 888 144 976.5 c 128,-1,3
 201 1065 201 1065 285 1130 c 128,-1,4
 369 1195 369 1195 494 1233.5 c 128,-1,5
 619 1272 619 1272 773 1272 c 0,6,7
 871 1272 871 1272 983.5 1244 c 128,-1,8
 1096 1216 1096 1216 1148 1172 c 1,9,-1
 1117 748 l 1,10,-1
 947 771 l 1,11,-1
 883 1003 l 1,12,13
 848 1042 848 1042 791 1066.5 c 128,-1,14
 734 1091 734 1091 674 1091 c 0,15,16
 554 1091 554 1091 491 981.5 c 128,-1,17
 428 872 428 872 428 676 c 0,18,19
 428 458 428 458 536 331.5 c 128,-1,20
 644 205 644 205 815 205 c 0,21,22
 996 205 996 205 1141 313 c 1,23,-1
 1200 178 l 1,24,25
 1142 96 1142 96 999 33.5 c 128,-1,26
 856 -29 856 -29 686 -29 c 0,27,28
 360 -29 360 -29 198 131 c 128,-1,29
 36 291 36 291 36 583 c 0,0,1
EndSplineSet
Substitution2: "Neuton-Regular-'c2sc' Capitals to Small Capitals in Latin lookup 3-1" c.sc
Colour: ffffff
EndChar

StartChar: Ccedilla
Encoding: 134 199 10
Width: 1235
VWidth: 0
Flags: MW
LayerCount: 3
Fore
SplineSet
472 -319 m 1,0,1
 530 -318 530 -318 569.5 -298.5 c 128,-1,2
 609 -279 609 -279 609 -255 c 0,3,4
 609 -216 609 -216 453 -163 c 1,5,-1
 626 -28 l 1,6,7
 330 -13 330 -13 183 145.5 c 128,-1,8
 36 304 36 304 36 583 c 0,9,10
 36 691 36 691 61.5 789.5 c 128,-1,11
 87 888 87 888 144 976.5 c 128,-1,12
 201 1065 201 1065 285 1130 c 128,-1,13
 369 1195 369 1195 494 1233.5 c 128,-1,14
 619 1272 619 1272 773 1272 c 0,15,16
 871 1272 871 1272 983.5 1244 c 128,-1,17
 1096 1216 1096 1216 1148 1172 c 1,18,-1
 1117 748 l 1,19,-1
 947 771 l 1,20,-1
 883 1003 l 1,21,22
 848 1042 848 1042 791 1066.5 c 128,-1,23
 734 1091 734 1091 674 1091 c 0,24,25
 554 1091 554 1091 491 981.5 c 128,-1,26
 428 872 428 872 428 676 c 0,27,28
 428 458 428 458 536 331.5 c 128,-1,29
 644 205 644 205 815 205 c 0,30,31
 996 205 996 205 1141 313 c 1,32,-1
 1200 178 l 1,33,34
 1154 113 1154 113 1048 57 c 128,-1,35
 942 1 942 1 810 -19 c 1,36,-1
 697 -102 l 1,37,38
 872 -117 872 -117 872 -245 c 0,39,40
 872 -329 872 -329 789 -368 c 128,-1,41
 706 -407 706 -407 508 -407 c 1,42,-1
 472 -319 l 1,0,1
EndSplineSet
Substitution2: "Neuton-Regular-'c2sc' Capitals to Small Capitals in Latin lookup 3-1" ccedilla.sc
Colour: ffffff
EndChar

StartChar: D
Encoding: 36 68 11
Width: 1432
VWidth: 0
Flags: MW
LayerCount: 3
Fore
SplineSet
597 202 m 1,0,-1
 672 202 l 2,1,2
 737 202 737 202 790 217 c 128,-1,3
 843 232 843 232 878 256 c 128,-1,4
 913 280 913 280 940 314.5 c 128,-1,5
 967 349 967 349 982 383.5 c 128,-1,6
 997 418 997 418 1006 459 c 128,-1,7
 1015 500 1015 500 1017.5 532 c 128,-1,8
 1020 564 1020 564 1020 598 c 0,9,10
 1020 659 1020 659 1006.5 720.5 c 128,-1,11
 993 782 993 782 961.5 843.5 c 128,-1,12
 930 905 930 905 884.5 952 c 128,-1,13
 839 999 839 999 769 1028 c 128,-1,14
 699 1057 699 1057 615 1057 c 0,15,16
 602 1057 602 1057 597 1056 c 1,17,-1
 597 202 l 1,0,-1
34 0 m 1,18,-1
 47 158 l 1,19,-1
 227 241 l 1,20,-1
 227 1003 l 1,21,-1
 54 1049 l 1,22,-1
 61 1206 l 1,23,24
 162 1226 162 1226 333 1242 c 128,-1,25
 504 1258 504 1258 654 1258 c 0,26,27
 788 1258 788 1258 899 1237 c 128,-1,28
 1010 1216 1010 1216 1090.5 1177 c 128,-1,29
 1171 1138 1171 1138 1230 1085.5 c 128,-1,30
 1289 1033 1289 1033 1325 966 c 128,-1,31
 1361 899 1361 899 1378 826.5 c 128,-1,32
 1395 754 1395 754 1395 672 c 0,33,34
 1395 526 1395 526 1343 402.5 c 128,-1,35
 1291 279 1291 279 1196 190 c 128,-1,36
 1101 101 1101 101 958.5 50.5 c 128,-1,37
 816 0 816 0 642 0 c 2,38,-1
 34 0 l 1,18,-1
EndSplineSet
Substitution2: "Neuton-Regular-'c2sc' Capitals to Small Capitals in Latin lookup 3-1" d.sc
Colour: ffffff
EndChar

StartChar: E
Encoding: 37 69 12
Width: 1306
VWidth: 0
Flags: MW
LayerCount: 3
Fore
SplineSet
34 1100 m 1,0,-1
 53 1244 l 1,1,-1
 1226 1244 l 1,2,-1
 1196 826 l 1,3,-1
 1025 852 l 1,4,-1
 942 1072 l 1,5,-1
 597 1072 l 1,6,-1
 597 712 l 1,7,-1
 730 723 l 1,8,-1
 762 725 l 1,9,-1
 1016 746 l 1,10,-1
 983 470 l 1,11,-1
 742 514 l 1,12,-1
 710 520 l 1,13,-1
 597 540 l 1,14,-1
 597 200 l 1,15,-1
 960 180 l 1,16,-1
 1106 428 l 1,17,-1
 1271 411 l 1,18,-1
 1241 0 l 1,19,-1
 50 0 l 1,20,-1
 60 158 l 1,21,-1
 224 217 l 1,22,-1
 224 1030 l 1,23,-1
 34 1100 l 1,0,-1
EndSplineSet
Substitution2: "Neuton-Regular-'c2sc' Capitals to Small Capitals in Latin lookup 3-1" e.sc
Colour: ffffff
EndChar

StartChar: Eacute
Encoding: 136 201 13
Width: 1306
VWidth: 0
Flags: MW
LayerCount: 3
Fore
SplineSet
503 1336 m 1,0,-1
 648 1641 l 1,1,-1
 998 1631 l 1,2,-1
 737 1310 l 1,3,-1
 503 1336 l 1,0,-1
34 1100 m 1,4,-1
 53 1244 l 1,5,-1
 1226 1244 l 1,6,-1
 1196 826 l 1,7,-1
 1025 852 l 1,8,-1
 942 1072 l 1,9,-1
 597 1072 l 1,10,-1
 597 712 l 1,11,-1
 730 723 l 1,12,-1
 762 725 l 1,13,-1
 1016 746 l 1,14,-1
 983 470 l 1,15,-1
 742 514 l 1,16,-1
 710 520 l 1,17,-1
 597 540 l 1,18,-1
 597 200 l 1,19,-1
 960 180 l 1,20,-1
 1106 428 l 1,21,-1
 1271 411 l 1,22,-1
 1241 0 l 1,23,-1
 50 0 l 1,24,-1
 60 158 l 1,25,-1
 224 217 l 1,26,-1
 224 1030 l 1,27,-1
 34 1100 l 1,4,-1
EndSplineSet
Substitution2: "Neuton-Regular-'c2sc' Capitals to Small Capitals in Latin lookup 3-1" eacute.sc
Colour: ffffff
EndChar

StartChar: Ecircumflex
Encoding: 137 202 14
Width: 1306
VWidth: 0
Flags: MW
LayerCount: 3
Fore
SplineSet
364 1316 m 1,0,-1
 517 1571 l 1,1,-1
 842 1571 l 1,2,-1
 996 1316 l 1,3,-1
 743 1307 l 1,4,-1
 679 1428 l 1,5,-1
 665 1428 l 1,6,-1
 597 1306 l 1,7,-1
 364 1316 l 1,0,-1
34 1100 m 1,8,-1
 53 1244 l 1,9,-1
 1226 1244 l 1,10,-1
 1196 826 l 1,11,-1
 1025 852 l 1,12,-1
 942 1072 l 1,13,-1
 597 1072 l 1,14,-1
 597 712 l 1,15,-1
 730 723 l 1,16,-1
 762 725 l 1,17,-1
 1016 746 l 1,18,-1
 983 470 l 1,19,-1
 742 514 l 1,20,-1
 710 520 l 1,21,-1
 597 540 l 1,22,-1
 597 200 l 1,23,-1
 960 180 l 1,24,-1
 1106 428 l 1,25,-1
 1271 411 l 1,26,-1
 1241 0 l 1,27,-1
 50 0 l 1,28,-1
 60 158 l 1,29,-1
 224 217 l 1,30,-1
 224 1030 l 1,31,-1
 34 1100 l 1,8,-1
EndSplineSet
Substitution2: "Neuton-Regular-'c2sc' Capitals to Small Capitals in Latin lookup 3-1" ecircumflex.sc
Colour: ffffff
EndChar

StartChar: Edieresis
Encoding: 138 203 15
Width: 1306
VWidth: 0
Flags: MW
LayerCount: 3
Fore
SplineSet
691 1418 m 0,0,1
 691 1437 691 1437 697.5 1454.5 c 128,-1,2
 704 1472 704 1472 719 1488.5 c 128,-1,3
 734 1505 734 1505 762 1515 c 128,-1,4
 790 1525 790 1525 829 1525 c 0,5,6
 870 1525 870 1525 899 1515 c 128,-1,7
 928 1505 928 1505 943.5 1489 c 128,-1,8
 959 1473 959 1473 965.5 1456 c 128,-1,9
 972 1439 972 1439 972 1420 c 0,10,11
 972 1311 972 1311 828 1311 c 0,12,13
 691 1311 691 1311 691 1418 c 0,0,1
382 1418 m 0,14,15
 382 1437 382 1437 388.5 1454.5 c 128,-1,16
 395 1472 395 1472 410 1488.5 c 128,-1,17
 425 1505 425 1505 453 1515 c 128,-1,18
 481 1525 481 1525 520 1525 c 0,19,20
 561 1525 561 1525 590 1515 c 128,-1,21
 619 1505 619 1505 634.5 1489 c 128,-1,22
 650 1473 650 1473 656.5 1456 c 128,-1,23
 663 1439 663 1439 663 1420 c 0,24,25
 663 1311 663 1311 519 1311 c 0,26,27
 382 1311 382 1311 382 1418 c 0,14,15
34 1100 m 1,28,-1
 53 1244 l 1,29,-1
 1226 1244 l 1,30,-1
 1196 826 l 1,31,-1
 1025 852 l 1,32,-1
 942 1072 l 1,33,-1
 597 1072 l 1,34,-1
 597 712 l 1,35,-1
 730 723 l 1,36,-1
 762 725 l 1,37,-1
 1016 746 l 1,38,-1
 983 470 l 1,39,-1
 742 514 l 1,40,-1
 710 520 l 1,41,-1
 597 540 l 1,42,-1
 597 200 l 1,43,-1
 960 180 l 1,44,-1
 1106 428 l 1,45,-1
 1271 411 l 1,46,-1
 1241 0 l 1,47,-1
 50 0 l 1,48,-1
 60 158 l 1,49,-1
 224 217 l 1,50,-1
 224 1030 l 1,51,-1
 34 1100 l 1,28,-1
EndSplineSet
Substitution2: "Neuton-Regular-'c2sc' Capitals to Small Capitals in Latin lookup 3-1" edieresis.sc
Colour: ffffff
EndChar

StartChar: Egrave
Encoding: 135 200 16
Width: 1306
VWidth: 0
Flags: MW
LayerCount: 3
Fore
SplineSet
816 1337 m 1,0,-1
 582 1311 l 1,1,-1
 321 1632 l 1,2,-1
 671 1642 l 1,3,-1
 816 1337 l 1,0,-1
34 1100 m 1,4,-1
 53 1244 l 1,5,-1
 1226 1244 l 1,6,-1
 1196 826 l 1,7,-1
 1025 852 l 1,8,-1
 942 1072 l 1,9,-1
 597 1072 l 1,10,-1
 597 712 l 1,11,-1
 730 723 l 1,12,-1
 762 725 l 1,13,-1
 1016 746 l 1,14,-1
 983 470 l 1,15,-1
 742 514 l 1,16,-1
 710 520 l 1,17,-1
 597 540 l 1,18,-1
 597 200 l 1,19,-1
 960 180 l 1,20,-1
 1106 428 l 1,21,-1
 1271 411 l 1,22,-1
 1241 0 l 1,23,-1
 50 0 l 1,24,-1
 60 158 l 1,25,-1
 224 217 l 1,26,-1
 224 1030 l 1,27,-1
 34 1100 l 1,4,-1
EndSplineSet
Substitution2: "Neuton-Regular-'c2sc' Capitals to Small Capitals in Latin lookup 3-1" egrave.sc
Colour: ffffff
EndChar

StartChar: Eth
Encoding: 143 208 17
Width: 1540
VWidth: 0
Flags: MW
LayerCount: 3
Fore
SplineSet
616 202 m 1,0,-1
 691 202 l 2,1,2
 765 202 765 202 825.5 217 c 128,-1,3
 886 232 886 232 926.5 256 c 128,-1,4
 967 280 967 280 997.5 314.5 c 128,-1,5
 1028 349 1028 349 1045 383.5 c 128,-1,6
 1062 418 1062 418 1072.5 459 c 128,-1,7
 1083 500 1083 500 1086 532 c 128,-1,8
 1089 564 1089 564 1089 598 c 0,9,10
 1089 659 1089 659 1073.5 720.5 c 128,-1,11
 1058 782 1058 782 1023 843.5 c 128,-1,12
 988 905 988 905 937 952 c 128,-1,13
 886 999 886 999 807.5 1028 c 128,-1,14
 729 1057 729 1057 634 1057 c 1,15,-1
 621 1056 l 2,16,17
 622 1056 622 1056 625 1054 c 0,18,19
 635 1051 635 1051 622 1051 c 0,20,21
 619 1051 619 1051 616 1051 c 1,22,-1
 616 712 l 1,23,-1
 814 737 l 1,24,-1
 795 548 l 1,25,-1
 616 536 l 1,26,-1
 616 202 l 1,0,-1
66 483 m 1,27,-1
 81 666 l 1,28,-1
 246 680 l 1,29,-1
 246 1003 l 1,30,-1
 73 1049 l 1,31,-1
 80 1206 l 1,32,33
 224 1229 224 1229 393.5 1243.5 c 128,-1,34
 563 1258 563 1258 673 1258 c 0,35,36
 813 1258 813 1258 929 1240.5 c 128,-1,37
 1045 1223 1045 1223 1129 1192 c 128,-1,38
 1213 1161 1213 1161 1277.5 1116 c 128,-1,39
 1342 1071 1342 1071 1382.5 1020 c 128,-1,40
 1423 969 1423 969 1448.5 906.5 c 128,-1,41
 1474 844 1474 844 1484 782.5 c 128,-1,42
 1494 721 1494 721 1494 652 c 0,43,44
 1494 524 1494 524 1434.5 406 c 128,-1,45
 1375 288 1375 288 1269.5 198 c 128,-1,46
 1164 108 1164 108 1005.5 54 c 128,-1,47
 847 0 847 0 661 0 c 2,48,-1
 43 0 l 1,49,-1
 66 138 l 1,50,-1
 246 241 l 1,51,-1
 246 499 l 1,52,-1
 66 483 l 1,27,-1
EndSplineSet
Substitution2: "Neuton-Regular-'c2sc' Capitals to Small Capitals in Latin lookup 3-1" eth.sc
Colour: ffffff
EndChar

StartChar: Euro
Encoding: 207 8364 18
Width: 1330
VWidth: 0
Flags: MW
LayerCount: 3
Fore
SplineSet
64 655 m 1,0,-1
 80 789 l 1,1,-1
 209 789 l 1,2,3
 242 888 242 888 302 973 c 128,-1,4
 362 1058 362 1058 445.5 1124 c 128,-1,5
 529 1190 529 1190 642.5 1228 c 128,-1,6
 756 1266 756 1266 885 1266 c 0,7,8
 992 1266 992 1266 1093 1241.5 c 128,-1,9
 1194 1217 1194 1217 1260 1166 c 1,10,-1
 1233 815 l 1,11,-1
 1058 837 l 1,12,-1
 992 1027 l 1,13,14
 898 1096 898 1096 759 1096 c 0,15,16
 664 1096 664 1096 605 1021.5 c 128,-1,17
 546 947 546 947 542 789 c 1,18,-1
 991 789 l 1,19,-1
 964 655 l 1,20,-1
 551 655 l 1,21,22
 556 622 556 622 562 589 c 1,23,-1
 945 589 l 1,24,-1
 918 456 l 1,25,-1
 598 456 l 1,26,27
 620 395 620 395 648 344.5 c 128,-1,28
 676 294 676 294 712.5 252.5 c 128,-1,29
 749 211 749 211 796.5 187.5 c 128,-1,30
 844 164 844 164 897 164 c 0,31,32
 986 164 986 164 1000 188 c 1,33,-1
 1074 408 l 1,34,-1
 1250 436 l 1,35,-1
 1279 127 l 1,36,37
 1180 37 1180 37 1083.5 7 c 128,-1,38
 987 -23 987 -23 851 -23 c 0,39,40
 731 -23 731 -23 629 2 c 128,-1,41
 527 27 527 27 452 71 c 128,-1,42
 377 115 377 115 320.5 176 c 128,-1,43
 264 237 264 237 230.5 307 c 128,-1,44
 197 377 197 377 183 456 c 1,45,-1
 48 456 l 1,46,-1
 64 589 l 1,47,-1
 173 589 l 1,48,49
 174 622 174 622 178 655 c 1,50,-1
 64 655 l 1,0,-1
EndSplineSet
Colour: ffffff
EndChar

StartChar: F
Encoding: 38 70 19
Width: 1256
VWidth: 0
Flags: MW
LayerCount: 3
Fore
SplineSet
34 1100 m 1,0,-1
 53 1244 l 1,1,-1
 1221 1244 l 1,2,-1
 1162 834 l 1,3,-1
 995 861 l 1,4,-1
 935 1072 l 1,5,-1
 599 1072 l 1,6,-1
 599 686 l 1,7,-1
 826 709 l 1,8,-1
 859 712 l 1,9,-1
 1018 728 l 1,10,-1
 985 452 l 1,11,-1
 832 477 l 1,12,-1
 790 483 l 1,13,-1
 599 514 l 1,14,-1
 599 227 l 1,15,-1
 834 163 l 1,16,-1
 818 0 l 1,17,-1
 49 0 l 1,18,-1
 65 138 l 1,19,-1
 227 217 l 1,20,-1
 227 1030 l 1,21,-1
 34 1100 l 1,0,-1
EndSplineSet
Substitution2: "Neuton-Regular-'c2sc' Capitals to Small Capitals in Latin lookup 3-1" f.sc
Colour: ffffff
EndChar

StartChar: G
Encoding: 39 71 20
Width: 1412
VWidth: 0
Flags: MW
LayerCount: 3
Back
SplineSet
0 619 m 4,0,1
 0 911 0 911 203.5 1090 c 0
 407 1269 407 1269 755 1269 c 0,2,3
 914 1269 914 1269 1038.5 1231.5 c 0
 1163 1194 1163 1194 1256.5 1116 c 0
 1350 1038 1350 1038 1399.5 908.5 c 0
 1449 779 1449 779 1449 603 c 0,4,5
 1449 448 1449 448 1391 326.5 c 0
 1333 205 1333 205 1229.5 128.5 c 0
 1126 52 1126 52 988 12.5 c 0
 850 -27 850 -27 685 -27 c 0,6,7
 512 -27 512 -27 380 20 c 0
 248 67 248 67 165.5 153.5 c 0
 83 240 83 240 41.5 357 c 0
 0 474 0 474 0 619 c 4,0,1
448 671 m 4,8,9
 448 630 448 630 453 582.5 c 0
 458 535 458 535 469.5 475.5 c 0
 481 416 481 416 503 362.5 c 0
 525 309 525 309 555.5 263 c 0
 586 217 586 217 633 190 c 0
 680 163 680 163 738 163 c 0,10,11
 868 163 868 163 933 262.5 c 0
 998 362 998 362 998 573 c 0,12,13
 998 609 998 609 995.5 648.5 c 0
 993 688 993 688 985 740.5 c 0
 977 793 977 793 964 840 c 0
 951 887 951 887 928.5 934.5 c 0
 906 982 906 982 877 1016.5 c 0
 848 1051 848 1051 804.5 1072.5 c 0
 761 1094 761 1094 709 1094 c 0,14,15
 572 1094 572 1094 510 985.5 c 0
 448 877 448 877 448 671 c 4,8,9
EndSplineSet
Fore
SplineSet
36 580 m 0,0,1
 36 710 36 710 78 823 c 128,-1,2
 120 936 120 936 192 1017 c 128,-1,3
 264 1098 264 1098 359 1156 c 128,-1,4
 454 1214 454 1214 560.5 1242.5 c 128,-1,5
 667 1271 667 1271 777 1271 c 0,6,7
 900 1271 900 1271 1002.5 1255.5 c 128,-1,8
 1105 1240 1105 1240 1152.5 1224.5 c 128,-1,9
 1200 1209 1200 1209 1258 1185 c 1,10,-1
 1217 746 l 1,11,-1
 1029 761 l 1,12,-1
 988 1009 l 1,13,14
 883 1087 883 1087 730 1087 c 0,15,16
 590 1087 590 1087 517 994 c 128,-1,17
 444 901 444 901 444 696 c 0,18,19
 444 452 444 452 526 323.5 c 128,-1,20
 608 195 608 195 752 195 c 0,21,22
 817 195 817 195 856.5 207.5 c 128,-1,23
 896 220 896 220 925 255 c 1,24,-1
 925 355 l 1,25,-1
 704 419 l 1,26,-1
 727 591 l 1,27,-1
 1377 591 l 1,28,-1
 1356 405 l 1,29,-1
 1261 363 l 1,30,-1
 1261 93 l 1,31,32
 1196 51 1196 51 1034.5 13.5 c 128,-1,33
 873 -24 873 -24 756 -24 c 0,34,35
 398 -24 398 -24 217 129.5 c 128,-1,36
 36 283 36 283 36 580 c 0,0,1
EndSplineSet
Substitution2: "Neuton-Regular-'c2sc' Capitals to Small Capitals in Latin lookup 3-1" g.sc
Colour: ffffff
EndChar

StartChar: H
Encoding: 40 72 21
Width: 1609
VWidth: 0
Flags: MW
LayerCount: 3
Fore
SplineSet
34 1094 m 1,0,-1
 59 1244 l 1,1,-1
 749 1244 l 1,2,-1
 730 1094 l 1,3,-1
 593 1027 l 1,4,-1
 593 744 l 1,5,-1
 1010 744 l 1,6,-1
 1010 1020 l 1,7,-1
 859 1094 l 1,8,-1
 876 1244 l 1,9,-1
 1574 1244 l 1,10,-1
 1555 1094 l 1,11,-1
 1387 1027 l 1,12,-1
 1387 211 l 1,13,-1
 1566 148 l 1,14,-1
 1552 0 l 1,15,-1
 859 0 l 1,16,-1
 873 138 l 1,17,-1
 1010 217 l 1,18,-1
 1010 493 l 1,19,-1
 593 493 l 1,20,-1
 593 211 l 1,21,-1
 744 148 l 1,22,-1
 726 0 l 1,23,-1
 39 0 l 1,24,-1
 51 138 l 1,25,-1
 220 217 l 1,26,-1
 220 1020 l 1,27,-1
 34 1094 l 1,0,-1
EndSplineSet
Substitution2: "Neuton-Regular-'c2sc' Capitals to Small Capitals in Latin lookup 3-1" h.sc
Colour: ffffff
EndChar

StartChar: I
Encoding: 41 73 22
Width: 816
VWidth: 0
Flags: MW
LayerCount: 3
Fore
SplineSet
34 1094 m 1,0,-1
 54 1244 l 1,1,-1
 781 1244 l 1,2,-1
 765 1084 l 1,3,-1
 586 1017 l 1,4,-1
 586 223 l 1,5,-1
 766 160 l 1,6,-1
 753 0 l 1,7,-1
 36 0 l 1,8,-1
 46 142 l 1,9,-1
 222 221 l 1,10,-1
 222 1020 l 1,11,-1
 34 1094 l 1,0,-1
EndSplineSet
Substitution2: "Neuton-Regular-'c2sc' Capitals to Small Capitals in Latin lookup 3-1" i.sc
Colour: ffffff
EndChar

StartChar: Iacute
Encoding: 140 205 23
Width: 816
VWidth: 0
Flags: MW
LayerCount: 3
Fore
SplineSet
221 1334 m 1,0,-1
 366 1639 l 1,1,-1
 716 1629 l 1,2,-1
 455 1308 l 1,3,-1
 221 1334 l 1,0,-1
34 1094 m 1,4,-1
 54 1244 l 1,5,-1
 781 1244 l 1,6,-1
 765 1084 l 1,7,-1
 586 1017 l 1,8,-1
 586 223 l 1,9,-1
 766 160 l 1,10,-1
 753 0 l 1,11,-1
 36 0 l 1,12,-1
 46 142 l 1,13,-1
 222 221 l 1,14,-1
 222 1020 l 1,15,-1
 34 1094 l 1,4,-1
EndSplineSet
Substitution2: "Neuton-Regular-'c2sc' Capitals to Small Capitals in Latin lookup 3-1" iacute.sc
Colour: ffffff
EndChar

StartChar: Icircumflex
Encoding: 141 206 24
Width: 816
VWidth: 0
Flags: MW
LayerCount: 3
Fore
SplineSet
104 1315 m 1,0,-1
 257 1570 l 1,1,-1
 582 1570 l 1,2,-1
 736 1315 l 1,3,-1
 483 1306 l 1,4,-1
 419 1427 l 1,5,-1
 405 1427 l 1,6,-1
 337 1305 l 1,7,-1
 104 1315 l 1,0,-1
34 1094 m 1,8,-1
 54 1244 l 1,9,-1
 781 1244 l 1,10,-1
 765 1084 l 1,11,-1
 586 1017 l 1,12,-1
 586 223 l 1,13,-1
 766 160 l 1,14,-1
 753 0 l 1,15,-1
 36 0 l 1,16,-1
 46 142 l 1,17,-1
 222 221 l 1,18,-1
 222 1020 l 1,19,-1
 34 1094 l 1,8,-1
EndSplineSet
Substitution2: "Neuton-Regular-'c2sc' Capitals to Small Capitals in Latin lookup 3-1" icircumflex.sc
Colour: ffffff
EndChar

StartChar: Idieresis
Encoding: 142 207 25
Width: 816
VWidth: 0
Flags: MW
LayerCount: 3
Fore
SplineSet
427 1412 m 0,0,1
 427 1431 427 1431 433.5 1448.5 c 128,-1,2
 440 1466 440 1466 455 1482.5 c 128,-1,3
 470 1499 470 1499 498 1509 c 128,-1,4
 526 1519 526 1519 565 1519 c 0,5,6
 606 1519 606 1519 635 1509 c 128,-1,7
 664 1499 664 1499 679.5 1483 c 128,-1,8
 695 1467 695 1467 701.5 1450 c 128,-1,9
 708 1433 708 1433 708 1414 c 0,10,11
 708 1305 708 1305 564 1305 c 0,12,13
 427 1305 427 1305 427 1412 c 0,0,1
118 1412 m 0,14,15
 118 1431 118 1431 124.5 1448.5 c 128,-1,16
 131 1466 131 1466 146 1482.5 c 128,-1,17
 161 1499 161 1499 189 1509 c 128,-1,18
 217 1519 217 1519 256 1519 c 0,19,20
 297 1519 297 1519 326 1509 c 128,-1,21
 355 1499 355 1499 370.5 1483 c 128,-1,22
 386 1467 386 1467 392.5 1450 c 128,-1,23
 399 1433 399 1433 399 1414 c 0,24,25
 399 1305 399 1305 255 1305 c 0,26,27
 118 1305 118 1305 118 1412 c 0,14,15
34 1094 m 1,28,-1
 54 1244 l 1,29,-1
 781 1244 l 1,30,-1
 765 1084 l 1,31,-1
 586 1017 l 1,32,-1
 586 223 l 1,33,-1
 766 160 l 1,34,-1
 753 0 l 1,35,-1
 36 0 l 1,36,-1
 46 142 l 1,37,-1
 222 221 l 1,38,-1
 222 1020 l 1,39,-1
 34 1094 l 1,28,-1
EndSplineSet
Substitution2: "Neuton-Regular-'c2sc' Capitals to Small Capitals in Latin lookup 3-1" idieresis.sc
Colour: ffffff
EndChar

StartChar: Igrave
Encoding: 139 204 26
Width: 816
VWidth: 0
Flags: MW
LayerCount: 3
Fore
SplineSet
554 1334 m 1,0,-1
 320 1308 l 1,1,-1
 59 1629 l 1,2,-1
 409 1639 l 1,3,-1
 554 1334 l 1,0,-1
34 1094 m 1,4,-1
 54 1244 l 1,5,-1
 781 1244 l 1,6,-1
 765 1084 l 1,7,-1
 586 1017 l 1,8,-1
 586 223 l 1,9,-1
 766 160 l 1,10,-1
 753 0 l 1,11,-1
 36 0 l 1,12,-1
 46 142 l 1,13,-1
 222 221 l 1,14,-1
 222 1020 l 1,15,-1
 34 1094 l 1,4,-1
EndSplineSet
Substitution2: "Neuton-Regular-'c2sc' Capitals to Small Capitals in Latin lookup 3-1" igrave.sc
Colour: ffffff
EndChar

StartChar: J
Encoding: 42 74 27
Width: 820
VWidth: 0
Flags: MW
LayerCount: 3
Fore
SplineSet
34 -151 m 1,0,1
 135 -70 135 -70 186.5 49.5 c 128,-1,2
 238 169 238 169 238 285 c 2,3,-1
 238 1020 l 1,4,-1
 53 1094 l 1,5,-1
 72 1244 l 1,6,-1
 785 1244 l 1,7,-1
 765 1094 l 1,8,-1
 605 1027 l 1,9,-1
 605 434 l 1,10,11
 606 277 606 277 587 173.5 c 128,-1,12
 568 70 568 70 512.5 -18.5 c 128,-1,13
 457 -107 457 -107 375 -174 c 128,-1,14
 293 -241 293 -241 151 -326 c 1,15,-1
 34 -151 l 1,0,1
EndSplineSet
Substitution2: "Neuton-Regular-'c2sc' Capitals to Small Capitals in Latin lookup 3-1" j.sc
Colour: ffffff
EndChar

StartChar: K
Encoding: 43 75 28
Width: 1546
VWidth: 0
Flags: MW
LayerCount: 3
Back
SplineSet
46 1094 m 1,0,-1
 78 1244 l 1,1,-1
 631 1244 l 1,2,-1
 631 1094 l 1,3,-1
 631 1000 l 1,4,-1
 631 240 l 1,5,-1
 631 148 l 1,6,-1
 631 0 l 1,7,-1
 49 0 l 1,8,-1
 65 138 l 1,9,-1
 267 241 l 1,10,-1
 267 993 l 1,11,-1
 46 1094 l 1,0,-1
613 646 m 1,12,-1
 843 1003 l 1,13,-1
 1029 1244 l 1,14,-1
 1404 1244 l 1,15,-1
 1374 1094 l 1,16,-1
 1128 1001 l 1,17,-1
 856 670 l 1,18,19
 1005 473 1005 473 1188 310 c 0
 1371 147 1371 147 1473 113 c 1,20,-1
 1441 2 l 1,21,22
 1391 -27 1391 -27 1291 -27 c 0,23,24
 1233 -27 1233 -27 1175.5 -11.5 c 0
 1118 4 1118 4 1071 26.5 c 0
 1024 49 1024 49 975 88 c 0
 926 127 926 127 890.5 160.5 c 0
 855 194 855 194 814 246.5 c 0
 773 299 773 299 748.5 333 c 0
 724 367 724 367 691 422.5 c 0
 658 478 658 478 644.5 501.5 c 0
 631 525 631 525 606.138 571.659 c 0
 602 579 602 579 600 583 c 1,25,-1
 613 646 l 1,12,-1
EndSplineSet
Fore
SplineSet
654 665 m 1,0,1
 680 698 680 698 719 750 c 2,2,-1
 904 1003 l 1,3,-1
 917 1082 l 1,4,-1
 944 1244 l 1,5,-1
 1462 1244 l 1,6,-1
 1432 1094 l 1,7,-1
 1211 1000 l 1,8,-1
 958 670 l 1,9,-1
 1136 460 l 1,10,11
 1242 333 1242 333 1322 261.5 c 128,-1,12
 1402 190 1402 190 1486 146 c 2,13,-1
 1511 133 l 1,14,-1
 1479 2 l 1,15,16
 1367 -22 1367 -22 1285 -22 c 0,17,18
 1143 -22 1143 -22 1034 56.5 c 128,-1,19
 925 135 925 135 794 346 c 2,20,-1
 650 578 l 1,21,-1
 654 665 l 1,0,1
34 1094 m 1,22,-1
 66 1244 l 1,23,-1
 786 1244 l 1,24,-1
 763 1074 l 1,25,-1
 619 1000 l 1,26,-1
 619 240 l 1,27,-1
 814 148 l 1,28,-1
 802 0 l 1,29,-1
 37 0 l 1,30,-1
 53 138 l 1,31,-1
 255 241 l 1,32,-1
 255 993 l 1,33,-1
 34 1094 l 1,22,-1
EndSplineSet
Substitution2: "Neuton-Regular-'c2sc' Capitals to Small Capitals in Latin lookup 3-1" k.sc
Colour: ffffff
EndChar

StartChar: L
Encoding: 44 76 29
Width: 1228
VWidth: 0
Flags: MW
LayerCount: 3
Fore
SplineSet
34 0 m 1,0,-1
 50 138 l 1,1,-1
 210 217 l 1,2,-1
 210 998 l 1,3,-1
 38 1098 l 1,4,-1
 57 1245 l 1,5,-1
 800 1245 l 1,6,-1
 779 1098 l 1,7,-1
 583 1000 l 1,8,-1
 583 200 l 1,9,-1
 853 178 l 1,10,-1
 1027 453 l 1,11,-1
 1193 430 l 1,12,-1
 1146 0 l 1,13,-1
 34 0 l 1,0,-1
EndSplineSet
Substitution2: "Neuton-Regular-'c2sc' Capitals to Small Capitals in Latin lookup 3-1" l.sc
Colour: ffffff
EndChar

StartChar: M
Encoding: 45 77 30
Width: 1873
VWidth: 0
Flags: MW
LayerCount: 3
Fore
SplineSet
34 0 m 1,0,-1
 55 154 l 1,1,-1
 223 233 l 1,2,-1
 281 1030 l 1,3,-1
 97 1087 l 1,4,-1
 113 1244 l 1,5,-1
 764 1244 l 1,6,-1
 821 1039 l 1,7,-1
 949 553 l 1,8,-1
 1105 1041 l 1,9,-1
 1172 1244 l 1,10,-1
 1792 1244 l 1,11,-1
 1774 1087 l 1,12,-1
 1622 1033 l 1,13,-1
 1672 229 l 1,14,-1
 1838 161 l 1,15,-1
 1824 0 l 1,16,-1
 1163 0 l 1,17,-1
 1186 154 l 1,18,-1
 1288 223 l 1,19,-1
 1265 786 l 1,20,-1
 1040 31 l 1,21,-1
 747 -8 l 1,22,-1
 518 787 l 1,23,-1
 485 229 l 1,24,-1
 614 161 l 1,25,-1
 589 0 l 1,26,-1
 34 0 l 1,0,-1
EndSplineSet
Substitution2: "Neuton-Regular-'c2sc' Capitals to Small Capitals in Latin lookup 3-1" m.sc
Colour: ffffff
EndChar

StartChar: N
Encoding: 46 78 31
Width: 1442
VWidth: 0
Flags: MW
LayerCount: 3
Fore
SplineSet
38 1087 m 1,0,-1
 52 1244 l 1,1,-1
 462 1244 l 1,2,-1
 1024 513 l 1,3,-1
 1024 1020 l 1,4,-1
 836 1094 l 1,5,-1
 860 1244 l 1,6,-1
 1407 1244 l 1,7,-1
 1382 1094 l 1,8,-1
 1244 1027 l 1,9,-1
 1244 15 l 1,10,-1
 951 -29 l 1,11,-1
 448 619 l 1,12,-1
 448 211 l 1,13,-1
 628 148 l 1,14,-1
 615 0 l 1,15,-1
 34 0 l 1,16,-1
 44 138 l 1,17,-1
 215 217 l 1,18,-1
 215 1003 l 1,19,-1
 38 1087 l 1,0,-1
EndSplineSet
Substitution2: "Neuton-Regular-'c2sc' Capitals to Small Capitals in Latin lookup 3-1" n.sc
Colour: ffffff
EndChar

StartChar: Ntilde
Encoding: 144 209 32
Width: 1442
VWidth: 0
Flags: MW
LayerCount: 3
Fore
SplineSet
494 1308 m 1,0,-1
 377 1319 l 1,1,2
 379 1399 379 1399 395.5 1455.5 c 128,-1,3
 412 1512 412 1512 439 1543 c 128,-1,4
 466 1574 466 1574 505 1586.5 c 128,-1,5
 544 1599 544 1599 587 1595.5 c 128,-1,6
 630 1592 630 1592 682 1576 c 2,7,-1
 752 1554 l 2,8,9
 819 1532 819 1532 854 1542.5 c 128,-1,10
 889 1553 889 1553 903 1604 c 1,11,-1
 1018 1593 l 1,12,13
 1008 1407 1008 1407 935.5 1349 c 128,-1,14
 863 1291 863 1291 724 1334 c 2,15,-1
 658 1354 l 1,16,17
 571 1378 571 1378 541.5 1368 c 128,-1,18
 512 1358 512 1358 494 1308 c 1,0,-1
38 1087 m 1,19,-1
 52 1244 l 1,20,-1
 462 1244 l 1,21,-1
 1024 513 l 1,22,-1
 1024 1020 l 1,23,-1
 836 1094 l 1,24,-1
 860 1244 l 1,25,-1
 1407 1244 l 1,26,-1
 1382 1094 l 1,27,-1
 1244 1027 l 1,28,-1
 1244 15 l 1,29,-1
 951 -29 l 1,30,-1
 448 619 l 1,31,-1
 448 211 l 1,32,-1
 628 148 l 1,33,-1
 615 0 l 1,34,-1
 34 0 l 1,35,-1
 44 138 l 1,36,-1
 215 217 l 1,37,-1
 215 1003 l 1,38,-1
 38 1087 l 1,19,-1
EndSplineSet
Substitution2: "Neuton-Regular-'c2sc' Capitals to Small Capitals in Latin lookup 3-1" ntilde.sc
Colour: ffffff
EndChar

StartChar: O
Encoding: 47 79 33
Width: 1355
VWidth: 0
Flags: MW
LayerCount: 3
Fore
SplineSet
444 671 m 0,0,1
 444 620 444 620 450 562 c 128,-1,2
 456 504 456 504 474 430.5 c 128,-1,3
 492 357 492 357 520.5 299.5 c 128,-1,4
 549 242 549 242 598.5 202.5 c 128,-1,5
 648 163 648 163 712 163 c 0,6,7
 904 163 904 163 904 573 c 0,8,9
 904 626 904 626 899 684.5 c 128,-1,10
 894 743 894 743 878 819 c 128,-1,11
 862 895 862 895 836 953.5 c 128,-1,12
 810 1012 810 1012 762.5 1053 c 128,-1,13
 715 1094 715 1094 653 1094 c 0,14,15
 543 1094 543 1094 493.5 985.5 c 128,-1,16
 444 877 444 877 444 671 c 0,0,1
36 619 m 0,17,18
 36 763 36 763 82 883 c 128,-1,19
 128 1003 128 1003 212 1088.5 c 128,-1,20
 296 1174 296 1174 421 1221.5 c 128,-1,21
 546 1269 546 1269 699 1269 c 0,22,23
 839 1269 839 1269 949 1233 c 128,-1,24
 1059 1197 1059 1197 1143.5 1121 c 128,-1,25
 1228 1045 1228 1045 1273 916.5 c 128,-1,26
 1318 788 1318 788 1318 613 c 0,27,28
 1318 460 1318 460 1267 337.5 c 128,-1,29
 1216 215 1216 215 1126.5 136 c 128,-1,30
 1037 57 1037 57 917.5 15 c 128,-1,31
 798 -27 798 -27 659 -27 c 0,32,33
 501 -27 501 -27 381 20 c 128,-1,34
 261 67 261 67 186 153.5 c 128,-1,35
 111 240 111 240 73.5 357 c 128,-1,36
 36 474 36 474 36 619 c 0,17,18
EndSplineSet
Substitution2: "Neuton-Regular-'c2sc' Capitals to Small Capitals in Latin lookup 3-1" o.sc
Colour: ffffff
EndChar

StartChar: Oacute
Encoding: 146 211 34
Width: 1355
VWidth: 0
Flags: MW
LayerCount: 3
Fore
SplineSet
481 1336 m 1,0,-1
 626 1641 l 1,1,-1
 976 1631 l 1,2,-1
 715 1310 l 1,3,-1
 481 1336 l 1,0,-1
444 671 m 0,4,5
 444 620 444 620 450 562 c 128,-1,6
 456 504 456 504 474 430.5 c 128,-1,7
 492 357 492 357 520.5 299.5 c 128,-1,8
 549 242 549 242 598.5 202.5 c 128,-1,9
 648 163 648 163 712 163 c 0,10,11
 904 163 904 163 904 573 c 0,12,13
 904 626 904 626 899 684.5 c 128,-1,14
 894 743 894 743 878 819 c 128,-1,15
 862 895 862 895 836 953.5 c 128,-1,16
 810 1012 810 1012 762.5 1053 c 128,-1,17
 715 1094 715 1094 653 1094 c 0,18,19
 543 1094 543 1094 493.5 985.5 c 128,-1,20
 444 877 444 877 444 671 c 0,4,5
36 619 m 0,21,22
 36 763 36 763 82 883 c 128,-1,23
 128 1003 128 1003 212 1088.5 c 128,-1,24
 296 1174 296 1174 421 1221.5 c 128,-1,25
 546 1269 546 1269 699 1269 c 0,26,27
 839 1269 839 1269 949 1233 c 128,-1,28
 1059 1197 1059 1197 1143.5 1121 c 128,-1,29
 1228 1045 1228 1045 1273 916.5 c 128,-1,30
 1318 788 1318 788 1318 613 c 0,31,32
 1318 460 1318 460 1267 337.5 c 128,-1,33
 1216 215 1216 215 1126.5 136 c 128,-1,34
 1037 57 1037 57 917.5 15 c 128,-1,35
 798 -27 798 -27 659 -27 c 0,36,37
 501 -27 501 -27 381 20 c 128,-1,38
 261 67 261 67 186 153.5 c 128,-1,39
 111 240 111 240 73.5 357 c 128,-1,40
 36 474 36 474 36 619 c 0,21,22
EndSplineSet
Substitution2: "Neuton-Regular-'c2sc' Capitals to Small Capitals in Latin lookup 3-1" oacute.sc
Colour: ffffff
EndChar

StartChar: Ocircumflex
Encoding: 147 212 35
Width: 1355
VWidth: 0
Flags: MW
LayerCount: 3
Fore
SplineSet
372 1318 m 1,0,-1
 525 1573 l 1,1,-1
 850 1573 l 1,2,-1
 1004 1318 l 1,3,-1
 751 1309 l 1,4,-1
 687 1430 l 1,5,-1
 673 1430 l 1,6,-1
 605 1308 l 1,7,-1
 372 1318 l 1,0,-1
444 671 m 0,8,9
 444 620 444 620 450 562 c 128,-1,10
 456 504 456 504 474 430.5 c 128,-1,11
 492 357 492 357 520.5 299.5 c 128,-1,12
 549 242 549 242 598.5 202.5 c 128,-1,13
 648 163 648 163 712 163 c 0,14,15
 904 163 904 163 904 573 c 0,16,17
 904 626 904 626 899 684.5 c 128,-1,18
 894 743 894 743 878 819 c 128,-1,19
 862 895 862 895 836 953.5 c 128,-1,20
 810 1012 810 1012 762.5 1053 c 128,-1,21
 715 1094 715 1094 653 1094 c 0,22,23
 543 1094 543 1094 493.5 985.5 c 128,-1,24
 444 877 444 877 444 671 c 0,8,9
36 619 m 0,25,26
 36 763 36 763 82 883 c 128,-1,27
 128 1003 128 1003 212 1088.5 c 128,-1,28
 296 1174 296 1174 421 1221.5 c 128,-1,29
 546 1269 546 1269 699 1269 c 0,30,31
 839 1269 839 1269 949 1233 c 128,-1,32
 1059 1197 1059 1197 1143.5 1121 c 128,-1,33
 1228 1045 1228 1045 1273 916.5 c 128,-1,34
 1318 788 1318 788 1318 613 c 0,35,36
 1318 460 1318 460 1267 337.5 c 128,-1,37
 1216 215 1216 215 1126.5 136 c 128,-1,38
 1037 57 1037 57 917.5 15 c 128,-1,39
 798 -27 798 -27 659 -27 c 0,40,41
 501 -27 501 -27 381 20 c 128,-1,42
 261 67 261 67 186 153.5 c 128,-1,43
 111 240 111 240 73.5 357 c 128,-1,44
 36 474 36 474 36 619 c 0,25,26
EndSplineSet
Substitution2: "Neuton-Regular-'c2sc' Capitals to Small Capitals in Latin lookup 3-1" ocircumflex.sc
Colour: ffffff
EndChar

StartChar: Odieresis
Encoding: 149 214 36
Width: 1355
VWidth: 0
Flags: MW
LayerCount: 3
Fore
SplineSet
687 1418 m 0,0,1
 687 1437 687 1437 693.5 1454.5 c 128,-1,2
 700 1472 700 1472 715 1488.5 c 128,-1,3
 730 1505 730 1505 758 1515 c 128,-1,4
 786 1525 786 1525 825 1525 c 0,5,6
 866 1525 866 1525 895 1515 c 128,-1,7
 924 1505 924 1505 939.5 1489 c 128,-1,8
 955 1473 955 1473 961.5 1456 c 128,-1,9
 968 1439 968 1439 968 1420 c 0,10,11
 968 1311 968 1311 824 1311 c 0,12,13
 687 1311 687 1311 687 1418 c 0,0,1
378 1418 m 0,14,15
 378 1437 378 1437 384.5 1454.5 c 128,-1,16
 391 1472 391 1472 406 1488.5 c 128,-1,17
 421 1505 421 1505 449 1515 c 128,-1,18
 477 1525 477 1525 516 1525 c 0,19,20
 557 1525 557 1525 586 1515 c 128,-1,21
 615 1505 615 1505 630.5 1489 c 128,-1,22
 646 1473 646 1473 652.5 1456 c 128,-1,23
 659 1439 659 1439 659 1420 c 0,24,25
 659 1311 659 1311 515 1311 c 0,26,27
 378 1311 378 1311 378 1418 c 0,14,15
444 671 m 0,28,29
 444 620 444 620 450 562 c 128,-1,30
 456 504 456 504 474 430.5 c 128,-1,31
 492 357 492 357 520.5 299.5 c 128,-1,32
 549 242 549 242 598.5 202.5 c 128,-1,33
 648 163 648 163 712 163 c 0,34,35
 904 163 904 163 904 573 c 0,36,37
 904 626 904 626 899 684.5 c 128,-1,38
 894 743 894 743 878 819 c 128,-1,39
 862 895 862 895 836 953.5 c 128,-1,40
 810 1012 810 1012 762.5 1053 c 128,-1,41
 715 1094 715 1094 653 1094 c 0,42,43
 543 1094 543 1094 493.5 985.5 c 128,-1,44
 444 877 444 877 444 671 c 0,28,29
36 619 m 0,45,46
 36 763 36 763 82 883 c 128,-1,47
 128 1003 128 1003 212 1088.5 c 128,-1,48
 296 1174 296 1174 421 1221.5 c 128,-1,49
 546 1269 546 1269 699 1269 c 0,50,51
 839 1269 839 1269 949 1233 c 128,-1,52
 1059 1197 1059 1197 1143.5 1121 c 128,-1,53
 1228 1045 1228 1045 1273 916.5 c 128,-1,54
 1318 788 1318 788 1318 613 c 0,55,56
 1318 460 1318 460 1267 337.5 c 128,-1,57
 1216 215 1216 215 1126.5 136 c 128,-1,58
 1037 57 1037 57 917.5 15 c 128,-1,59
 798 -27 798 -27 659 -27 c 0,60,61
 501 -27 501 -27 381 20 c 128,-1,62
 261 67 261 67 186 153.5 c 128,-1,63
 111 240 111 240 73.5 357 c 128,-1,64
 36 474 36 474 36 619 c 0,45,46
EndSplineSet
Substitution2: "Neuton-Regular-'c2sc' Capitals to Small Capitals in Latin lookup 3-1" odieresis.sc
Colour: ffffff
EndChar

StartChar: Ograve
Encoding: 145 210 37
Width: 1355
VWidth: 0
Flags: MW
LayerCount: 3
Fore
SplineSet
844 1337 m 1,0,-1
 610 1311 l 1,1,-1
 349 1632 l 1,2,-1
 699 1642 l 1,3,-1
 844 1337 l 1,0,-1
444 671 m 0,4,5
 444 620 444 620 450 562 c 128,-1,6
 456 504 456 504 474 430.5 c 128,-1,7
 492 357 492 357 520.5 299.5 c 128,-1,8
 549 242 549 242 598.5 202.5 c 128,-1,9
 648 163 648 163 712 163 c 0,10,11
 904 163 904 163 904 573 c 0,12,13
 904 626 904 626 899 684.5 c 128,-1,14
 894 743 894 743 878 819 c 128,-1,15
 862 895 862 895 836 953.5 c 128,-1,16
 810 1012 810 1012 762.5 1053 c 128,-1,17
 715 1094 715 1094 653 1094 c 0,18,19
 543 1094 543 1094 493.5 985.5 c 128,-1,20
 444 877 444 877 444 671 c 0,4,5
36 619 m 0,21,22
 36 763 36 763 82 883 c 128,-1,23
 128 1003 128 1003 212 1088.5 c 128,-1,24
 296 1174 296 1174 421 1221.5 c 128,-1,25
 546 1269 546 1269 699 1269 c 0,26,27
 839 1269 839 1269 949 1233 c 128,-1,28
 1059 1197 1059 1197 1143.5 1121 c 128,-1,29
 1228 1045 1228 1045 1273 916.5 c 128,-1,30
 1318 788 1318 788 1318 613 c 0,31,32
 1318 460 1318 460 1267 337.5 c 128,-1,33
 1216 215 1216 215 1126.5 136 c 128,-1,34
 1037 57 1037 57 917.5 15 c 128,-1,35
 798 -27 798 -27 659 -27 c 0,36,37
 501 -27 501 -27 381 20 c 128,-1,38
 261 67 261 67 186 153.5 c 128,-1,39
 111 240 111 240 73.5 357 c 128,-1,40
 36 474 36 474 36 619 c 0,21,22
EndSplineSet
Substitution2: "Neuton-Regular-'c2sc' Capitals to Small Capitals in Latin lookup 3-1" ograve.sc
Colour: ffffff
EndChar

StartChar: Oslash
Encoding: 151 216 38
Width: 1355
VWidth: 0
Flags: MW
LayerCount: 3
Back
SplineSet
66.0283 44 m 5,0,-1
 271.028 270 l 1,1,-1
 444.028 302 l 1,2,-1
 1059.03 1058 l 1,3,-1
 1077.03 1158 l 1,4,-1
 1209.03 1282 l 1,5,-1
 1452.03 1231 l 1,6,-1
 1213.03 987 l 1,7,-1
 1100.03 968 l 1,8,-1
 486.028 203 l 1,9,-1
 415.028 96 l 1,10,-1
 312.028 -19 l 1,11,-1
 66.0283 44 l 5,0,-1
494.028 671 m 0,12,13
 494.028 636.533 494.028 636.533 497.189 596.992 c 0
 500.35 557.451 500.35 557.451 509.112 507.09 c 0
 517.873 456.729 517.873 456.729 531.352 409.971 c 0
 544.832 363.213 544.832 363.213 567.642 317.498 c 0
 590.452 271.783 590.452 271.783 619.393 238.135 c 0
 648.334 204.486 648.334 204.486 690.336 183.743 c 0
 732.338 163 732.338 163 782.028 163 c 0,14,15
 912.536 163 912.536 163 978.283 262.458 c 0
 1044.03 361.915 1044.03 361.915 1044.03 573 c 0,16,17
 1044.03 608.936 1044.03 608.936 1041.34 648.442 c 0
 1038.65 687.949 1038.65 687.949 1030.44 740.278 c 0
 1022.24 792.606 1022.24 792.606 1009.31 840.069 c 0
 996.374 887.532 996.374 887.532 973.628 934.931 c 0
 950.883 982.329 950.883 982.329 921.512 1016.72 c 0
 892.142 1051.12 892.142 1051.12 848.659 1072.56 c 0
 805.177 1094 805.177 1094 753.028 1094 c 0,18,19
 682.995 1094 682.995 1094 632.606 1065.2 c 0
 582.217 1036.4 582.217 1036.4 552.075 980.299 c 0
 521.934 924.197 521.934 924.197 507.981 848.076 c 0
 494.028 771.954 494.028 771.954 494.028 671 c 0,12,13
46.0283 619 m 1,20,21
 46.0283 762.759 46.0283 762.759 98.0325 882.882 c 0
 150.037 1003 150.037 1003 245.836 1088.48 c 0
 341.636 1173.95 341.636 1173.95 483.532 1221.48 c 0
 625.428 1269 625.428 1269 799.028 1269 c 0,22,23
 926.303 1269 926.303 1269 1032.04 1247.05 c 0
 1137.77 1225.1 1137.77 1225.1 1227.15 1175.75 c 0
 1316.53 1126.41 1316.53 1126.41 1377.99 1051.13 c 0
 1439.45 975.848 1439.45 975.848 1473.74 864.872 c 0
 1508.03 753.895 1508.03 753.895 1508.03 613 c 0,24,25
 1508.03 490.469 1508.03 490.469 1468.84 386.648 c 0
 1429.65 282.826 1429.65 282.826 1359.04 207.24 c 0
 1288.43 131.654 1288.43 131.654 1191.22 78.5196 c 0
 1094.01 25.3848 1094.01 25.3848 977.021 -0.807623 c 0
 860.029 -27 860.029 -27 729.028 -27 c 0,26,27
 556.484 -27 556.484 -27 424.351 20.1802 c 0
 292.219 67.3604 292.219 67.3604 209.719 153.82 c 0
 127.22 240.28 127.22 240.28 86.0754 357.43 c 0
 44.9312 474.581 44.9312 474.581 46.0283 619 c 1,20,21
EndSplineSet
Fore
SplineSet
36 619 m 0,0,1
 36 763 36 763 82 883 c 128,-1,2
 128 1003 128 1003 212 1088.5 c 128,-1,3
 296 1174 296 1174 421 1221.5 c 128,-1,4
 546 1269 546 1269 699 1269 c 0,5,6
 894 1269 894 1269 1030 1201 c 1,7,-1
 1097 1262 l 1,8,-1
 1340 1211 l 1,9,-1
 1194 1065 l 1,10,11
 1318 902 1318 902 1318 613 c 0,12,13
 1318 460 1318 460 1267 337.5 c 128,-1,14
 1216 215 1216 215 1126.5 136 c 128,-1,15
 1037 57 1037 57 917.5 15 c 128,-1,16
 798 -27 798 -27 659 -27 c 0,17,18
 438 -27 438 -27 290 66 c 1,19,-1
 232 1 l 1,20,-1
 -14 64 l 1,21,-1
 133 226 l 1,22,23
 36 383 36 383 36 619 c 0,0,1
847 927 m 1,24,25
 781 1094 781 1094 653 1094 c 0,26,27
 543 1094 543 1094 493.5 985.5 c 128,-1,28
 444 877 444 877 444 671 c 0,29,30
 444 562 444 562 468 453 c 1,31,-1
 847 927 l 1,24,25
878 823 m 1,32,-1
 501 344 l 1,33,34
 573 163 573 163 712 163 c 0,35,36
 904 163 904 163 904 573 c 0,37,38
 904 705 904 705 878 823 c 1,32,-1
EndSplineSet
Substitution2: "Neuton-Regular-'c2sc' Capitals to Small Capitals in Latin lookup 3-1" oslash.sc
Colour: ffffff
EndChar

StartChar: Otilde
Encoding: 148 213 39
Width: 1355
VWidth: 0
Flags: MW
LayerCount: 3
Fore
SplineSet
467 1308 m 1,0,-1
 350 1319 l 1,1,2
 352 1399 352 1399 368.5 1455.5 c 128,-1,3
 385 1512 385 1512 412 1543 c 128,-1,4
 439 1574 439 1574 478 1586.5 c 128,-1,5
 517 1599 517 1599 560 1595.5 c 128,-1,6
 603 1592 603 1592 655 1576 c 2,7,-1
 725 1554 l 2,8,9
 792 1532 792 1532 827 1542.5 c 128,-1,10
 862 1553 862 1553 876 1604 c 1,11,-1
 991 1593 l 1,12,13
 981 1407 981 1407 908.5 1349 c 128,-1,14
 836 1291 836 1291 697 1334 c 2,15,-1
 631 1354 l 1,16,17
 544 1378 544 1378 514.5 1368 c 128,-1,18
 485 1358 485 1358 467 1308 c 1,0,-1
444 671 m 0,19,20
 444 620 444 620 450 562 c 128,-1,21
 456 504 456 504 474 430.5 c 128,-1,22
 492 357 492 357 520.5 299.5 c 128,-1,23
 549 242 549 242 598.5 202.5 c 128,-1,24
 648 163 648 163 712 163 c 0,25,26
 904 163 904 163 904 573 c 0,27,28
 904 626 904 626 899 684.5 c 128,-1,29
 894 743 894 743 878 819 c 128,-1,30
 862 895 862 895 836 953.5 c 128,-1,31
 810 1012 810 1012 762.5 1053 c 128,-1,32
 715 1094 715 1094 653 1094 c 0,33,34
 543 1094 543 1094 493.5 985.5 c 128,-1,35
 444 877 444 877 444 671 c 0,19,20
36 619 m 0,36,37
 36 763 36 763 82 883 c 128,-1,38
 128 1003 128 1003 212 1088.5 c 128,-1,39
 296 1174 296 1174 421 1221.5 c 128,-1,40
 546 1269 546 1269 699 1269 c 0,41,42
 839 1269 839 1269 949 1233 c 128,-1,43
 1059 1197 1059 1197 1143.5 1121 c 128,-1,44
 1228 1045 1228 1045 1273 916.5 c 128,-1,45
 1318 788 1318 788 1318 613 c 0,46,47
 1318 460 1318 460 1267 337.5 c 128,-1,48
 1216 215 1216 215 1126.5 136 c 128,-1,49
 1037 57 1037 57 917.5 15 c 128,-1,50
 798 -27 798 -27 659 -27 c 0,51,52
 501 -27 501 -27 381 20 c 128,-1,53
 261 67 261 67 186 153.5 c 128,-1,54
 111 240 111 240 73.5 357 c 128,-1,55
 36 474 36 474 36 619 c 0,36,37
EndSplineSet
Substitution2: "Neuton-Regular-'c2sc' Capitals to Small Capitals in Latin lookup 3-1" otilde.sc
Colour: ffffff
EndChar

StartChar: P
Encoding: 48 80 40
Width: 1265
VWidth: 0
Flags: MW
LayerCount: 3
Fore
SplineSet
34 0 m 1,0,-1
 56 138 l 1,1,-1
 243 217 l 1,2,-1
 243 1008 l 1,3,-1
 53 1052 l 1,4,-1
 66 1211 l 1,5,6
 250 1241 250 1241 379.5 1254 c 128,-1,7
 509 1267 509 1267 681 1267 c 0,8,9
 811 1267 811 1267 907.5 1246.5 c 128,-1,10
 1004 1226 1004 1226 1078.5 1180 c 128,-1,11
 1153 1134 1153 1134 1191 1053 c 128,-1,12
 1229 972 1229 972 1229 858 c 0,13,14
 1229 674 1229 674 1090.5 548.5 c 128,-1,15
 952 423 952 423 732 423 c 0,16,17
 698 423 698 423 651 428 c 1,18,-1
 619 602 l 1,19,-1
 640 602 l 2,20,21
 748 602 748 602 803.5 656 c 128,-1,22
 859 710 859 710 859 800 c 0,23,24
 859 910 859 910 809 982 c 128,-1,25
 759 1054 759 1054 664 1054 c 0,26,27
 637 1054 637 1054 597 1047 c 1,28,-1
 597 233 l 1,29,-1
 848 164 l 1,30,-1
 824 0 l 1,31,-1
 34 0 l 1,0,-1
EndSplineSet
Substitution2: "Neuton-Regular-'c2sc' Capitals to Small Capitals in Latin lookup 3-1" p.sc
Colour: ffffff
EndChar

StartChar: Q
Encoding: 49 81 41
Width: 1384
VWidth: 0
Flags: MW
LayerCount: 3
Fore
SplineSet
431 681 m 0,0,1
 431 472 431 472 515 342 c 128,-1,2
 599 212 599 212 765 187 c 1,3,4
 865 241 865 241 901 338.5 c 128,-1,5
 937 436 937 436 937 593 c 0,6,7
 937 639 937 639 932 686 c 128,-1,8
 927 733 927 733 915 788.5 c 128,-1,9
 903 844 903 844 880 891 c 128,-1,10
 857 938 857 938 825 978 c 128,-1,11
 793 1018 793 1018 743.5 1041 c 128,-1,12
 694 1064 694 1064 633 1064 c 0,13,14
 431 1064 431 1064 431 681 c 0,0,1
36 609 m 0,15,16
 36 800 36 800 117.5 950 c 128,-1,17
 199 1100 199 1100 348.5 1184.5 c 128,-1,18
 498 1269 498 1269 691 1269 c 0,19,20
 810 1269 810 1269 909 1246.5 c 128,-1,21
 1008 1224 1008 1224 1090 1176 c 128,-1,22
 1172 1128 1172 1128 1228.5 1055 c 128,-1,23
 1285 982 1285 982 1316 878 c 128,-1,24
 1347 774 1347 774 1347 643 c 0,25,26
 1347 488 1347 488 1287 355 c 128,-1,27
 1227 222 1227 222 1134 138 c 128,-1,28
 1041 54 1041 54 929 16 c 1,29,30
 994 -133 994 -133 1274 -200 c 1,31,-1
 1253 -335 l 1,32,33
 1134 -373 1134 -373 1022 -373 c 0,34,35
 942 -373 942 -373 874.5 -353 c 128,-1,36
 807 -333 807 -333 755.5 -292.5 c 128,-1,37
 704 -252 704 -252 678 -183.5 c 128,-1,38
 652 -115 652 -115 660 -26 c 1,39,40
 643 -27 643 -27 621 -27 c 0,41,42
 343 -27 343 -27 189.5 145.5 c 128,-1,43
 36 318 36 318 36 609 c 0,15,16
EndSplineSet
Substitution2: "Neuton-Regular-'c2sc' Capitals to Small Capitals in Latin lookup 3-1" q.sc
Colour: ffffff
EndChar

StartChar: R
Encoding: 50 82 42
Width: 1485
VWidth: 0
Flags: MW
LayerCount: 3
Back
SplineSet
7 1094 m 5,0,-1
 39 1244 l 1,1,-1
 593 1244 l 1,2,-1
 592 1094 l 1,3,-1
 592 1000 l 1,4,-1
 592 240 l 1,5,-1
 787 148 l 1,6,-1
 775 0 l 1,7,-1
 10 0 l 1,8,-1
 26 138 l 1,9,-1
 228 241 l 1,10,-1
 228 993 l 1,11,-1
 7 1094 l 5,0,-1
627 665 m 5,12,13
 653 698 653 698 692 750 c 2,14,-1
 877 1003 l 1,15,-1
 890 1082 l 1,16,-1
 917 1244 l 1,17,-1
 1435 1244 l 1,18,-1
 1405 1094 l 1,19,-1
 1184 1000 l 1,20,-1
 929 670 l 1,21,-1
 1107 460 l 2,22,23
 1214 333 1214 333 1294 261.5 c 0
 1374 190 1374 190 1459 146 c 2,24,-1
 1484 133 l 1,25,-1
 1452 2 l 1,26,27
 1340.2 -21.5566 1340.2 -21.5566 1258.09 -21.5566 c 0,28,29
 1162.95 -21.5566 1162.95 -21.5566 1088.39 10.4289 c 0
 1013.84 42.4144 1013.84 42.4144 935.998 122.537 c 0
 858.16 202.659 858.16 202.659 767 346 c 2,30,-1
 622 574 l 1,31,-1
 627 665 l 5,12,13
EndSplineSet
Fore
SplineSet
613 648 m 1,0,-1
 816 648 l 1,1,2
 885 719 885 719 885 860 c 0,3,4
 885 949 885 949 818.5 1012 c 128,-1,5
 752 1075 752 1075 646 1075 c 0,6,7
 624 1075 624 1075 613 1074 c 1,8,-1
 613 648 l 1,0,-1
34 0 m 1,9,-1
 53 138 l 1,10,-1
 243 217 l 1,11,-1
 243 996 l 1,12,-1
 51 1043 l 1,13,-1
 63 1203 l 1,14,15
 318 1255 318 1255 670 1255 c 0,16,17
 972 1255 972 1255 1119 1175.5 c 128,-1,18
 1266 1096 1266 1096 1266 908 c 0,19,20
 1266 783 1266 783 1200.5 698.5 c 128,-1,21
 1135 614 1135 614 1032 572 c 1,22,-1
 1032 571 l 1,23,-1
 1135 420 l 1,24,25
 1236 276 1236 276 1411 159 c 2,26,-1
 1450 133 l 1,27,-1
 1419 2 l 1,28,29
 1363 -26 1363 -26 1254 -26 c 0,30,31
 1068 -26 1068 -26 960 73.5 c 128,-1,32
 852 173 852 173 790 388 c 1,33,-1
 767 469 l 1,34,-1
 613 469 l 1,35,-1
 613 209 l 1,36,-1
 766 155 l 1,37,-1
 754 0 l 1,38,-1
 34 0 l 1,9,-1
EndSplineSet
Substitution2: "Neuton-Regular-'c2sc' Capitals to Small Capitals in Latin lookup 3-1" r.sc
Colour: ffffff
EndChar

StartChar: S
Encoding: 51 83 43
Width: 1008
VWidth: 0
Flags: MW
LayerCount: 3
Back
SplineSet
34 66 m 5,0,-1
 68 438 l 1,1,-1
 245 409 l 1,2,-1
 287 222 l 1,3,4
 315 191 315 191 374.5 173.5 c 0
 434 156 434 156 498 156 c 0,5,6
 562.792 156 562.792 156 611.749 191.389 c 0
 660.706 226.778 660.706 226.778 660.706 270.8 c 0,7,8
 660.706 305.862 660.706 305.862 633.151 336.193 c 0
 605.596 366.523 605.596 366.523 559.888 390.853 c 0
 514.18 415.184 514.18 415.184 457.999 439.458 c 0
 401.818 463.733 401.818 463.733 341.485 492.71 c 0
 281.151 521.687 281.151 521.687 227.633 554.884 c 0
 174.114 588.081 174.114 588.081 130.444 636.682 c 0
 86.7736 685.283 86.7736 685.283 67 742.781 c 0,9,10
 45.1339 806.363 45.1339 806.363 45.1339 867.288 c 0,11,12
 45.1339 938.022 45.1339 938.022 74.2936 1002.07 c 0
 103.453 1066.12 103.453 1066.12 152.591 1113.33 c 0
 201.728 1160.55 201.728 1160.55 264.429 1195.56 c 0
 327.129 1230.57 327.129 1230.57 396.097 1248.28 c 0
 465.066 1266 465.066 1266 532 1266 c 0,13,14
 621 1266 621 1266 740 1241.5 c 0
 859 1217 859 1217 896 1186 c 1,15,16
 868 824 l 1,17,-1
 695 854 l 1,18,-1
 656 1017 l 1,19,20
 630 1057 630 1057 573 1081.5 c 0
 516 1106 516 1106 460 1106 c 0,21,22
 395 1106 395 1106 360 1075 c 0
 325 1044 325 1044 325 990 c 0,23,24
 325 959 325 959 353 929.5 c 0
 381 900 381 900 426.5 876 c 0
 472 852 472 852 530 823.5 c 0
 588 795 588 795 649 767.5 c 0
 710 740 710 740 768 701.5 c 0
 826 663 826 663 871.5 621 c 0
 917 579 917 579 945 519 c 0
 973 459 973 459 973 391 c 0,25,26
 973 299 973 299 936.5 225 c 0
 900 151 900 151 844.5 106 c 0
 789 61 789 61 719 31 c 0
 649 1 649 1 586 -11 c 0
 523 -23 523 -23 466 -23 c 0,27,28
 306 -23 306 -23 190 2 c 0
 74 27 74 27 34 66 c 5,0,-1
EndSplineSet
Fore
SplineSet
34 66 m 1,0,-1
 68 438 l 1,1,-1
 245 409 l 1,2,-1
 287 222 l 1,3,4
 315 191 315 191 374.5 173.5 c 128,-1,5
 434 156 434 156 498 156 c 0,6,7
 563 156 563 156 612 191.5 c 128,-1,8
 661 227 661 227 661 271 c 0,9,10
 661 309 661 309 627 341.5 c 128,-1,11
 593 374 593 374 538.5 400.5 c 128,-1,12
 484 427 484 427 418.5 455.5 c 128,-1,13
 353 484 353 484 287.5 520 c 128,-1,14
 222 556 222 556 167.5 600 c 128,-1,15
 113 644 113 644 79 710 c 128,-1,16
 45 776 45 776 45 857 c 0,17,18
 45 1041 45 1041 184 1153.5 c 128,-1,19
 323 1266 323 1266 532 1266 c 0,20,21
 621 1266 621 1266 740 1241.5 c 128,-1,22
 859 1217 859 1217 896 1186 c 1,23,-1
 868 824 l 1,24,-1
 695 854 l 1,25,-1
 656 1017 l 1,26,27
 630 1057 630 1057 573 1081.5 c 128,-1,28
 516 1106 516 1106 460 1106 c 0,29,30
 395 1106 395 1106 360 1075 c 128,-1,31
 325 1044 325 1044 325 990 c 0,32,33
 325 962 325 962 347 936 c 128,-1,34
 369 910 369 910 406.5 887.5 c 128,-1,35
 444 865 444 865 493 841.5 c 128,-1,36
 542 818 542 818 595.5 793 c 128,-1,37
 649 768 649 768 702.5 740 c 128,-1,38
 756 712 756 712 805 676.5 c 128,-1,39
 854 641 854 641 891.5 600.5 c 128,-1,40
 929 560 929 560 951 506 c 128,-1,41
 973 452 973 452 973 391 c 0,42,43
 973 299 973 299 936.5 225 c 128,-1,44
 900 151 900 151 844.5 106 c 128,-1,45
 789 61 789 61 718.5 30.5 c 128,-1,46
 648 0 648 0 585.5 -11.5 c 128,-1,47
 523 -23 523 -23 466 -23 c 0,48,49
 306 -23 306 -23 190 2 c 128,-1,50
 74 27 74 27 34 66 c 1,0,-1
EndSplineSet
Substitution2: "Neuton-Regular-'c2sc' Capitals to Small Capitals in Latin lookup 3-1" s.sc
Colour: ffffff
EndChar

StartChar: T
Encoding: 52 84 44
Width: 1297
VWidth: 0
Flags: MW
LayerCount: 3
Back
SplineSet
123 1244 m 5,0,-1
 1234 1244 l 1,1,-1
 1200 906 l 1,2,-1
 1105 921 l 1,3,-1
 1067 1152 l 1,4,-1
 762 1152 l 1,5,-1
 762 114 l 1,6,-1
 947 80 l 1,7,-1
 933 0 l 1,8,-1
 394 0 l 1,9,-1
 401 74 l 1,10,-1
 570 121 l 1,11,-1
 570 1152 l 1,12,-1
 275 1152 l 1,13,-1
 222 909 l 1,14,-1
 131 922 l 1,15,-1
 123 1244 l 5,0,-1
EndSplineSet
Fore
SplineSet
37 1244 m 1,0,-1
 1261 1244 l 1,1,-1
 1229 786 l 1,2,-1
 1046 817 l 1,3,-1
 982 1072 l 1,4,-1
 818 1072 l 1,5,-1
 818 208 l 1,6,-1
 1030 153 l 1,7,-1
 1014 0 l 1,8,-1
 257 0 l 1,9,-1
 270 140 l 1,10,-1
 457 209 l 1,11,-1
 457 1072 l 1,12,-1
 297 1072 l 1,13,-1
 210 776 l 1,14,-1
 40 802 l 1,15,-1
 37 1244 l 1,0,-1
EndSplineSet
Substitution2: "Neuton-Regular-'c2sc' Capitals to Small Capitals in Latin lookup 3-1" t.sc
Colour: ffffff
EndChar

StartChar: Thorn
Encoding: 157 222 45
Width: 1281
VWidth: 0
Flags: MW
LayerCount: 3
Fore
SplineSet
50 1094 m 1,0,-1
 70 1244 l 1,1,-1
 797 1244 l 1,2,-1
 781 1084 l 1,3,-1
 602 1017 l 1,4,-1
 602 982 l 1,5,6
 663 993 663 993 721 993 c 0,7,8
 823 993 823 993 896 985.5 c 128,-1,9
 969 978 969 978 1037 956 c 128,-1,10
 1105 934 1105 934 1146 896 c 128,-1,11
 1187 858 1187 858 1211.5 795 c 128,-1,12
 1236 732 1236 732 1236 645 c 0,13,14
 1236 465 1236 465 1099.5 353.5 c 128,-1,15
 963 242 963 242 739 242 c 0,16,17
 705 242 705 242 658 247 c 1,18,-1
 626 421 l 1,19,20
 749 421 749 421 807.5 461 c 128,-1,21
 866 501 866 501 866 597 c 0,22,23
 866 690 866 690 817 740 c 128,-1,24
 768 790 768 790 671 790 c 0,25,26
 644 790 644 790 604 783 c 1,27,-1
 604 222 l 1,28,-1
 782 160 l 1,29,-1
 769 0 l 1,30,-1
 52 0 l 1,31,-1
 62 142 l 1,32,-1
 238 221 l 1,33,-1
 238 1020 l 1,34,-1
 50 1094 l 1,0,-1
EndSplineSet
Substitution2: "Neuton-Regular-'c2sc' Capitals to Small Capitals in Latin lookup 3-1" thorn.sc
Colour: ffffff
EndChar

StartChar: U
Encoding: 53 85 46
Width: 1563
VWidth: 0
Flags: MW
LayerCount: 3
Fore
SplineSet
34 1094 m 1,0,-1
 63 1244 l 1,1,-1
 783 1244 l 1,2,-1
 761 1094 l 1,3,-1
 596 1027 l 1,4,-1
 596 501 l 2,5,6
 596 342 596 342 667 267.5 c 128,-1,7
 738 193 738 193 862 193 c 0,8,9
 973 193 973 193 1036 265.5 c 128,-1,10
 1099 338 1099 338 1099 487 c 2,11,-1
 1099 1020 l 1,12,-1
 923 1094 l 1,13,-1
 943 1244 l 1,14,-1
 1528 1244 l 1,15,-1
 1511 1094 l 1,16,-1
 1346 1027 l 1,17,-1
 1342 555 l 1,18,19
 1336 -27 1336 -27 791 -27 c 0,20,21
 732 -27 732 -27 688 -24.5 c 128,-1,22
 644 -22 644 -22 581.5 -11 c 128,-1,23
 519 -0 519 -0 473 19.5 c 128,-1,24
 427 39 427 39 377.5 76 c 128,-1,25
 328 113 328 113 296.5 165 c 128,-1,26
 265 217 265 217 244.5 296 c 128,-1,27
 224 375 224 375 224 474 c 2,28,-1
 224 1020 l 1,29,-1
 34 1094 l 1,0,-1
EndSplineSet
Substitution2: "Neuton-Regular-'c2sc' Capitals to Small Capitals in Latin lookup 3-1" u.sc
Colour: ffffff
EndChar

StartChar: Uacute
Encoding: 153 218 47
Width: 1563
VWidth: 0
Flags: MW
LayerCount: 3
Fore
SplineSet
665 1336 m 1,0,-1
 810 1641 l 1,1,-1
 1160 1631 l 1,2,-1
 899 1310 l 1,3,-1
 665 1336 l 1,0,-1
34 1094 m 1,4,-1
 63 1244 l 1,5,-1
 783 1244 l 1,6,-1
 761 1094 l 1,7,-1
 596 1027 l 1,8,-1
 596 501 l 2,9,10
 596 342 596 342 667 267.5 c 128,-1,11
 738 193 738 193 862 193 c 0,12,13
 973 193 973 193 1036 265.5 c 128,-1,14
 1099 338 1099 338 1099 487 c 2,15,-1
 1099 1020 l 1,16,-1
 923 1094 l 1,17,-1
 943 1244 l 1,18,-1
 1528 1244 l 1,19,-1
 1511 1094 l 1,20,-1
 1346 1027 l 1,21,-1
 1342 555 l 1,22,23
 1336 -27 1336 -27 791 -27 c 0,24,25
 732 -27 732 -27 688 -24.5 c 128,-1,26
 644 -22 644 -22 581.5 -11 c 128,-1,27
 519 -0 519 -0 473 19.5 c 128,-1,28
 427 39 427 39 377.5 76 c 128,-1,29
 328 113 328 113 296.5 165 c 128,-1,30
 265 217 265 217 244.5 296 c 128,-1,31
 224 375 224 375 224 474 c 2,32,-1
 224 1020 l 1,33,-1
 34 1094 l 1,4,-1
EndSplineSet
Substitution2: "Neuton-Regular-'c2sc' Capitals to Small Capitals in Latin lookup 3-1" uacute.sc
Colour: ffffff
EndChar

StartChar: Ucircumflex
Encoding: 154 219 48
Width: 1563
VWidth: 0
Flags: MW
LayerCount: 3
Fore
SplineSet
536 1321 m 1,0,-1
 689 1576 l 1,1,-1
 1014 1576 l 1,2,-1
 1168 1321 l 1,3,-1
 915 1312 l 1,4,-1
 851 1433 l 1,5,-1
 837 1433 l 1,6,-1
 769 1311 l 1,7,-1
 536 1321 l 1,0,-1
34 1094 m 1,8,-1
 63 1244 l 1,9,-1
 783 1244 l 1,10,-1
 761 1094 l 1,11,-1
 596 1027 l 1,12,-1
 596 501 l 2,13,14
 596 342 596 342 667 267.5 c 128,-1,15
 738 193 738 193 862 193 c 0,16,17
 973 193 973 193 1036 265.5 c 128,-1,18
 1099 338 1099 338 1099 487 c 2,19,-1
 1099 1020 l 1,20,-1
 923 1094 l 1,21,-1
 943 1244 l 1,22,-1
 1528 1244 l 1,23,-1
 1511 1094 l 1,24,-1
 1346 1027 l 1,25,-1
 1342 555 l 1,26,27
 1336 -27 1336 -27 791 -27 c 0,28,29
 732 -27 732 -27 688 -24.5 c 128,-1,30
 644 -22 644 -22 581.5 -11 c 128,-1,31
 519 -0 519 -0 473 19.5 c 128,-1,32
 427 39 427 39 377.5 76 c 128,-1,33
 328 113 328 113 296.5 165 c 128,-1,34
 265 217 265 217 244.5 296 c 128,-1,35
 224 375 224 375 224 474 c 2,36,-1
 224 1020 l 1,37,-1
 34 1094 l 1,8,-1
EndSplineSet
Substitution2: "Neuton-Regular-'c2sc' Capitals to Small Capitals in Latin lookup 3-1" ucircumflex.sc
Colour: ffffff
EndChar

StartChar: Udieresis
Encoding: 155 220 49
Width: 1563
VWidth: 0
Flags: MW
LayerCount: 3
Fore
SplineSet
872 1418 m 0,0,1
 872 1437 872 1437 878.5 1454.5 c 128,-1,2
 885 1472 885 1472 900 1488.5 c 128,-1,3
 915 1505 915 1505 943 1515 c 128,-1,4
 971 1525 971 1525 1010 1525 c 0,5,6
 1051 1525 1051 1525 1080 1515 c 128,-1,7
 1109 1505 1109 1505 1124.5 1489 c 128,-1,8
 1140 1473 1140 1473 1146.5 1456 c 128,-1,9
 1153 1439 1153 1439 1153 1420 c 0,10,11
 1153 1311 1153 1311 1009 1311 c 0,12,13
 872 1311 872 1311 872 1418 c 0,0,1
563 1418 m 0,14,15
 563 1437 563 1437 569.5 1454.5 c 128,-1,16
 576 1472 576 1472 591 1488.5 c 128,-1,17
 606 1505 606 1505 634 1515 c 128,-1,18
 662 1525 662 1525 701 1525 c 0,19,20
 742 1525 742 1525 771 1515 c 128,-1,21
 800 1505 800 1505 815.5 1489 c 128,-1,22
 831 1473 831 1473 837.5 1456 c 128,-1,23
 844 1439 844 1439 844 1420 c 0,24,25
 844 1311 844 1311 700 1311 c 0,26,27
 563 1311 563 1311 563 1418 c 0,14,15
34 1094 m 1,28,-1
 63 1244 l 1,29,-1
 783 1244 l 1,30,-1
 761 1094 l 1,31,-1
 596 1027 l 1,32,-1
 596 501 l 2,33,34
 596 342 596 342 667 267.5 c 128,-1,35
 738 193 738 193 862 193 c 0,36,37
 973 193 973 193 1036 265.5 c 128,-1,38
 1099 338 1099 338 1099 487 c 2,39,-1
 1099 1020 l 1,40,-1
 923 1094 l 1,41,-1
 943 1244 l 1,42,-1
 1528 1244 l 1,43,-1
 1511 1094 l 1,44,-1
 1346 1027 l 1,45,-1
 1342 555 l 1,46,47
 1336 -27 1336 -27 791 -27 c 0,48,49
 732 -27 732 -27 688 -24.5 c 128,-1,50
 644 -22 644 -22 581.5 -11 c 128,-1,51
 519 -0 519 -0 473 19.5 c 128,-1,52
 427 39 427 39 377.5 76 c 128,-1,53
 328 113 328 113 296.5 165 c 128,-1,54
 265 217 265 217 244.5 296 c 128,-1,55
 224 375 224 375 224 474 c 2,56,-1
 224 1020 l 1,57,-1
 34 1094 l 1,28,-1
EndSplineSet
Substitution2: "Neuton-Regular-'c2sc' Capitals to Small Capitals in Latin lookup 3-1" udieresis.sc
Colour: ffffff
EndChar

StartChar: Ugrave
Encoding: 152 217 50
Width: 1563
VWidth: 0
Flags: MW
LayerCount: 3
Fore
SplineSet
998 1337 m 1,0,-1
 764 1311 l 1,1,-1
 503 1632 l 1,2,-1
 853 1642 l 1,3,-1
 998 1337 l 1,0,-1
34 1094 m 1,4,-1
 63 1244 l 1,5,-1
 783 1244 l 1,6,-1
 761 1094 l 1,7,-1
 596 1027 l 1,8,-1
 596 501 l 2,9,10
 596 342 596 342 667 267.5 c 128,-1,11
 738 193 738 193 862 193 c 0,12,13
 973 193 973 193 1036 265.5 c 128,-1,14
 1099 338 1099 338 1099 487 c 2,15,-1
 1099 1020 l 1,16,-1
 923 1094 l 1,17,-1
 943 1244 l 1,18,-1
 1528 1244 l 1,19,-1
 1511 1094 l 1,20,-1
 1346 1027 l 1,21,-1
 1342 555 l 1,22,23
 1336 -27 1336 -27 791 -27 c 0,24,25
 732 -27 732 -27 688 -24.5 c 128,-1,26
 644 -22 644 -22 581.5 -11 c 128,-1,27
 519 -0 519 -0 473 19.5 c 128,-1,28
 427 39 427 39 377.5 76 c 128,-1,29
 328 113 328 113 296.5 165 c 128,-1,30
 265 217 265 217 244.5 296 c 128,-1,31
 224 375 224 375 224 474 c 2,32,-1
 224 1020 l 1,33,-1
 34 1094 l 1,4,-1
EndSplineSet
Substitution2: "Neuton-Regular-'c2sc' Capitals to Small Capitals in Latin lookup 3-1" ugrave.sc
Colour: ffffff
EndChar

StartChar: V
Encoding: 54 86 51
Width: 1539
VWidth: 0
Flags: MW
LayerCount: 3
Fore
SplineSet
34 1087 m 1,0,-1
 54 1244 l 1,1,-1
 790 1244 l 1,2,-1
 767 1087 l 1,3,-1
 615 1027 l 1,4,-1
 850 391 l 1,5,-1
 1078 1025 l 1,6,-1
 924 1087 l 1,7,-1
 939 1244 l 1,8,-1
 1504 1244 l 1,9,-1
 1489 1087 l 1,10,-1
 1355 1027 l 1,11,-1
 931 25 l 1,12,-1
 578 -33 l 1,13,-1
 179 1025 l 1,14,-1
 34 1087 l 1,0,-1
EndSplineSet
Substitution2: "Neuton-Regular-'c2sc' Capitals to Small Capitals in Latin lookup 3-1" v.sc
Colour: ffffff
EndChar

StartChar: W
Encoding: 55 87 52
Width: 2106
VWidth: 0
Flags: MW
LayerCount: 3
Fore
SplineSet
34 1089 m 1,0,-1
 45 1244 l 1,1,-1
 800 1244 l 1,2,-1
 764 1081 l 1,3,-1
 611 1027 l 1,4,-1
 765 486 l 1,5,-1
 940 1200 l 1,6,-1
 1279 1240 l 1,7,-1
 1485 502 l 1,8,-1
 1638 1030 l 1,9,-1
 1471 1084 l 1,10,-1
 1492 1244 l 1,11,-1
 2071 1244 l 1,12,-1
 2046 1087 l 1,13,-1
 1914 1033 l 1,14,-1
 1579 28 l 1,15,-1
 1246 -33 l 1,16,-1
 1039 721 l 1,17,-1
 861 28 l 1,18,-1
 515 -34 l 1,19,-1
 210 1023 l 1,20,-1
 34 1089 l 1,0,-1
EndSplineSet
Substitution2: "Neuton-Regular-'c2sc' Capitals to Small Capitals in Latin lookup 3-1" w.sc
Colour: ffffff
EndChar

StartChar: X
Encoding: 56 88 53
Width: 1413
VWidth: 0
Flags: MW
LayerCount: 3
Back
SplineSet
1313 235 m 13,0,-1
 720 1000 l 1,1,-1
 781 1076 l 1,2,-1
 804 1244 l 1,3,-1
 210 1244 l 1,4,-1
 182 1076 l 1,5,-1
 321 1002 l 1,6,-1
 905 241 l 1,7,-1
 825 166 l 1,8,-1
 796 0 l 1,9,-1
 1420 0 l 1,10,-1
 1446 169 l 1,11,-1
 1313 235 l 13,0,-1
306 233 m 13,12,-1
 1009 1014 l 1,13,-1
 975 1084 l 1,14,-1
 1002 1244 l 1,15,-1
 1440 1244 l 1,16,-1
 1416 1087 l 1,17,-1
 1286 1015 l 1,18,-1
 600 232 l 1,19,-1
 653 167 l 1,20,-1
 622 0 l 1,21,-1
 152 0 l 1,22,-1
 177 157 l 1,23,-1
 306 233 l 13,12,-1
EndSplineSet
Fore
SplineSet
34 0 m 1,0,-1
 59 157 l 1,1,-1
 188 233 l 1,2,-1
 514 591 l 1,3,-1
 173 1012 l 1,4,-1
 47 1066 l 1,5,-1
 75 1244 l 1,6,-1
 720 1244 l 1,7,-1
 693 1076 l 1,8,-1
 602 1010 l 1,9,-1
 782 790 l 1,10,-1
 921 1014 l 1,11,-1
 807 1084 l 1,12,-1
 834 1244 l 1,13,-1
 1342 1244 l 1,14,-1
 1318 1087 l 1,15,-1
 1188 1015 l 1,16,-1
 903 645 l 1,17,-1
 1275 225 l 1,18,-1
 1378 179 l 1,19,-1
 1352 0 l 1,20,-1
 708 0 l 1,21,-1
 737 166 l 1,22,-1
 827 231 l 1,23,-1
 653 436 l 1,24,-1
 482 232 l 1,25,-1
 625 167 l 1,26,-1
 594 0 l 1,27,-1
 34 0 l 1,0,-1
EndSplineSet
Substitution2: "Neuton-Regular-'c2sc' Capitals to Small Capitals in Latin lookup 3-1" x.sc
Colour: ffffff
EndChar

StartChar: Y
Encoding: 57 89 54
Width: 1357
VWidth: 0
Flags: MW
LayerCount: 3
Fore
SplineSet
34 1089 m 1,0,-1
 66 1245 l 1,1,-1
 727 1245 l 1,2,-1
 699 1089 l 1,3,-1
 624 1028 l 1,4,-1
 773 739 l 1,5,-1
 924 1025 l 1,6,-1
 825 1087 l 1,7,-1
 849 1244 l 1,8,-1
 1322 1244 l 1,9,-1
 1298 1087 l 1,10,-1
 1184 1027 l 1,11,-1
 868 498 l 1,12,-1
 868 221 l 1,13,-1
 1035 140 l 1,14,-1
 1022 0 l 1,15,-1
 320 0 l 1,16,-1
 338 138 l 1,17,-1
 497 217 l 1,18,-1
 497 485 l 1,19,-1
 168 1027 l 1,20,-1
 34 1089 l 1,0,-1
EndSplineSet
Substitution2: "Neuton-Regular-'c2sc' Capitals to Small Capitals in Latin lookup 3-1" y.sc
Colour: ffffff
EndChar

StartChar: Yacute
Encoding: 156 221 55
Width: 1357
VWidth: 0
Flags: MW
LayerCount: 3
Fore
SplineSet
621 1336 m 1,0,-1
 766 1641 l 1,1,-1
 1116 1631 l 1,2,-1
 855 1310 l 1,3,-1
 621 1336 l 1,0,-1
34 1089 m 1,4,-1
 66 1245 l 1,5,-1
 727 1245 l 1,6,-1
 699 1089 l 1,7,-1
 624 1028 l 1,8,-1
 773 739 l 1,9,-1
 924 1025 l 1,10,-1
 825 1087 l 1,11,-1
 849 1244 l 1,12,-1
 1322 1244 l 1,13,-1
 1298 1087 l 1,14,-1
 1184 1027 l 1,15,-1
 868 498 l 1,16,-1
 868 221 l 1,17,-1
 1035 140 l 1,18,-1
 1022 0 l 1,19,-1
 320 0 l 1,20,-1
 338 138 l 1,21,-1
 497 217 l 1,22,-1
 497 485 l 1,23,-1
 168 1027 l 1,24,-1
 34 1089 l 1,4,-1
EndSplineSet
Substitution2: "Neuton-Regular-'c2sc' Capitals to Small Capitals in Latin lookup 3-1" yacute.sc
Colour: ffffff
EndChar

StartChar: Z
Encoding: 58 90 56
Width: 1142
VWidth: 0
Flags: MW
LayerCount: 3
Fore
SplineSet
34 236 m 1,0,-1
 665 1069 l 1,1,-1
 325 1069 l 1,2,-1
 262 812 l 1,3,-1
 62 844 l 1,4,-1
 73 1244 l 1,5,-1
 1104 1244 l 1,6,-1
 1096 1089 l 1,7,-1
 411 206 l 1,8,-1
 769 176 l 1,9,-1
 956 457 l 1,10,-1
 1106 434 l 1,11,-1
 1045 0 l 1,12,-1
 47 0 l 1,13,-1
 34 236 l 1,0,-1
EndSplineSet
Substitution2: "Neuton-Regular-'c2sc' Capitals to Small Capitals in Latin lookup 3-1" z.sc
Colour: ffffff
EndChar

StartChar: a
Encoding: 65 97 57
Width: 907
VWidth: 0
Flags: MW
LayerCount: 3
Back
SplineSet
105 438.787 m 4,0,1
 168.108 491.199 168.108 491.199 264.804 517.078 c 0
 361.5 542.957 361.5 542.957 478 539 c 1,2,-1
 478 637 l 2,3,4
 478 669 478 669 456.5 692 c 0
 435 715 435 715 403 715 c 0,5,6
 362 715 362 715 317.5 667.5 c 0
 273 620 273 620 247 556 c 1,7,8
 160.021 564.543 160.021 564.543 110.244 609.514 c 0
 60.4678 654.485 60.4678 654.485 60.4678 713.104 c 0,9,10
 60.4678 761.916 60.4678 761.916 84.5616 800.924 c 0
 108.655 839.932 108.655 839.932 148.487 865.032 c 0
 188.319 890.133 188.319 890.133 242.991 906.838 c 0
 297.662 923.542 297.662 923.542 355.425 930.529 c 0
 413.188 937.516 413.188 937.516 476.536 937.516 c 0,11,12
 547.064 937.516 547.064 937.516 600.984 922.968 c 0
 654.904 908.42 654.904 908.42 697.84 875.459 c 0
 740.775 842.498 740.775 842.498 763.388 783.468 c 0
 786 724.437 786 724.437 786 641 c 2,13,-1
 786 374 l 2,14,15
 786 288 786 288 807 251.5 c 0
 828 215 828 215 874 200 c 1,16,-1
 902 192 l 1,17,-1
 877 34 l 1,18,19
 785 -24 785 -24 700.999 -24 c 0,20,21
 618 -24 618 -24 569.5 15 c 0
 521 54 521 54 516 126 c 2,22,-1
 515 139 l 1,23,-1
 501 139 l 1,24,25
 489.72 79.1338 489.72 79.1338 417.481 29.0386 c 0
 345.243 -21.0566 345.243 -21.0566 258.011 -21.0566 c 0,26,27
 145.116 -21.0566 145.116 -21.0566 78.5863 48.8259 c 0
 12.0566 118.708 12.0566 118.708 12.0566 220.458 c 0,28,29
 12.0566 280.422 12.0566 280.422 35.9544 340.857 c 0
 59.8522 401.291 59.8522 401.291 105 438.787 c 4,0,1
396 225 m 4,30,31
 437 225 437 225 478 254 c 1,32,-1
 478 383 l 1,33,34
 474.026 382.433 474.026 382.433 465.906 381.304 c 0
 438.196 377.453 438.196 377.453 423.436 374.909 c 0
 408.676 372.365 408.676 372.365 384.934 365.437 c 0
 361.192 358.51 361.192 358.51 348.85 349.792 c 0
 336.508 341.075 336.508 341.075 326.658 325.567 c 0
 316.807 310.059 316.807 310.059 316.807 289.664 c 0,35,36
 316.807 259.935 316.807 259.935 337.175 242.467 c 0
 357.542 225 357.542 225 396 225 c 4,30,31
EndSplineSet
Fore
SplineSet
396 225 m 0,0,1
 437 225 437 225 478 254 c 1,2,-1
 478 413 l 1,3,4
 458 413 458 413 432 406.5 c 128,-1,5
 406 400 406 400 379.5 388 c 128,-1,6
 353 376 353 376 335 354 c 128,-1,7
 317 332 317 332 317 306 c 0,8,9
 317 225 317 225 396 225 c 0,0,1
478 539 m 1,10,-1
 478 637 l 2,11,12
 478 669 478 669 456.5 692 c 128,-1,13
 435 715 435 715 403 715 c 0,14,15
 362 715 362 715 317.5 667.5 c 128,-1,16
 273 620 273 620 247 556 c 1,17,18
 160 565 160 565 110 609.5 c 128,-1,19
 60 654 60 654 60 713 c 0,20,21
 60 774 60 774 91.5 819 c 128,-1,22
 123 864 123 864 178.5 889 c 128,-1,23
 234 914 234 914 300.5 926 c 128,-1,24
 367 938 367 938 447 938 c 0,25,26
 503 938 503 938 551 929 c 128,-1,27
 599 920 599 920 643 898.5 c 128,-1,28
 687 877 687 877 718 844 c 128,-1,29
 749 811 749 811 767.5 759.5 c 128,-1,30
 786 708 786 708 786 641 c 2,31,-1
 786 374 l 2,32,33
 786 288 786 288 807 251.5 c 128,-1,34
 828 215 828 215 874 200 c 1,35,-1
 902 192 l 1,36,-1
 877 34 l 1,37,38
 785 -24 785 -24 701 -24 c 0,39,40
 618 -24 618 -24 569.5 15 c 128,-1,41
 521 54 521 54 516 126 c 2,42,-1
 515 139 l 1,43,-1
 501 139 l 1,44,45
 490 79 490 79 417.5 29 c 128,-1,46
 345 -21 345 -21 258 -21 c 0,47,48
 145 -21 145 -21 78.5 49 c 128,-1,49
 12 119 12 119 12 220 c 0,50,51
 12 305 12 305 49.5 369.5 c 128,-1,52
 87 434 87 434 152.5 471 c 128,-1,53
 218 508 218 508 300 525 c 128,-1,54
 382 542 382 542 478 539 c 1,10,-1
EndSplineSet
Substitution2: "Neuton-Regular-'smcp' Lowercase to Small Capitals in Latin lookup 0 subtable" a.sc
Colour: ffffff
EndChar

StartChar: aacute
Encoding: 160 225 58
Width: 907
VWidth: 0
Flags: MW
LayerCount: 3
Fore
SplineSet
304 1003 m 1,0,-1
 449 1308 l 1,1,-1
 799 1298 l 1,2,-1
 538 977 l 1,3,-1
 304 1003 l 1,0,-1
396 225 m 0,4,5
 437 225 437 225 478 254 c 1,6,-1
 478 413 l 1,7,8
 458 413 458 413 432 406.5 c 128,-1,9
 406 400 406 400 379.5 388 c 128,-1,10
 353 376 353 376 335 354 c 128,-1,11
 317 332 317 332 317 306 c 0,12,13
 317 225 317 225 396 225 c 0,4,5
478 539 m 1,14,-1
 478 637 l 2,15,16
 478 669 478 669 456.5 692 c 128,-1,17
 435 715 435 715 403 715 c 0,18,19
 362 715 362 715 317.5 667.5 c 128,-1,20
 273 620 273 620 247 556 c 1,21,22
 160 565 160 565 110 609.5 c 128,-1,23
 60 654 60 654 60 713 c 0,24,25
 60 774 60 774 91.5 819 c 128,-1,26
 123 864 123 864 178.5 889 c 128,-1,27
 234 914 234 914 300.5 926 c 128,-1,28
 367 938 367 938 447 938 c 0,29,30
 503 938 503 938 551 929 c 128,-1,31
 599 920 599 920 643 898.5 c 128,-1,32
 687 877 687 877 718 844 c 128,-1,33
 749 811 749 811 767.5 759.5 c 128,-1,34
 786 708 786 708 786 641 c 2,35,-1
 786 374 l 2,36,37
 786 288 786 288 807 251.5 c 128,-1,38
 828 215 828 215 874 200 c 1,39,-1
 902 192 l 1,40,-1
 877 34 l 1,41,42
 785 -24 785 -24 701 -24 c 0,43,44
 618 -24 618 -24 569.5 15 c 128,-1,45
 521 54 521 54 516 126 c 2,46,-1
 515 139 l 1,47,-1
 501 139 l 1,48,49
 490 79 490 79 417.5 29 c 128,-1,50
 345 -21 345 -21 258 -21 c 0,51,52
 145 -21 145 -21 78.5 49 c 128,-1,53
 12 119 12 119 12 220 c 0,54,55
 12 305 12 305 49.5 369.5 c 128,-1,56
 87 434 87 434 152.5 471 c 128,-1,57
 218 508 218 508 300 525 c 128,-1,58
 382 542 382 542 478 539 c 1,14,-1
EndSplineSet
Substitution2: "Neuton-Regular-'smcp' Lowercase to Small Capitals in Latin lookup 0 subtable" aacute.sc
Colour: ffffff
EndChar

StartChar: acircumflex
Encoding: 161 226 59
Width: 907
VWidth: 0
Flags: MW
LayerCount: 3
Fore
SplineSet
166 1017 m 1,0,-1
 319 1272 l 1,1,-1
 644 1272 l 1,2,-1
 798 1017 l 1,3,-1
 545 1008 l 1,4,-1
 481 1129 l 1,5,-1
 467 1129 l 1,6,-1
 399 1007 l 1,7,-1
 166 1017 l 1,0,-1
396 225 m 0,8,9
 437 225 437 225 478 254 c 1,10,-1
 478 413 l 1,11,12
 458 413 458 413 432 406.5 c 128,-1,13
 406 400 406 400 379.5 388 c 128,-1,14
 353 376 353 376 335 354 c 128,-1,15
 317 332 317 332 317 306 c 0,16,17
 317 225 317 225 396 225 c 0,8,9
478 539 m 1,18,-1
 478 637 l 2,19,20
 478 669 478 669 456.5 692 c 128,-1,21
 435 715 435 715 403 715 c 0,22,23
 362 715 362 715 317.5 667.5 c 128,-1,24
 273 620 273 620 247 556 c 1,25,26
 160 565 160 565 110 609.5 c 128,-1,27
 60 654 60 654 60 713 c 0,28,29
 60 774 60 774 91.5 819 c 128,-1,30
 123 864 123 864 178.5 889 c 128,-1,31
 234 914 234 914 300.5 926 c 128,-1,32
 367 938 367 938 447 938 c 0,33,34
 503 938 503 938 551 929 c 128,-1,35
 599 920 599 920 643 898.5 c 128,-1,36
 687 877 687 877 718 844 c 128,-1,37
 749 811 749 811 767.5 759.5 c 128,-1,38
 786 708 786 708 786 641 c 2,39,-1
 786 374 l 2,40,41
 786 288 786 288 807 251.5 c 128,-1,42
 828 215 828 215 874 200 c 1,43,-1
 902 192 l 1,44,-1
 877 34 l 1,45,46
 785 -24 785 -24 701 -24 c 0,47,48
 618 -24 618 -24 569.5 15 c 128,-1,49
 521 54 521 54 516 126 c 2,50,-1
 515 139 l 1,51,-1
 501 139 l 1,52,53
 490 79 490 79 417.5 29 c 128,-1,54
 345 -21 345 -21 258 -21 c 0,55,56
 145 -21 145 -21 78.5 49 c 128,-1,57
 12 119 12 119 12 220 c 0,58,59
 12 305 12 305 49.5 369.5 c 128,-1,60
 87 434 87 434 152.5 471 c 128,-1,61
 218 508 218 508 300 525 c 128,-1,62
 382 542 382 542 478 539 c 1,18,-1
EndSplineSet
Substitution2: "Neuton-Regular-'smcp' Lowercase to Small Capitals in Latin lookup 0 subtable" acircumflex.sc
Colour: ffffff
EndChar

StartChar: acute
Encoding: 115 180 60
Width: 584
VWidth: 0
Flags: MW
LayerCount: 3
Fore
SplineSet
45 1333 m 1,0,-1
 190 1638 l 1,1,-1
 540 1628 l 1,2,-1
 279 1307 l 1,3,-1
 45 1333 l 1,0,-1
EndSplineSet
Colour: ffffff
EndChar

StartChar: adieresis
Encoding: 163 228 61
Width: 907
VWidth: 0
Flags: MW
LayerCount: 3
Fore
SplineSet
466 1124 m 0,0,1
 466 1143 466 1143 472.5 1160.5 c 128,-1,2
 479 1178 479 1178 494 1194.5 c 128,-1,3
 509 1211 509 1211 537 1221 c 128,-1,4
 565 1231 565 1231 604 1231 c 0,5,6
 645 1231 645 1231 674 1221 c 128,-1,7
 703 1211 703 1211 718.5 1195 c 128,-1,8
 734 1179 734 1179 740.5 1162 c 128,-1,9
 747 1145 747 1145 747 1126 c 0,10,11
 747 1017 747 1017 603 1017 c 0,12,13
 466 1017 466 1017 466 1124 c 0,0,1
157 1124 m 0,14,15
 157 1143 157 1143 163.5 1160.5 c 128,-1,16
 170 1178 170 1178 185 1194.5 c 128,-1,17
 200 1211 200 1211 228 1221 c 128,-1,18
 256 1231 256 1231 295 1231 c 0,19,20
 336 1231 336 1231 365 1221 c 128,-1,21
 394 1211 394 1211 409.5 1195 c 128,-1,22
 425 1179 425 1179 431.5 1162 c 128,-1,23
 438 1145 438 1145 438 1126 c 0,24,25
 438 1017 438 1017 294 1017 c 0,26,27
 157 1017 157 1017 157 1124 c 0,14,15
396 225 m 0,28,29
 437 225 437 225 478 254 c 1,30,-1
 478 413 l 1,31,32
 458 413 458 413 432 406.5 c 128,-1,33
 406 400 406 400 379.5 388 c 128,-1,34
 353 376 353 376 335 354 c 128,-1,35
 317 332 317 332 317 306 c 0,36,37
 317 225 317 225 396 225 c 0,28,29
478 539 m 1,38,-1
 478 637 l 2,39,40
 478 669 478 669 456.5 692 c 128,-1,41
 435 715 435 715 403 715 c 0,42,43
 362 715 362 715 317.5 667.5 c 128,-1,44
 273 620 273 620 247 556 c 1,45,46
 160 565 160 565 110 609.5 c 128,-1,47
 60 654 60 654 60 713 c 0,48,49
 60 774 60 774 91.5 819 c 128,-1,50
 123 864 123 864 178.5 889 c 128,-1,51
 234 914 234 914 300.5 926 c 128,-1,52
 367 938 367 938 447 938 c 0,53,54
 503 938 503 938 551 929 c 128,-1,55
 599 920 599 920 643 898.5 c 128,-1,56
 687 877 687 877 718 844 c 128,-1,57
 749 811 749 811 767.5 759.5 c 128,-1,58
 786 708 786 708 786 641 c 2,59,-1
 786 374 l 2,60,61
 786 288 786 288 807 251.5 c 128,-1,62
 828 215 828 215 874 200 c 1,63,-1
 902 192 l 1,64,-1
 877 34 l 1,65,66
 785 -24 785 -24 701 -24 c 0,67,68
 618 -24 618 -24 569.5 15 c 128,-1,69
 521 54 521 54 516 126 c 2,70,-1
 515 139 l 1,71,-1
 501 139 l 1,72,73
 490 79 490 79 417.5 29 c 128,-1,74
 345 -21 345 -21 258 -21 c 0,75,76
 145 -21 145 -21 78.5 49 c 128,-1,77
 12 119 12 119 12 220 c 0,78,79
 12 305 12 305 49.5 369.5 c 128,-1,80
 87 434 87 434 152.5 471 c 128,-1,81
 218 508 218 508 300 525 c 128,-1,82
 382 542 382 542 478 539 c 1,38,-1
EndSplineSet
Substitution2: "Neuton-Regular-'smcp' Lowercase to Small Capitals in Latin lookup 0 subtable" adieresis.sc
Colour: ffffff
EndChar

StartChar: ae
Encoding: 165 230 62
Width: 1394
VWidth: 0
Flags: MW
LayerCount: 3
Back
SplineSet
51 188 m 0,0,1
 51 328 51 328 173 420.5 c 0
 295 513 295 513 509 512 c 1,2,-1
 509 607 l 2,3,4
 509 671 509 671 472.5 708.5 c 0
 436 746 436 746 394 746 c 0,5,6
 352 746 352 746 330 707 c 0
 308 668 308 668 290 568 c 1,7,8
 215 556 215 556 150 594 c 0
 85 632 85 632 85 713 c 0,9,10
 85 775 85 775 168 831.5 c 0
 251 888 251 888 353.5 918 c 0
 456 948 456 948 532 948 c 0,11,12
 687 948 687 948 752 882 c 1,13,14
 865 950 865 950 989 950 c 0,15,16
 1149 950 1149 950 1237 847.5 c 0
 1325 745 1325 745 1325 580 c 0,17,18
 1325 558 1325 558 1317 492.5 c 0
 1309 427 1309 427 1304 401 c 1,19,-1
 826 397 l 1,20,21
 832 300 832 300 898.5 249.5 c 0
 965 199 965 199 1076 199 c 0,22,23
 1227 199 1227 199 1324 255 c 1,24,-1
 1343 122 l 1,25,26
 1300 65 1300 65 1222 29 c 0
 1144 -7 1144 -7 1072 -19 c 0
 1000 -31 1000 -31 926 -31 c 0,27,28
 792 -31 792 -31 711 14.5 c 0
 630 60 630 60 574 141 c 1,29,30
 487 -23 487 -23 252 -23 c 0,31,32
 168 -23 168 -23 109.5 31 c 0
 51 85 51 85 51 188 c 0,0,1
347 279 m 0,33,34
 347 248 347 248 368.5 227 c 0
 390 206 390 206 427 206 c 0,35,36
 470 206 470 206 509 234 c 1,37,-1
 509 398 l 1,38,39
 425 388 425 388 386 353 c 0
 347 318 347 318 347 279 c 0,33,34
823 516 m 1,40,-1
 993 531 l 1,41,42
 999 549 999 549 999 605 c 0,43,44
 999 662 999 662 979 702.5 c 0
 959 743 959 743 916 743 c 0,45,46
 820 743 820 743 823 516 c 1,40,-1
EndSplineSet
Fore
SplineSet
819 498 m 1,0,-1
 975 521 l 1,1,2
 981 537 981 537 981 587 c 0,3,4
 981 640 981 640 961 677.5 c 128,-1,5
 941 715 941 715 898 715 c 0,6,7
 858 715 858 715 838 654 c 128,-1,8
 818 593 818 593 819 498 c 1,0,-1
517 539 m 1,9,-1
 517 637 l 2,10,11
 517 669 517 669 495.5 692 c 128,-1,12
 474 715 474 715 442 715 c 0,13,14
 401 715 401 715 356.5 667.5 c 128,-1,15
 312 620 312 620 286 556 c 1,16,17
 199 565 199 565 149 609.5 c 128,-1,18
 99 654 99 654 99 713 c 0,19,20
 99 774 99 774 130.5 819 c 128,-1,21
 162 864 162 864 217.5 889 c 128,-1,22
 273 914 273 914 339.5 926 c 128,-1,23
 406 938 406 938 486 938 c 0,24,25
 553 938 553 938 615.5 914.5 c 128,-1,26
 678 891 678 891 718 850 c 1,27,28
 771 897 771 897 834 923.5 c 128,-1,29
 897 950 897 950 961 950 c 0,30,31
 1107 950 1107 950 1187 847.5 c 128,-1,32
 1267 745 1267 745 1267 580 c 0,33,34
 1267 556 1267 556 1259 483 c 128,-1,35
 1251 410 1251 410 1246 381 c 1,36,-1
 828 367 l 1,37,38
 833 288 833 288 875.5 253.5 c 128,-1,39
 918 219 918 219 1018 219 c 0,40,41
 1170 219 1170 219 1266 265 c 1,42,-1
 1285 92 l 1,43,44
 1222 29 1222 29 1119.5 -1 c 128,-1,45
 1017 -31 1017 -31 918 -31 c 0,46,47
 809 -31 809 -31 723 9 c 128,-1,48
 637 49 637 49 582 127 c 1,49,50
 554 63 554 63 484.5 21 c 128,-1,51
 415 -21 415 -21 317 -21 c 0,52,53
 250 -21 250 -21 198 -2 c 128,-1,54
 146 17 146 17 114.5 51 c 128,-1,55
 83 85 83 85 67 127.5 c 128,-1,56
 51 170 51 170 51 220 c 0,57,58
 51 305 51 305 88.5 369.5 c 128,-1,59
 126 434 126 434 191.5 471 c 128,-1,60
 257 508 257 508 339 525 c 128,-1,61
 421 542 421 542 517 539 c 1,9,-1
435 225 m 0,62,63
 476 225 476 225 517 254 c 1,64,-1
 517 383 l 1,65,66
 495 383 495 383 470.5 378.5 c 128,-1,67
 446 374 446 374 418.5 364.5 c 128,-1,68
 391 355 391 355 373.5 335.5 c 128,-1,69
 356 316 356 316 356 290 c 0,70,71
 356 260 356 260 376.5 242.5 c 128,-1,72
 397 225 397 225 435 225 c 0,62,63
EndSplineSet
Substitution2: "Neuton-Regular-'smcp' Lowercase to Small Capitals in Latin lookup 0 subtable" ae.sc
Colour: ffffff
EndChar

StartChar: agrave
Encoding: 159 224 63
Width: 907
VWidth: 0
Flags: MW
LayerCount: 3
Fore
SplineSet
634 1003 m 1,0,-1
 400 977 l 1,1,-1
 139 1298 l 1,2,-1
 489 1308 l 1,3,-1
 634 1003 l 1,0,-1
396 225 m 0,4,5
 437 225 437 225 478 254 c 1,6,-1
 478 413 l 1,7,8
 458 413 458 413 432 406.5 c 128,-1,9
 406 400 406 400 379.5 388 c 128,-1,10
 353 376 353 376 335 354 c 128,-1,11
 317 332 317 332 317 306 c 0,12,13
 317 225 317 225 396 225 c 0,4,5
478 539 m 1,14,-1
 478 637 l 2,15,16
 478 669 478 669 456.5 692 c 128,-1,17
 435 715 435 715 403 715 c 0,18,19
 362 715 362 715 317.5 667.5 c 128,-1,20
 273 620 273 620 247 556 c 1,21,22
 160 565 160 565 110 609.5 c 128,-1,23
 60 654 60 654 60 713 c 0,24,25
 60 774 60 774 91.5 819 c 128,-1,26
 123 864 123 864 178.5 889 c 128,-1,27
 234 914 234 914 300.5 926 c 128,-1,28
 367 938 367 938 447 938 c 0,29,30
 503 938 503 938 551 929 c 128,-1,31
 599 920 599 920 643 898.5 c 128,-1,32
 687 877 687 877 718 844 c 128,-1,33
 749 811 749 811 767.5 759.5 c 128,-1,34
 786 708 786 708 786 641 c 2,35,-1
 786 374 l 2,36,37
 786 288 786 288 807 251.5 c 128,-1,38
 828 215 828 215 874 200 c 1,39,-1
 902 192 l 1,40,-1
 877 34 l 1,41,42
 785 -24 785 -24 701 -24 c 0,43,44
 618 -24 618 -24 569.5 15 c 128,-1,45
 521 54 521 54 516 126 c 2,46,-1
 515 139 l 1,47,-1
 501 139 l 1,48,49
 490 79 490 79 417.5 29 c 128,-1,50
 345 -21 345 -21 258 -21 c 0,51,52
 145 -21 145 -21 78.5 49 c 128,-1,53
 12 119 12 119 12 220 c 0,54,55
 12 305 12 305 49.5 369.5 c 128,-1,56
 87 434 87 434 152.5 471 c 128,-1,57
 218 508 218 508 300 525 c 128,-1,58
 382 542 382 542 478 539 c 1,14,-1
EndSplineSet
Substitution2: "Neuton-Regular-'smcp' Lowercase to Small Capitals in Latin lookup 0 subtable" agrave.sc
Colour: ffffff
EndChar

StartChar: ampersand
Encoding: 6 38 64
Width: 1480
VWidth: 0
Flags: MW
LayerCount: 3
Fore
SplineSet
511 1029 m 0,0,1
 511 964 511 964 625 846 c 1,2,3
 662 902 662 902 662 973 c 0,4,5
 662 1036 662 1036 636.5 1069 c 128,-1,6
 611 1102 611 1102 577 1102 c 0,7,8
 550 1102 550 1102 530.5 1082 c 128,-1,9
 511 1062 511 1062 511 1029 c 0,0,1
383 393 m 0,10,11
 383 314 383 314 431.5 259 c 128,-1,12
 480 204 480 204 548 204 c 0,13,14
 629 204 629 204 702 293 c 1,15,-1
 473 546 l 1,16,-1
 464 550 l 1,17,18
 383 484 383 484 383 393 c 0,10,11
51 280 m 0,19,20
 51 333 51 333 62.5 378.5 c 128,-1,21
 74 424 74 424 98 460.5 c 128,-1,22
 122 497 122 497 147 525 c 128,-1,23
 172 553 172 553 212 579.5 c 128,-1,24
 252 606 252 606 283 623.5 c 128,-1,25
 314 641 314 641 360 664 c 1,26,27
 303 716 303 716 272.5 792 c 128,-1,28
 242 868 242 868 242 935 c 0,29,30
 242 1013 242 1013 276.5 1078.5 c 128,-1,31
 311 1144 311 1144 367.5 1185.5 c 128,-1,32
 424 1227 424 1227 492 1250 c 128,-1,33
 560 1273 560 1273 630 1273 c 0,34,35
 747 1273 747 1273 827.5 1208.5 c 128,-1,36
 908 1144 908 1144 908 1024 c 0,37,38
 908 919 908 919 868.5 852 c 128,-1,39
 829 785 829 785 753 731 c 1,40,-1
 753 715 l 1,41,-1
 899 563 l 1,42,-1
 1029 741 l 1,43,-1
 948 780 l 1,44,-1
 972 940 l 1,45,-1
 1437 940 l 1,46,-1
 1415 780 l 1,47,-1
 1241 722 l 1,48,-1
 1028 429 l 1,49,50
 1240 208 1240 208 1340 162 c 2,51,-1
 1386 141 l 1,52,-1
 1356 6 l 1,53,54
 1334 -1 1334 -1 1273.5 -9.5 c 128,-1,55
 1213 -18 1213 -18 1175 -18 c 0,56,57
 990 -18 990 -18 862 120 c 2,58,-1
 828 157 l 1,59,60
 754 68 754 68 647.5 19.5 c 128,-1,61
 541 -29 541 -29 430 -29 c 0,62,63
 366 -29 366 -29 314 -21.5 c 128,-1,64
 262 -14 262 -14 211.5 6.5 c 128,-1,65
 161 27 161 27 127 60.5 c 128,-1,66
 93 94 93 94 72 150 c 128,-1,67
 51 206 51 206 51 280 c 0,19,20
EndSplineSet
Substitution2: "Neuton-Regular-'c2sc' Capitals to Small Capitals in Latin lookup 3-1" ampersand.sc
Colour: ffffff
EndChar

StartChar: aring
Encoding: 164 229 65
Width: 907
VWidth: 0
Flags: MW
LayerCount: 3
Fore
SplineSet
386 1141 m 0,0,1
 386 1084 386 1084 454 1084 c 0,2,3
 480 1084 480 1084 500.5 1099 c 128,-1,4
 521 1114 521 1114 521 1141 c 128,-1,5
 521 1168 521 1168 499 1184 c 128,-1,6
 477 1200 477 1200 448 1200 c 0,7,8
 424 1200 424 1200 405 1183 c 128,-1,9
 386 1166 386 1166 386 1141 c 0,0,1
175 1136 m 0,10,11
 175 1212 175 1212 245.5 1260.5 c 128,-1,12
 316 1309 316 1309 459 1309 c 0,13,14
 744 1309 744 1309 744 1145 c 0,15,16
 744 1073 744 1073 671.5 1023.5 c 128,-1,17
 599 974 599 974 451 974 c 0,18,19
 304 974 304 974 239.5 1016 c 128,-1,20
 175 1058 175 1058 175 1136 c 0,10,11
396 225 m 0,21,22
 437 225 437 225 478 254 c 1,23,-1
 478 413 l 1,24,25
 458 413 458 413 432 406.5 c 128,-1,26
 406 400 406 400 379.5 388 c 128,-1,27
 353 376 353 376 335 354 c 128,-1,28
 317 332 317 332 317 306 c 0,29,30
 317 225 317 225 396 225 c 0,21,22
478 539 m 1,31,-1
 478 637 l 2,32,33
 478 669 478 669 456.5 692 c 128,-1,34
 435 715 435 715 403 715 c 0,35,36
 362 715 362 715 317.5 667.5 c 128,-1,37
 273 620 273 620 247 556 c 1,38,39
 160 565 160 565 110 609.5 c 128,-1,40
 60 654 60 654 60 713 c 0,41,42
 60 774 60 774 91.5 819 c 128,-1,43
 123 864 123 864 178.5 889 c 128,-1,44
 234 914 234 914 300.5 926 c 128,-1,45
 367 938 367 938 447 938 c 0,46,47
 503 938 503 938 551 929 c 128,-1,48
 599 920 599 920 643 898.5 c 128,-1,49
 687 877 687 877 718 844 c 128,-1,50
 749 811 749 811 767.5 759.5 c 128,-1,51
 786 708 786 708 786 641 c 2,52,-1
 786 374 l 2,53,54
 786 288 786 288 807 251.5 c 128,-1,55
 828 215 828 215 874 200 c 1,56,-1
 902 192 l 1,57,-1
 877 34 l 1,58,59
 785 -24 785 -24 701 -24 c 0,60,61
 618 -24 618 -24 569.5 15 c 128,-1,62
 521 54 521 54 516 126 c 2,63,-1
 515 139 l 1,64,-1
 501 139 l 1,65,66
 490 79 490 79 417.5 29 c 128,-1,67
 345 -21 345 -21 258 -21 c 0,68,69
 145 -21 145 -21 78.5 49 c 128,-1,70
 12 119 12 119 12 220 c 0,71,72
 12 305 12 305 49.5 369.5 c 128,-1,73
 87 434 87 434 152.5 471 c 128,-1,74
 218 508 218 508 300 525 c 128,-1,75
 382 542 382 542 478 539 c 1,31,-1
EndSplineSet
Substitution2: "Neuton-Regular-'smcp' Lowercase to Small Capitals in Latin lookup 0 subtable" aring.sc
Colour: ffffff
EndChar

StartChar: asciicircum
Encoding: 62 94 66
Width: 740
VWidth: 0
Flags: MW
LayerCount: 3
Fore
SplineSet
50 825 m 1,0,-1
 291 1237 l 1,1,-1
 435 1250 l 1,2,-1
 690 823 l 1,3,-1
 568 789 l 1,4,-1
 352 963 l 1,5,-1
 341 963 l 1,6,-1
 164 796 l 1,7,-1
 50 825 l 1,0,-1
EndSplineSet
Colour: ffffff
EndChar

StartChar: asciitilde
Encoding: 94 126 67
Width: 1075
VWidth: 0
Flags: MW
LayerCount: 3
Fore
SplineSet
60 282 m 1,0,1
 53 345 53 345 60 408.5 c 128,-1,2
 67 472 67 472 89.5 533.5 c 128,-1,3
 112 595 112 595 152.5 637 c 128,-1,4
 193 679 193 679 253 698 c 128,-1,5
 313 717 313 717 396 696 c 2,6,-1
 738 613 l 2,7,8
 757 609 757 609 775 616.5 c 128,-1,9
 793 624 793 624 805 637.5 c 128,-1,10
 817 651 817 651 826.5 666.5 c 128,-1,11
 836 682 836 682 840 692 c 2,12,-1
 844 702 l 1,13,-1
 1018 684 l 1,14,15
 1017 543 1017 543 975.5 445.5 c 128,-1,16
 934 348 934 348 848.5 306.5 c 128,-1,17
 763 265 763 265 644 296 c 2,18,-1
 329 378 l 2,19,20
 292 388 292 388 269 362 c 128,-1,21
 246 336 246 336 242 304 c 2,22,-1
 238 272 l 1,23,-1
 60 282 l 1,0,1
EndSplineSet
Colour: ffffff
EndChar

StartChar: asterisk
Encoding: 10 42 68
Width: 828
VWidth: 0
Flags: MW
LayerCount: 3
Fore
SplineSet
41 913 m 1,0,-1
 123 1088 l 1,1,-1
 356 993 l 1,2,-1
 301 1300 l 1,3,-1
 490 1275 l 1,4,-1
 464 1005 l 1,5,-1
 744 1175 l 1,6,-1
 781 989 l 1,7,-1
 526 906 l 1,8,-1
 768 714 l 1,9,-1
 597 623 l 1,10,-1
 452 824 l 1,11,-1
 326 548 l 1,12,-1
 187 686 l 1,13,-1
 358 876 l 1,14,-1
 41 913 l 1,0,-1
EndSplineSet
Colour: ffffff
EndChar

StartChar: at
Encoding: 32 64 69
Width: 1554
VWidth: 0
Flags: MW
LayerCount: 3
Fore
SplineSet
674 395 m 0,0,1
 674 294 674 294 727 294 c 0,2,3
 741 294 741 294 782 306 c 1,4,-1
 826 648 l 1,5,6
 824 647 824 647 823.5 647.5 c 128,-1,7
 823 648 823 648 820.5 650 c 128,-1,8
 818 652 818 652 815.5 654 c 128,-1,9
 813 656 813 656 807 657.5 c 128,-1,10
 801 659 801 659 792 659 c 0,11,12
 758 659 758 659 732.5 625.5 c 128,-1,13
 707 592 707 592 695.5 543.5 c 128,-1,14
 684 495 684 495 679 457 c 128,-1,15
 674 419 674 419 674 395 c 0,0,1
53 326 m 0,16,17
 53 434 53 434 92 539 c 128,-1,18
 131 644 131 644 208 734.5 c 128,-1,19
 285 825 285 825 390 894.5 c 128,-1,20
 495 964 495 964 636 1003.5 c 128,-1,21
 777 1043 777 1043 935 1043 c 0,22,23
 1021 1043 1021 1043 1100.5 1029 c 128,-1,24
 1180 1015 1180 1015 1254 982.5 c 128,-1,25
 1328 950 1328 950 1382 902.5 c 128,-1,26
 1436 855 1436 855 1468.5 783 c 128,-1,27
 1501 711 1501 711 1501 622 c 0,28,29
 1501 477 1501 477 1429.5 350 c 128,-1,30
 1358 223 1358 223 1238.5 147.5 c 128,-1,31
 1119 72 1119 72 985 72 c 0,32,33
 949 72 949 72 915 78 c 128,-1,34
 881 84 881 84 848 97.5 c 128,-1,35
 815 111 815 111 795.5 136.5 c 128,-1,36
 776 162 776 162 777 197 c 1,37,-1
 766 197 l 1,38,39
 728 142 728 142 679.5 114 c 128,-1,40
 631 86 631 86 581 86 c 0,41,42
 502 86 502 86 448 153.5 c 128,-1,43
 394 221 394 221 394 342 c 0,44,45
 394 423 394 423 425.5 501 c 128,-1,46
 457 579 457 579 518 646 c 128,-1,47
 579 713 579 713 682.5 754.5 c 128,-1,48
 786 796 786 796 915 796 c 0,49,50
 998 796 998 796 1078 778 c 1,51,-1
 1094 761 l 1,52,-1
 1054 395 l 1,53,54
 1046 332 1046 332 1047 298 c 128,-1,55
 1048 264 1048 264 1057 253.5 c 128,-1,56
 1066 243 1066 243 1088 243 c 0,57,58
 1131 243 1131 243 1166 280 c 128,-1,59
 1201 317 1201 317 1220.5 371.5 c 128,-1,60
 1240 426 1240 426 1250.5 477.5 c 128,-1,61
 1261 529 1261 529 1261 567 c 0,62,63
 1261 896 1261 896 864 894 c 0,64,65
 600 893 600 893 450.5 746 c 128,-1,66
 301 599 301 599 301 377 c 0,67,68
 301 152 301 152 430.5 43.5 c 128,-1,69
 560 -65 560 -65 836 -65 c 0,70,71
 955 -65 955 -65 1043.5 -47 c 128,-1,72
 1132 -29 1132 -29 1197 26 c 1,73,-1
 1242 -84 l 1,74,75
 1157 -149 1157 -149 1029.5 -185 c 128,-1,76
 902 -221 902 -221 762 -221 c 0,77,78
 431 -221 431 -221 242 -71.5 c 128,-1,79
 53 78 53 78 53 326 c 0,16,17
EndSplineSet
Colour: ffffff
EndChar

StartChar: atilde
Encoding: 162 227 70
Width: 907
VWidth: 0
Flags: MW
LayerCount: 3
Fore
SplineSet
266 1000 m 1,0,-1
 149 1011 l 1,1,2
 151 1091 151 1091 167.5 1147.5 c 128,-1,3
 184 1204 184 1204 211 1235 c 128,-1,4
 238 1266 238 1266 277 1278.5 c 128,-1,5
 316 1291 316 1291 359 1287.5 c 128,-1,6
 402 1284 402 1284 454 1268 c 2,7,-1
 524 1246 l 2,8,9
 591 1224 591 1224 626 1234.5 c 128,-1,10
 661 1245 661 1245 675 1296 c 1,11,-1
 790 1285 l 1,12,13
 780 1099 780 1099 707.5 1041 c 128,-1,14
 635 983 635 983 496 1026 c 2,15,-1
 430 1046 l 1,16,17
 343 1070 343 1070 313.5 1060 c 128,-1,18
 284 1050 284 1050 266 1000 c 1,0,-1
396 225 m 0,19,20
 437 225 437 225 478 254 c 1,21,-1
 478 413 l 1,22,23
 458 413 458 413 432 406.5 c 128,-1,24
 406 400 406 400 379.5 388 c 128,-1,25
 353 376 353 376 335 354 c 128,-1,26
 317 332 317 332 317 306 c 0,27,28
 317 225 317 225 396 225 c 0,19,20
478 539 m 1,29,-1
 478 637 l 2,30,31
 478 669 478 669 456.5 692 c 128,-1,32
 435 715 435 715 403 715 c 0,33,34
 362 715 362 715 317.5 667.5 c 128,-1,35
 273 620 273 620 247 556 c 1,36,37
 160 565 160 565 110 609.5 c 128,-1,38
 60 654 60 654 60 713 c 0,39,40
 60 774 60 774 91.5 819 c 128,-1,41
 123 864 123 864 178.5 889 c 128,-1,42
 234 914 234 914 300.5 926 c 128,-1,43
 367 938 367 938 447 938 c 0,44,45
 503 938 503 938 551 929 c 128,-1,46
 599 920 599 920 643 898.5 c 128,-1,47
 687 877 687 877 718 844 c 128,-1,48
 749 811 749 811 767.5 759.5 c 128,-1,49
 786 708 786 708 786 641 c 2,50,-1
 786 374 l 2,51,52
 786 288 786 288 807 251.5 c 128,-1,53
 828 215 828 215 874 200 c 1,54,-1
 902 192 l 1,55,-1
 877 34 l 1,56,57
 785 -24 785 -24 701 -24 c 0,58,59
 618 -24 618 -24 569.5 15 c 128,-1,60
 521 54 521 54 516 126 c 2,61,-1
 515 139 l 1,62,-1
 501 139 l 1,63,64
 490 79 490 79 417.5 29 c 128,-1,65
 345 -21 345 -21 258 -21 c 0,66,67
 145 -21 145 -21 78.5 49 c 128,-1,68
 12 119 12 119 12 220 c 0,69,70
 12 305 12 305 49.5 369.5 c 128,-1,71
 87 434 87 434 152.5 471 c 128,-1,72
 218 508 218 508 300 525 c 128,-1,73
 382 542 382 542 478 539 c 1,29,-1
EndSplineSet
Substitution2: "Neuton-Regular-'smcp' Lowercase to Small Capitals in Latin lookup 0 subtable" atilde.sc
Colour: ffffff
EndChar

StartChar: b
Encoding: 66 98 71
Width: 1033
VWidth: 0
Flags: MW
LayerCount: 3
Back
SplineSet
667 189 m 1,0,-1
 667 494 l 2,1,2
 667 575.138 667 575.138 639.922 607.546 c 0
 612.845 639.954 612.845 639.954 557.122 639.954 c 0,3,4
 507.711 639.954 507.711 639.954 449 607 c 1,5,-1
 449 215 l 1,6,-1
 572 152 l 1,7,-1
 544 0 l 1,8,-1
 5 0 l 1,9,-1
 26 143 l 1,10,-1
 131 215 l 1,11,-1
 131 1052 l 1,12,-1
 10 1133 l 1,13,-1
 39 1277 l 1,14,-1
 390 1304 l 1,15,-1
 430 1259 l 1,16,-1
 430 898 l 1,17,-1
 404 751 l 1,18,-1
 419 751 l 1,19,20
 502 840 502 840 576.5 884.5 c 0
 651 929 651 929 738 929 c 0,21,22
 854 929 854 929 919 859.5 c 0
 984 790 984 790 984 641 c 2,23,-1
 984 212 l 1,24,-1
 1083 155 l 1,25,-1
 1060 0 l 1,26,-1
 649 0 l 1,27,-1
 663 143 l 1,28,-1
 667 189 l 1,0,-1
EndSplineSet
Fore
SplineSet
415 226 m 1,0,1
 463 195 463 195 510 195 c 0,2,3
 575 195 575 195 614 250.5 c 128,-1,4
 653 306 653 306 653 427 c 0,5,6
 653 675 653 675 533 675 c 0,7,8
 501 675 501 675 477 665 c 128,-1,9
 453 655 453 655 415 628 c 1,10,-1
 415 226 l 1,0,1
377 771 m 1,11,12
 423 848 423 848 497.5 894 c 128,-1,13
 572 940 572 940 659 940 c 0,14,15
 801 940 801 940 886 817.5 c 128,-1,16
 971 695 971 695 971 497 c 0,17,18
 971 332 971 332 900 212.5 c 128,-1,19
 829 93 829 93 700.5 31.5 c 128,-1,20
 572 -30 572 -30 400 -30 c 0,21,22
 250 -30 250 -30 99 8 c 1,23,-1
 99 1052 l 1,24,-1
 -22 1133 l 1,25,-1
 7 1277 l 1,26,-1
 348 1304 l 1,27,-1
 388 1259 l 1,28,-1
 388 928 l 1,29,-1
 362 771 l 1,30,-1
 377 771 l 1,11,12
EndSplineSet
Substitution2: "Neuton-Regular-'smcp' Lowercase to Small Capitals in Latin lookup 0 subtable" b.sc
Colour: ffffff
EndChar

StartChar: backslash
Encoding: 60 92 72
Width: 765
VWidth: 0
Flags: MW
LayerCount: 3
Fore
SplineSet
35 1333 m 1,0,-1
 270 1316 l 1,1,-1
 731 -410 l 1,2,-1
 504 -397 l 1,3,-1
 35 1333 l 1,0,-1
EndSplineSet
Colour: ffffff
EndChar

StartChar: bar
Encoding: 92 124 73
Width: 346
VWidth: 0
Flags: MW
LayerCount: 3
Fore
SplineSet
75 -363 m 1,0,-1
 75 1260 l 1,1,-1
 271 1248 l 1,2,-1
 271 -379 l 1,3,-1
 75 -363 l 1,0,-1
EndSplineSet
Colour: ffffff
EndChar

StartChar: braceleft
Encoding: 91 123 74
Width: 771
VWidth: 0
Flags: MW
LayerCount: 3
Fore
SplineSet
684 -379 m 1,0,-1
 439 -379 l 2,1,2
 355 -379 355 -379 302.5 -343 c 128,-1,3
 250 -307 250 -307 230 -248 c 128,-1,4
 210 -189 210 -189 203 -117 c 128,-1,5
 196 -45 196 -45 194.5 29 c 128,-1,6
 193 103 193 103 185.5 166.5 c 128,-1,7
 178 230 178 230 149.5 276 c 128,-1,8
 121 322 121 322 68 333 c 2,9,-1
 7 346 l 1,10,-1
 7 545 l 1,11,-1
 65 557 l 2,12,13
 114 567 114 567 143.5 603.5 c 128,-1,14
 173 640 173 640 182 690.5 c 128,-1,15
 191 741 191 741 196 803 c 128,-1,16
 201 865 201 865 201 927.5 c 128,-1,17
 201 990 201 990 212.5 1049 c 128,-1,18
 224 1108 224 1108 245 1154 c 128,-1,19
 266 1200 266 1200 315 1227.5 c 128,-1,20
 364 1255 364 1255 437 1255 c 2,21,-1
 677 1255 l 1,22,-1
 671 1052 l 1,23,-1
 538 1049 l 2,24,25
 505 1048 505 1048 495.5 991.5 c 128,-1,26
 486 935 486 935 487.5 852.5 c 128,-1,27
 489 770 489 770 485.5 685.5 c 128,-1,28
 482 601 482 601 450 536 c 128,-1,29
 418 471 418 471 353 459 c 1,30,-1
 353 446 l 1,31,32
 408 410 408 410 438.5 348 c 128,-1,33
 469 286 469 286 474.5 219.5 c 128,-1,34
 480 153 480 153 481.5 83 c 128,-1,35
 483 13 483 13 482 -41.5 c 128,-1,36
 481 -96 481 -96 496.5 -132 c 128,-1,37
 512 -168 512 -168 548 -169 c 2,38,-1
 672 -173 l 1,39,-1
 684 -379 l 1,0,-1
EndSplineSet
Colour: ffffff
EndChar

StartChar: braceright
Encoding: 93 125 75
Width: 769
VWidth: 0
Flags: MW
LayerCount: 3
Fore
SplineSet
43 -379 m 1,0,-1
 55 -173 l 1,1,-1
 179 -169 l 2,2,3
 215 -168 215 -168 230.5 -132 c 128,-1,4
 246 -96 246 -96 245 -41.5 c 128,-1,5
 244 13 244 13 245.5 83 c 128,-1,6
 247 153 247 153 252.5 219.5 c 128,-1,7
 258 286 258 286 288.5 348 c 128,-1,8
 319 410 319 410 374 446 c 1,9,-1
 374 459 l 1,10,11
 309 471 309 471 277 536 c 128,-1,12
 245 601 245 601 241.5 685.5 c 128,-1,13
 238 770 238 770 239.5 852.5 c 128,-1,14
 241 935 241 935 231.5 991.5 c 128,-1,15
 222 1048 222 1048 189 1049 c 2,16,-1
 56 1052 l 1,17,-1
 50 1255 l 1,18,-1
 290 1255 l 2,19,20
 363 1255 363 1255 412 1227.5 c 128,-1,21
 461 1200 461 1200 482 1154 c 128,-1,22
 503 1108 503 1108 514.5 1049 c 128,-1,23
 526 990 526 990 526 927.5 c 128,-1,24
 526 865 526 865 531 803 c 128,-1,25
 536 741 536 741 545 690.5 c 128,-1,26
 554 640 554 640 583.5 603.5 c 128,-1,27
 613 567 613 567 662 557 c 2,28,-1
 720 545 l 1,29,-1
 720 346 l 1,30,-1
 659 333 l 2,31,32
 606 322 606 322 577.5 276 c 128,-1,33
 549 230 549 230 541.5 166.5 c 128,-1,34
 534 103 534 103 532.5 29 c 128,-1,35
 531 -45 531 -45 524 -117 c 128,-1,36
 517 -189 517 -189 497 -248 c 128,-1,37
 477 -307 477 -307 424.5 -343 c 128,-1,38
 372 -379 372 -379 288 -379 c 2,39,-1
 43 -379 l 1,0,-1
EndSplineSet
Colour: ffffff
EndChar

StartChar: bracketleft
Encoding: 59 91 76
Width: 593
VWidth: 0
Flags: MW
LayerCount: 3
Fore
SplineSet
511 -214 m 1,0,-1
 483 -378 l 1,1,-1
 34 -378 l 1,2,-1
 38 1255 l 1,3,-1
 474 1255 l 1,4,-1
 504 1094 l 1,5,-1
 265 1075 l 1,6,-1
 265 -193 l 1,7,-1
 511 -214 l 1,0,-1
EndSplineSet
Colour: ffffff
EndChar

StartChar: bracketright
Encoding: 61 93 77
Width: 592
VWidth: 0
Flags: MW
LayerCount: 3
Back
SplineSet
-189 -217 m 5,0,-1
 -159 -378 l 1,1,-1
 267 -378 l 1,2,-1
 271 1255 l 1,3,-1
 -169 1255 l 1,4,-1
 -187 1050 l 1,5,-1
 40 1034 l 1,6,-1
 40 -198 l 1,7,-1
 -189 -217 l 5,0,-1
EndSplineSet
Fore
SplineSet
41 -214 m 1,0,-1
 287 -193 l 1,1,-1
 287 1075 l 1,2,-1
 48 1094 l 1,3,-1
 78 1255 l 1,4,-1
 514 1255 l 1,5,-1
 518 -378 l 1,6,-1
 69 -378 l 1,7,-1
 41 -214 l 1,0,-1
EndSplineSet
Colour: ffffff
EndChar

StartChar: brokenbar
Encoding: 101 166 78
Width: 366
VWidth: 0
Flags: MW
LayerCount: 3
Fore
SplineSet
74 528 m 1,0,-1
 74 1274 l 1,1,-1
 290 1248 l 1,2,-1
 292 505 l 1,3,-1
 74 528 l 1,0,-1
74 -351 m 1,4,-1
 74 415 l 1,5,-1
 293 387 l 1,6,-1
 293 -379 l 1,7,-1
 74 -351 l 1,4,-1
EndSplineSet
Colour: ffffff
EndChar

StartChar: c
Encoding: 67 99 79
Width: 777
VWidth: 0
Flags: MW
LayerCount: 3
Back
SplineSet
540 -410 m 5,0,-1
 -78 -410 l 1,1,-1
 -57 -267 l 1,2,-1
 48 -195 l 1,3,-1
 48 270 l 1,4,-1
 -81 270 l 1,5,-1
 -68 428 l 1,6,-1
 46 453 l 1,7,8
 52 558 52 558 99 646 c 0
 146 734 146 734 214 788.5 c 0
 282 843 282 843 359 873 c 0
 436 903 436 903 509 903 c 0,9,10
 613 903 613 903 670.5 863 c 0
 728 823 728 823 728 745 c 0,11,12
 728 674 728 674 689.5 622.5 c 0
 651 571 651 571 605 562 c 1,13,14
 579 595 579 595 518.5 632.5 c 0
 458 670 458 670 400 670 c 0,15,16
 363 670 363 670 347.5 651.5 c 0
 332 633 332 633 331 591 c 1,17,-1
 331 446 l 1,18,-1
 607 446 l 1,19,-1
 593 270 l 1,20,-1
 344 270 l 1,21,-1
 344 -178 l 1,22,-1
 563 -235 l 1,23,-1
 540 -410 l 5,0,-1
EndSplineSet
Fore
SplineSet
29 386 m 0,0,1
 29 502 29 502 72.5 609 c 128,-1,2
 116 716 116 716 183.5 788.5 c 128,-1,3
 251 861 251 861 333.5 904 c 128,-1,4
 416 947 416 947 494 947 c 0,5,6
 599 947 599 947 662 895 c 128,-1,7
 725 843 725 843 725 756 c 0,8,9
 725 678 725 678 683.5 613 c 128,-1,10
 642 548 642 548 584 534 c 1,11,12
 494 659 494 659 395 659 c 0,13,14
 337 659 337 659 337 549 c 0,15,16
 337 492 337 492 343.5 443 c 128,-1,17
 350 394 350 394 366.5 347.5 c 128,-1,18
 383 301 383 301 415 274 c 128,-1,19
 447 247 447 247 492 247 c 0,20,21
 538 247 538 247 580 269.5 c 128,-1,22
 622 292 622 292 646 331 c 1,23,-1
 756 207 l 1,24,25
 674 -32 674 -32 408 -32 c 0,26,27
 29 -32 29 -32 29 386 c 0,0,1
EndSplineSet
Substitution2: "Neuton-Regular-'smcp' Lowercase to Small Capitals in Latin lookup 0 subtable" c.sc
Colour: ffffff
EndChar

StartChar: ccedilla
Encoding: 166 231 80
Width: 777
VWidth: 0
Flags: MW
LayerCount: 3
Fore
SplineSet
214 -303 m 1,0,1
 272 -302 272 -302 311.5 -282.5 c 128,-1,2
 351 -263 351 -263 351 -239 c 0,3,4
 351 -200 351 -200 195 -147 c 1,5,-1
 346 -29 l 1,6,7
 29 4 29 4 29 386 c 0,8,9
 29 502 29 502 72.5 609 c 128,-1,10
 116 716 116 716 183.5 788.5 c 128,-1,11
 251 861 251 861 333.5 904 c 128,-1,12
 416 947 416 947 494 947 c 0,13,14
 599 947 599 947 662 895 c 128,-1,15
 725 843 725 843 725 756 c 0,16,17
 725 678 725 678 683.5 613 c 128,-1,18
 642 548 642 548 584 534 c 1,19,20
 494 659 494 659 395 659 c 0,21,22
 337 659 337 659 337 549 c 0,23,24
 337 492 337 492 343.5 443 c 128,-1,25
 350 394 350 394 366.5 347.5 c 128,-1,26
 383 301 383 301 415 274 c 128,-1,27
 447 247 447 247 492 247 c 0,28,29
 538 247 538 247 580 269.5 c 128,-1,30
 622 292 622 292 646 331 c 1,31,-1
 756 207 l 1,32,33
 696 33 696 33 537 -15 c 1,34,-1
 439 -86 l 1,35,36
 614 -101 614 -101 614 -229 c 0,37,38
 614 -313 614 -313 531 -352 c 128,-1,39
 448 -391 448 -391 250 -391 c 1,40,-1
 214 -303 l 1,0,1
EndSplineSet
Substitution2: "Neuton-Regular-'smcp' Lowercase to Small Capitals in Latin lookup 0 subtable" ccedilla.sc
Colour: ffffff
EndChar

StartChar: cedilla
Encoding: 119 184 81
Width: 529
VWidth: 0
Flags: MW
LayerCount: 3
Fore
SplineSet
72 -300 m 1,0,1
 130 -299 130 -299 169.5 -279.5 c 128,-1,2
 209 -260 209 -260 209 -236 c 0,3,4
 209 -197 209 -197 53 -144 c 1,5,-1
 241 3 l 1,6,-1
 415 3 l 1,7,-1
 297 -83 l 1,8,9
 472 -98 472 -98 472 -226 c 0,10,11
 472 -310 472 -310 389 -349 c 128,-1,12
 306 -388 306 -388 108 -388 c 1,13,-1
 72 -300 l 1,0,1
EndSplineSet
Colour: ffffff
EndChar

StartChar: cent
Encoding: 97 162 82
Width: 963
VWidth: 0
Flags: MW
LayerCount: 3
Back
SplineSet
53 452 m 4,0,1
 53 554 53 554 86 644.5 c 0
 119 735 119 735 173.5 801 c 0
 228 867 228 867 298 915.5 c 0
 368 964 368 964 443 988 c 0
 518 1012 518 1012 591 1012 c 0,2,3
 665 1012 665 1012 723 987.5 c 0
 781 963 781 963 815.5 922.5 c 0
 850 882 850 882 868 832.5 c 0
 886 783 886 783 886 730 c 0,4,5
 886 646 886 646 832.5 595.5 c 0
 779 545 779 545 694 536 c 1,6,7
 641 693 641 693 597.5 751.5 c 0
 554 810 554 810 499 810 c 0,8,9
 386 810 386 810 386 531 c 0,10,11
 386 406 386 406 450 318 c 0
 514 230 514 230 626 230 c 0,12,13
 701 230 701 230 756 250 c 0
 811 270 811 270 880 311 c 1,14,-1
 920 177 l 1,15,16
 880 93 880 93 770 31 c 0
 660 -31 660 -31 535 -31 c 0,17,18
 406 -31 406 -31 311 5.5 c 0
 216 42 216 42 160.5 109 c 0
 105 176 105 176 79 261 c 0
 53 346 53 346 53 452 c 4,0,1
399 1232 m 1,19,-1
 626 1249 l 1,20,-1
 601 981 l 1,21,-1
 430 981 l 1,22,-1
 399 1232 l 1,19,-1
409 -266 m 1,23,-1
 435 0 l 1,24,-1
 605 0 l 1,25,-1
 638 -250 l 1,26,-1
 409 -266 l 1,23,-1
EndSplineSet
Fore
SplineSet
399 1232 m 1,0,-1
 626 1249 l 1,1,-1
 600 1004 l 1,2,3
 723 994 723 994 793.5 933 c 128,-1,4
 864 872 864 872 864 784 c 0,5,6
 864 738 864 738 849.5 700 c 128,-1,7
 835 662 835 662 810.5 636.5 c 128,-1,8
 786 611 786 611 763.5 595 c 128,-1,9
 741 579 741 579 715 568 c 1,10,11
 672 628 672 628 605.5 664 c 128,-1,12
 539 700 539 700 484 700 c 0,13,14
 449 700 449 700 425.5 666 c 128,-1,15
 402 632 402 632 402 584 c 0,16,17
 402 527 402 527 414 472 c 128,-1,18
 426 417 426 417 449 369.5 c 128,-1,19
 472 322 472 322 510.5 293 c 128,-1,20
 549 264 549 264 597 264 c 0,21,22
 650 264 650 264 713 289 c 128,-1,23
 776 314 776 314 800 353 c 1,24,-1
 917 221 l 1,25,26
 885 127 885 127 804 62 c 128,-1,27
 723 -3 723 -3 608 -23 c 1,28,-1
 638 -250 l 1,29,-1
 409 -266 l 1,30,-1
 432 -28 l 1,31,32
 259 -6 259 -6 172.5 112.5 c 128,-1,33
 86 231 86 231 86 421 c 0,34,35
 86 522 86 522 115 615.5 c 128,-1,36
 144 709 144 709 192.5 780 c 128,-1,37
 241 851 241 851 303 902.5 c 128,-1,38
 365 954 365 954 433 981 c 1,39,-1
 399 1232 l 1,0,-1
EndSplineSet
Colour: ffffff
EndChar

StartChar: circumflex
Encoding: 191 710 83
Width: 692
VWidth: 0
Flags: MW
LayerCount: 3
Fore
SplineSet
30 1325 m 1,0,-1
 183 1580 l 1,1,-1
 508 1580 l 1,2,-1
 662 1325 l 1,3,-1
 409 1316 l 1,4,-1
 345 1437 l 1,5,-1
 331 1437 l 1,6,-1
 263 1315 l 1,7,-1
 30 1325 l 1,0,-1
EndSplineSet
Colour: ffffff
EndChar

StartChar: colon
Encoding: 26 58 84
Width: 503
VWidth: 0
Flags: MW
LayerCount: 3
Fore
SplineSet
114 759 m 0,0,1
 114 784 114 784 123 808 c 128,-1,2
 132 832 132 832 152.5 854.5 c 128,-1,3
 173 877 173 877 211.5 890.5 c 128,-1,4
 250 904 250 904 302 904 c 0,5,6
 357 904 357 904 397.5 890.5 c 128,-1,7
 438 877 438 877 459 855 c 128,-1,8
 480 833 480 833 489 810.5 c 128,-1,9
 498 788 498 788 498 762 c 0,10,11
 498 614 498 614 301 613 c 0,12,13
 114 614 114 614 114 759 c 0,0,1
114 144 m 0,14,15
 114 169 114 169 123 193 c 128,-1,16
 132 217 132 217 152.5 239.5 c 128,-1,17
 173 262 173 262 211.5 275.5 c 128,-1,18
 250 289 250 289 302 289 c 0,19,20
 357 289 357 289 397.5 275.5 c 128,-1,21
 438 262 438 262 459 240 c 128,-1,22
 480 218 480 218 489 195 c 128,-1,23
 498 172 498 172 498 146 c 0,24,25
 498 -2 498 -2 301 -2 c 0,26,27
 114 -1 114 -1 114 144 c 0,14,15
EndSplineSet
Colour: ffffff
EndChar

StartChar: comma
Encoding: 12 44 85
Width: 564
VWidth: 0
Flags: MW
LayerCount: 3
Back
SplineSet
0 127 m 0,0,1
 0 187 0 187 49.5 233.5 c 0
 99 280 99 280 209 280 c 0,2,3
 326 280 326 280 376.5 234.5 c 0
 427 189 427 189 427 130 c 0,4,5
 427 -26 427 -26 208 -26 c 0,6,7
 0 -26 0 -26 0 127 c 0,0,1
EndSplineSet
Fore
SplineSet
68 -259 m 1,0,1
 149 -232 149 -232 191 -181.5 c 128,-1,2
 233 -131 233 -131 233 -80 c 0,3,4
 233 -39 233 -39 208 -14.5 c 128,-1,5
 183 10 183 10 146 10 c 0,6,7
 118 10 118 10 92 -3 c 1,8,9
 61 49 61 49 61 96 c 0,10,11
 60 183 60 183 116.5 230.5 c 128,-1,12
 173 278 173 278 263 278 c 0,13,14
 506 278 506 278 506 12 c 0,15,16
 506 -52 506 -52 482.5 -113 c 128,-1,17
 459 -174 459 -174 412.5 -229 c 128,-1,18
 366 -284 366 -284 288.5 -323.5 c 128,-1,19
 211 -363 211 -363 112 -377 c 1,20,-1
 68 -259 l 1,0,1
EndSplineSet
Colour: ffffff
EndChar

StartChar: copyright
Encoding: 104 169 86
Width: 1507
VWidth: 0
Flags: MW
LayerCount: 3
Back
SplineSet
419.258 654.219 m 4,0,1
 419.258 751.693 419.258 751.693 455.534 841.062 c 0
 491.81 930.43 491.81 930.43 548.435 991.177 c 0
 605.06 1051.92 605.06 1051.92 673.96 1087.95 c 0
 742.86 1123.97 742.86 1123.97 808.216 1123.97 c 0,2,3
 896.451 1123.97 896.451 1123.97 948.816 1080.58 c 0
 1001.18 1037.19 1001.18 1037.19 1001.18 964.305 c 0,4,5
 1001.18 899.357 1001.18 899.357 966.394 844.772 c 0
 931.607 790.188 931.607 790.188 883.498 778.146 c 1,6,7
 808.232 882.815 808.232 882.815 725.405 882.815 c 0,8,9
 676.51 882.815 676.51 882.815 676.51 790.746 c 0,10,11
 676.51 743.149 676.51 743.149 682.263 702.082 c 0
 688.017 661.015 688.017 661.015 701.512 622.056 c 0
 715.008 583.096 715.008 583.096 741.872 560.475 c 0
 768.736 537.854 768.736 537.854 806.485 537.854 c 0,12,13
 845.036 537.854 845.036 537.854 880.135 556.817 c 0
 915.234 575.78 915.234 575.78 935.359 608.164 c 1,14,-1
 1027.37 504.332 l 1,15,16
 958.843 304.174 958.843 304.174 735.947 304.174 c 0,17,18
 419.258 304.174 419.258 304.174 419.258 654.219 c 4,0,1
49 687 m 0,19,20
 49 850 49 850 104.5 984.5 c 0
 160 1119 160 1119 256.5 1209 c 0
 353 1299 353 1299 484 1348 c 0
 615 1397 615 1397 766 1397 c 0,21,22
 1085 1397 1085 1397 1271.5 1206 c 0
 1458 1015 1458 1015 1458 700 c 0,23,24
 1458 568 1458 568 1404 442.5 c 0
 1350 317 1350 317 1257.5 221.5 c 0
 1165 126 1165 126 1033.5 68 c 0
 902 10 902 10 757 10 c 0,25,26
 424 10 424 10 236.5 192.5 c 0
 49 375 49 375 49 687 c 0,19,20
255 708 m 0,27,28
 255 446 255 446 395.5 308 c 0
 536 170 536 170 763 170 c 0,29,30
 868 170 868 170 958.5 204 c 0
 1049 238 1049 238 1118 301.5 c 0
 1187 365 1187 365 1227 465.5 c 0
 1267 566 1267 566 1267 690 c 0,31,32
 1267 800 1267 800 1236.5 897.5 c 0
 1206 995 1206 995 1145.5 1073.5 c 0
 1085 1152 1085 1152 983.5 1198 c 0
 882 1244 882 1244 752 1244 c 0,33,34
 517 1244 517 1244 386 1097 c 0
 255 950 255 950 255 708 c 0,27,28
EndSplineSet
Fore
SplineSet
255 708 m 0,0,1
 255 446 255 446 395.5 308 c 128,-1,2
 536 170 536 170 763 170 c 0,3,4
 868 170 868 170 958.5 204 c 128,-1,5
 1049 238 1049 238 1118 301.5 c 128,-1,6
 1187 365 1187 365 1227 465.5 c 128,-1,7
 1267 566 1267 566 1267 690 c 0,8,9
 1267 800 1267 800 1236.5 897.5 c 128,-1,10
 1206 995 1206 995 1145.5 1073.5 c 128,-1,11
 1085 1152 1085 1152 983.5 1198 c 128,-1,12
 882 1244 882 1244 752 1244 c 0,13,14
 517 1244 517 1244 386 1097 c 128,-1,15
 255 950 255 950 255 708 c 0,0,1
49 687 m 0,16,17
 49 850 49 850 104.5 984.5 c 128,-1,18
 160 1119 160 1119 256.5 1209 c 128,-1,19
 353 1299 353 1299 484 1348 c 128,-1,20
 615 1397 615 1397 766 1397 c 0,21,22
 1085 1397 1085 1397 1271.5 1206 c 128,-1,23
 1458 1015 1458 1015 1458 700 c 0,24,25
 1458 568 1458 568 1404 442.5 c 128,-1,26
 1350 317 1350 317 1257.5 221.5 c 128,-1,27
 1165 126 1165 126 1033.5 68 c 128,-1,28
 902 10 902 10 757 10 c 0,29,30
 424 10 424 10 236.5 192.5 c 128,-1,31
 49 375 49 375 49 687 c 0,16,17
419 674 m 0,32,33
 419 875 419 875 528 999.5 c 128,-1,34
 637 1124 637 1124 808 1124 c 0,35,36
 897 1124 897 1124 954 1080 c 128,-1,37
 1011 1036 1011 1036 1011 964 c 0,38,39
 1011 899 1011 899 976.5 844.5 c 128,-1,40
 942 790 942 790 893 778 c 1,41,42
 825 873 825 873 735 873 c 0,43,44
 705 873 705 873 691 859.5 c 128,-1,45
 677 846 677 846 677 811 c 0,46,47
 677 763 677 763 682.5 720.5 c 128,-1,48
 688 678 688 678 701.5 637 c 128,-1,49
 715 596 715 596 742 572 c 128,-1,50
 769 548 769 548 806 548 c 0,51,52
 849 548 849 548 887.5 563 c 128,-1,53
 926 578 926 578 945 608 c 1,54,-1
 1037 504 l 1,55,56
 1005 411 1005 411 929.5 357.5 c 128,-1,57
 854 304 854 304 736 304 c 0,58,59
 653 304 653 304 591 331.5 c 128,-1,60
 529 359 529 359 492 409.5 c 128,-1,61
 455 460 455 460 437 526 c 128,-1,62
 419 592 419 592 419 674 c 0,32,33
EndSplineSet
Colour: ffffff
EndChar

StartChar: currency
Encoding: 99 164 87
Width: 947
VWidth: 0
Flags: MW
LayerCount: 3
Fore
SplineSet
364 491 m 0,0,1
 364 436 364 436 396 400 c 128,-1,2
 428 364 428 364 471 364 c 0,3,4
 515 364 515 364 546 397.5 c 128,-1,5
 577 431 577 431 577 485 c 0,6,7
 577 542 577 542 546.5 576 c 128,-1,8
 516 610 516 610 472 610 c 0,9,10
 429 610 429 610 396.5 577 c 128,-1,11
 364 544 364 544 364 491 c 0,0,1
43 733 m 1,12,-1
 209 886 l 1,13,-1
 348 741 l 1,14,15
 397 784 397 784 481 784 c 0,16,17
 549 784 549 784 592 752 c 1,18,-1
 733 891 l 1,19,-1
 898 732 l 1,20,-1
 749 595 l 1,21,22
 773 552 773 552 773 488 c 0,23,24
 773 420 773 420 744 372 c 1,25,-1
 903 221 l 1,26,-1
 727 71 l 1,27,-1
 582 226 l 1,28,29
 521 190 521 190 462 190 c 0,30,31
 410 190 410 190 363 218 c 1,32,-1
 217 54 l 1,33,-1
 52 212 l 1,34,-1
 207 362 l 1,35,36
 172 412 172 412 172 484 c 0,37,38
 172 544 172 544 199 589 c 1,39,-1
 43 733 l 1,12,-1
EndSplineSet
Colour: ffffff
EndChar

StartChar: d
Encoding: 68 100 88
Width: 1018
VWidth: 0
Flags: MW
LayerCount: 3
Back
SplineSet
182 219 m 0,0,1
 182 279 182 279 206 330.5 c 0
 230 382 230 382 282 426 c 0
 334 470 334 470 425 499.5 c 0
 516 529 516 529 640 539 c 1,2,-1
 640 643 l 2,3,4
 640 675 640 675 618.5 698 c 0
 597 721 597 721 565 721 c 0,5,6
 524 721 524 721 479.5 672 c 0
 435 623 435 623 409 556 c 1,7,8
 322.021 564.543 322.021 564.543 272.244 609.514 c 0
 222.468 654.485 222.468 654.485 222.468 713.104 c 0,9,10
 222.468 764.309 222.468 764.309 246.562 805.229 c 0
 270.656 846.148 270.656 846.148 310.488 872.479 c 0
 350.319 898.81 350.319 898.81 404.991 916.334 c 0
 459.662 933.857 459.662 933.857 517.425 941.187 c 0
 575.188 948.516 575.188 948.516 638.536 948.516 c 0,11,12
 709.064 948.516 709.064 948.516 762.984 933.428 c 0
 816.904 918.34 816.904 918.34 859.84 884.157 c 0
 902.776 849.973 902.776 849.973 925.388 788.753 c 0
 948 727.533 948 727.533 948 641 c 2,13,-1
 948 374 l 2,14,15
 948 288 948 288 971 251.5 c 0
 994 215 994 215 1046 200 c 2,16,-1
 1074 192 l 1,17,-1
 1049 34 l 1,18,19
 952 -24 952 -24 863 -24 c 0,20,21
 781 -24 781 -24 732 19 c 0
 683 62 683 62 678 136 c 2,22,-1
 677 149 l 1,23,-1
 663 149 l 1,24,25
 651.503 87.9856 651.503 87.9856 578.849 33.4645 c 0
 506.195 -21.0566 506.195 -21.0566 420.012 -21.0566 c 0,26,27
 307.79 -21.0566 307.79 -21.0566 244.895 42.1718 c 0
 182 105.4 182 105.4 182 219 c 0,0,1
478 300 m 0,28,29
 478 268 478 268 499.5 246.5 c 0
 521 225 521 225 558 225 c 0,30,31
 599 225 599 225 640 254 c 1,32,-1
 640 423 l 1,33,34
 551 413 551 413 514.5 382 c 0
 478 351 478 351 478 300 c 0,28,29
EndSplineSet
Fore
SplineSet
346 469 m 0,0,1
 346 332 346 332 379.5 269 c 128,-1,2
 413 206 413 206 485 206 c 0,3,4
 527 206 527 206 581 233 c 1,5,-1
 581 669 l 1,6,7
 554 686 554 686 537 692.5 c 128,-1,8
 520 699 520 699 495 699 c 0,9,10
 428 699 428 699 387 627 c 128,-1,11
 346 555 346 555 346 469 c 0,0,1
890 374 m 2,12,13
 890 288 890 288 913 251.5 c 128,-1,14
 936 215 936 215 988 200 c 2,15,-1
 1016 192 l 1,16,-1
 991 34 l 1,17,18
 894 -24 894 -24 805 -24 c 0,19,20
 723 -24 723 -24 674 14.5 c 128,-1,21
 625 53 625 53 620 118 c 2,22,-1
 619 131 l 1,23,-1
 605 131 l 1,24,25
 581 59 581 59 513.5 20 c 128,-1,26
 446 -19 446 -19 342 -19 c 0,27,28
 241 -19 241 -19 168.5 41.5 c 128,-1,29
 96 102 96 102 62.5 196.5 c 128,-1,30
 29 291 29 291 29 407 c 0,31,32
 29 486 29 486 45.5 563 c 128,-1,33
 62 640 62 640 97 710 c 128,-1,34
 132 780 132 780 181.5 832.5 c 128,-1,35
 231 885 231 885 302.5 916.5 c 128,-1,36
 374 948 374 948 459 948 c 0,37,38
 573 948 573 948 624 864 c 1,39,-1
 628 864 l 1,40,-1
 618 946 l 1,41,-1
 618 1052 l 1,42,-1
 477 1133 l 1,43,-1
 506 1277 l 1,44,-1
 847 1304 l 1,45,-1
 887 1259 l 1,46,-1
 890 374 l 2,12,13
EndSplineSet
Substitution2: "Neuton-Regular-'smcp' Lowercase to Small Capitals in Latin lookup 0 subtable" d.sc
Colour: ffffff
EndChar

StartChar: dagger
Encoding: 203 8224 89
Width: 903
VWidth: 0
Flags: MW
LayerCount: 3
Fore
SplineSet
47 666 m 1,0,-1
 54 860 l 1,1,-1
 349 853 l 1,2,-1
 345 1255 l 1,3,-1
 557 1244 l 1,4,-1
 550 853 l 1,5,-1
 856 860 l 1,6,-1
 847 657 l 1,7,-1
 550 667 l 1,8,-1
 563 -362 l 1,9,-1
 339 -351 l 1,10,-1
 349 671 l 1,11,-1
 47 666 l 1,0,-1
EndSplineSet
Colour: ffffff
EndChar

StartChar: daggerdbl
Encoding: 204 8225 90
Width: 908
VWidth: 0
Flags: MW
LayerCount: 3
Fore
SplineSet
55 666 m 1,0,-1
 59 862 l 1,1,-1
 353 856 l 1,2,-1
 345 1255 l 1,3,-1
 559 1244 l 1,4,-1
 544 856 l 1,5,-1
 848 862 l 1,6,-1
 843 660 l 1,7,-1
 544 669 l 1,8,-1
 533 430 l 1,9,-1
 537 212 l 1,10,-1
 855 217 l 1,11,-1
 848 19 l 1,12,-1
 537 26 l 1,13,-1
 551 -362 l 1,14,-1
 336 -351 l 1,15,-1
 346 26 l 1,16,-1
 56 19 l 1,17,-1
 67 224 l 1,18,-1
 346 210 l 1,19,-1
 356 497 l 1,20,-1
 353 674 l 1,21,-1
 55 666 l 1,0,-1
EndSplineSet
Colour: ffffff
EndChar

StartChar: degree
Encoding: 111 176 91
Width: 505
VWidth: 0
Flags: MW
LayerCount: 3
Fore
SplineSet
186 1129 m 0,0,1
 186 1023 186 1023 252 1023 c 0,2,3
 278 1023 278 1023 292.5 1046 c 128,-1,4
 307 1069 307 1069 307 1105 c 0,5,6
 307 1149 307 1149 290 1179 c 128,-1,7
 273 1209 273 1209 242 1209 c 0,8,9
 216 1209 216 1209 201 1186 c 128,-1,10
 186 1163 186 1163 186 1129 c 0,0,1
55 1107 m 0,11,12
 55 1185 55 1185 116 1244.5 c 128,-1,13
 177 1304 177 1304 258 1304 c 0,14,15
 345 1304 345 1304 397 1256.5 c 128,-1,16
 449 1209 449 1209 449 1128 c 0,17,18
 449 1044 449 1044 383 986 c 128,-1,19
 317 928 317 928 234 928 c 0,20,21
 155 928 155 928 105 975 c 128,-1,22
 55 1022 55 1022 55 1107 c 0,11,12
EndSplineSet
Colour: ffffff
EndChar

StartChar: dieresis
Encoding: 103 168 92
Width: 744
VWidth: 0
Flags: MW
LayerCount: 3
Back
SplineSet
0 1464 m 4,0,1
 0 1492 0 1492 54 1516.5 c 0
 108 1541 108 1541 146 1541 c 0,2,3
 190 1541 190 1541 239 1515.5 c 0
 288 1490 288 1490 288 1464 c 0,4,5
 288 1435 288 1435 235.5 1409 c 0
 183 1383 183 1383 143 1383 c 0,6,7
 102 1383 102 1383 51 1407.5 c 0
 0 1432 0 1432 0 1464 c 4,0,1
269 1464 m 4,8,9
 269 1492 269 1492 321.5 1516.5 c 0
 374 1541 374 1541 412 1541 c 0,10,11
 457 1541 457 1541 507.5 1515.5 c 0
 558 1490 558 1490 558 1464 c 0,12,13
 558 1435 558 1435 504.5 1409 c 0
 451 1383 451 1383 411 1383 c 0,14,15
 370 1383 370 1383 319.5 1407.5 c 0
 269 1432 269 1432 269 1464 c 4,8,9
EndSplineSet
Fore
SplineSet
425 1465 m 0,0,1
 425 1484 425 1484 431.5 1501.5 c 128,-1,2
 438 1519 438 1519 453 1535.5 c 128,-1,3
 468 1552 468 1552 496 1562 c 128,-1,4
 524 1572 524 1572 563 1572 c 0,5,6
 604 1572 604 1572 633 1562 c 128,-1,7
 662 1552 662 1552 677.5 1536 c 128,-1,8
 693 1520 693 1520 699.5 1503 c 128,-1,9
 706 1486 706 1486 706 1467 c 0,10,11
 706 1358 706 1358 562 1358 c 0,12,13
 425 1358 425 1358 425 1465 c 0,0,1
116 1465 m 0,14,15
 116 1484 116 1484 122.5 1501.5 c 128,-1,16
 129 1519 129 1519 144 1535.5 c 128,-1,17
 159 1552 159 1552 187 1562 c 128,-1,18
 215 1572 215 1572 254 1572 c 0,19,20
 295 1572 295 1572 324 1562 c 128,-1,21
 353 1552 353 1552 368.5 1536 c 128,-1,22
 384 1520 384 1520 390.5 1503 c 128,-1,23
 397 1486 397 1486 397 1467 c 0,24,25
 397 1358 397 1358 253 1358 c 0,26,27
 116 1358 116 1358 116 1465 c 0,14,15
EndSplineSet
Colour: ffffff
EndChar

StartChar: divide
Encoding: 182 247 93
Width: 910
VWidth: 0
Flags: MW
LayerCount: 3
Fore
SplineSet
236 781 m 0,0,1
 236 841 236 841 285.5 887.5 c 128,-1,2
 335 934 335 934 445 934 c 0,3,4
 562 934 562 934 612.5 888.5 c 128,-1,5
 663 843 663 843 663 784 c 0,6,7
 663 628 663 628 444 628 c 0,8,9
 236 628 236 628 236 781 c 0,0,1
236 218 m 0,10,11
 236 278 236 278 285.5 324.5 c 128,-1,12
 335 371 335 371 445 371 c 0,13,14
 562 371 562 371 612.5 325.5 c 128,-1,15
 663 280 663 280 663 221 c 0,16,17
 663 65 663 65 444 65 c 0,18,19
 236 65 236 65 236 218 c 0,10,11
45 411 m 1,20,-1
 57 597 l 1,21,-1
 868 597 l 1,22,-1
 859 411 l 1,23,-1
 45 411 l 1,20,-1
EndSplineSet
Colour: ffffff
EndChar

StartChar: dollar
Encoding: 4 36 94
Width: 1030
VWidth: 0
Flags: MW
LayerCount: 3
Fore
SplineSet
46 136 m 1,0,-1
 80 468 l 1,1,-1
 257 439 l 1,2,-1
 319 212 l 1,3,4
 357 163 357 163 428 145 c 1,5,6
 452 455 l 1,7,8
 290 538 290 538 221 592 c 0,9,10
 72 709 72 709 72 862 c 0,11,12
 72 951 72 951 102 1022.5 c 128,-1,13
 132 1094 132 1094 186.5 1141.5 c 128,-1,14
 241 1189 241 1189 311 1218.5 c 128,-1,15
 381 1248 381 1248 465 1259 c 1,16,-1
 455 1390 l 1,17,-1
 743 1425 l 1,18,-1
 702 1253 l 1,19,20
 800 1233 800 1233 898 1187 c 1,21,-1
 870 835 l 1,22,-1
 697 865 l 1,23,-1
 658 1068 l 1,24,25
 643 1080 643 1080 603 1090 c 1,26,-1
 581 811 l 1,27,28
 599 801 599 801 634 783 c 128,-1,29
 669 765 669 765 690 754 c 128,-1,30
 711 743 711 743 744 724 c 128,-1,31
 777 705 777 705 798.5 690.5 c 128,-1,32
 820 676 820 676 847.5 655 c 128,-1,33
 875 634 875 634 893 614.5 c 128,-1,34
 911 595 911 595 930 569.5 c 128,-1,35
 949 544 949 544 960 518.5 c 128,-1,36
 971 493 971 493 978 462 c 128,-1,37
 985 431 985 431 985 397 c 0,38,39
 985 325 985 325 961 263 c 128,-1,40
 937 201 937 201 898 157.5 c 128,-1,41
 859 114 859 114 806.5 79.5 c 128,-1,42
 754 45 754 45 700.5 24.5 c 128,-1,43
 647 4 647 4 589 -9 c 1,44,-1
 591 -158 l 1,45,-1
 305 -183 l 1,46,-1
 338 -9 l 1,47,48
 246 11 246 11 163.5 51.5 c 128,-1,49
 81 92 81 92 46 136 c 1,0,-1
499 859 m 1,50,-1
 519 1104 l 1,51,52
 506 1105 506 1105 497 1105 c 0,53,54
 453 1105 453 1105 424 1081 c 128,-1,55
 395 1057 395 1057 395 1007 c 0,56,57
 395 929 395 929 499 859 c 1,50,-1
534 412 m 1,58,-1
 513 139 l 1,59,60
 575 146 575 146 615 184 c 128,-1,61
 655 222 655 222 655 288 c 0,62,63
 655 320 655 320 624 349.5 c 128,-1,64
 593 379 593 379 534 412 c 1,58,-1
EndSplineSet
Substitution2: "Neuton-Regular-'onum' Oldstyle Figures lookup 1-1" dollar.osf
Colour: ffffff
EndChar

StartChar: dotaccent
Encoding: 192 729 95
Width: 579
VWidth: 0
Flags: MW
LayerCount: 3
Fore
SplineSet
76 1473 m 0,0,1
 76 1533 76 1533 125.5 1579.5 c 128,-1,2
 175 1626 175 1626 285 1626 c 0,3,4
 402 1626 402 1626 452.5 1580.5 c 128,-1,5
 503 1535 503 1535 503 1476 c 0,6,7
 503 1320 503 1320 284 1320 c 0,8,9
 76 1320 76 1320 76 1473 c 0,0,1
EndSplineSet
Colour: ffffff
EndChar

StartChar: e
Encoding: 69 101 96
Width: 839
VWidth: 0
Flags: MW
LayerCount: 3
Fore
SplineSet
352 498 m 1,0,-1
 487 521 l 1,1,2
 496 620 496 620 478 682.5 c 128,-1,3
 460 745 460 745 417 745 c 128,-1,4
 374 745 374 745 357 687 c 128,-1,5
 340 629 340 629 352 498 c 1,0,-1
29 430 m 0,6,7
 29 658 29 658 158.5 804 c 128,-1,8
 288 950 288 950 490 950 c 0,9,10
 636 950 636 950 716 847.5 c 128,-1,11
 796 745 796 745 796 580 c 0,12,13
 796 556 796 556 788 483 c 128,-1,14
 780 410 780 410 775 381 c 1,15,-1
 357 367 l 1,16,17
 359 303 359 303 398 271 c 128,-1,18
 437 239 437 239 517 239 c 0,19,20
 569 239 569 239 628.5 260 c 128,-1,21
 688 281 688 281 725 315 c 1,22,-1
 824 192 l 1,23,24
 794 143 794 143 766 109 c 128,-1,25
 738 75 738 75 693.5 40 c 128,-1,26
 649 5 649 5 587 -13 c 128,-1,27
 525 -31 525 -31 447 -31 c 0,28,29
 257 -31 257 -31 143 88 c 128,-1,30
 29 207 29 207 29 430 c 0,6,7
EndSplineSet
Substitution2: "Neuton-Regular-'smcp' Lowercase to Small Capitals in Latin lookup 0 subtable" e.sc
Colour: ffffff
EndChar

StartChar: eacute
Encoding: 168 233 97
Width: 839
VWidth: 0
Flags: MW
LayerCount: 3
Fore
SplineSet
330 1003 m 1,0,-1
 475 1308 l 1,1,-1
 825 1298 l 1,2,-1
 564 977 l 1,3,-1
 330 1003 l 1,0,-1
352 498 m 1,4,-1
 487 521 l 1,5,6
 496 620 496 620 478 682.5 c 128,-1,7
 460 745 460 745 417 745 c 128,-1,8
 374 745 374 745 357 687 c 128,-1,9
 340 629 340 629 352 498 c 1,4,-1
29 430 m 0,10,11
 29 658 29 658 158.5 804 c 128,-1,12
 288 950 288 950 490 950 c 0,13,14
 636 950 636 950 716 847.5 c 128,-1,15
 796 745 796 745 796 580 c 0,16,17
 796 556 796 556 788 483 c 128,-1,18
 780 410 780 410 775 381 c 1,19,-1
 357 367 l 1,20,21
 359 303 359 303 398 271 c 128,-1,22
 437 239 437 239 517 239 c 0,23,24
 569 239 569 239 628.5 260 c 128,-1,25
 688 281 688 281 725 315 c 1,26,-1
 824 192 l 1,27,28
 794 143 794 143 766 109 c 128,-1,29
 738 75 738 75 693.5 40 c 128,-1,30
 649 5 649 5 587 -13 c 128,-1,31
 525 -31 525 -31 447 -31 c 0,32,33
 257 -31 257 -31 143 88 c 128,-1,34
 29 207 29 207 29 430 c 0,10,11
EndSplineSet
Substitution2: "Neuton-Regular-'smcp' Lowercase to Small Capitals in Latin lookup 0 subtable" eacute.sc
Colour: ffffff
EndChar

StartChar: ecircumflex
Encoding: 169 234 98
Width: 839
VWidth: 0
Flags: MW
LayerCount: 3
Fore
SplineSet
173 1014 m 1,0,-1
 326 1269 l 1,1,-1
 651 1269 l 1,2,-1
 805 1014 l 1,3,-1
 552 1005 l 1,4,-1
 488 1126 l 1,5,-1
 474 1126 l 1,6,-1
 406 1004 l 1,7,-1
 173 1014 l 1,0,-1
352 498 m 1,8,-1
 487 521 l 1,9,10
 496 620 496 620 478 682.5 c 128,-1,11
 460 745 460 745 417 745 c 128,-1,12
 374 745 374 745 357 687 c 128,-1,13
 340 629 340 629 352 498 c 1,8,-1
29 430 m 0,14,15
 29 658 29 658 158.5 804 c 128,-1,16
 288 950 288 950 490 950 c 0,17,18
 636 950 636 950 716 847.5 c 128,-1,19
 796 745 796 745 796 580 c 0,20,21
 796 556 796 556 788 483 c 128,-1,22
 780 410 780 410 775 381 c 1,23,-1
 357 367 l 1,24,25
 359 303 359 303 398 271 c 128,-1,26
 437 239 437 239 517 239 c 0,27,28
 569 239 569 239 628.5 260 c 128,-1,29
 688 281 688 281 725 315 c 1,30,-1
 824 192 l 1,31,32
 794 143 794 143 766 109 c 128,-1,33
 738 75 738 75 693.5 40 c 128,-1,34
 649 5 649 5 587 -13 c 128,-1,35
 525 -31 525 -31 447 -31 c 0,36,37
 257 -31 257 -31 143 88 c 128,-1,38
 29 207 29 207 29 430 c 0,14,15
EndSplineSet
Substitution2: "Neuton-Regular-'smcp' Lowercase to Small Capitals in Latin lookup 0 subtable" ecircumflex.sc
Colour: ffffff
EndChar

StartChar: edieresis
Encoding: 170 235 99
Width: 839
VWidth: 0
Flags: MW
LayerCount: 3
Fore
SplineSet
489 1108 m 0,0,1
 489 1127 489 1127 495.5 1144.5 c 128,-1,2
 502 1162 502 1162 517 1178.5 c 128,-1,3
 532 1195 532 1195 560 1205 c 128,-1,4
 588 1215 588 1215 627 1215 c 0,5,6
 668 1215 668 1215 697 1205 c 128,-1,7
 726 1195 726 1195 741.5 1179 c 128,-1,8
 757 1163 757 1163 763.5 1146 c 128,-1,9
 770 1129 770 1129 770 1110 c 0,10,11
 770 1001 770 1001 626 1001 c 0,12,13
 489 1001 489 1001 489 1108 c 0,0,1
180 1108 m 0,14,15
 180 1127 180 1127 186.5 1144.5 c 128,-1,16
 193 1162 193 1162 208 1178.5 c 128,-1,17
 223 1195 223 1195 251 1205 c 128,-1,18
 279 1215 279 1215 318 1215 c 0,19,20
 359 1215 359 1215 388 1205 c 128,-1,21
 417 1195 417 1195 432.5 1179 c 128,-1,22
 448 1163 448 1163 454.5 1146 c 128,-1,23
 461 1129 461 1129 461 1110 c 0,24,25
 461 1001 461 1001 317 1001 c 0,26,27
 180 1001 180 1001 180 1108 c 0,14,15
352 498 m 1,28,-1
 487 521 l 1,29,30
 496 620 496 620 478 682.5 c 128,-1,31
 460 745 460 745 417 745 c 128,-1,32
 374 745 374 745 357 687 c 128,-1,33
 340 629 340 629 352 498 c 1,28,-1
29 430 m 0,34,35
 29 658 29 658 158.5 804 c 128,-1,36
 288 950 288 950 490 950 c 0,37,38
 636 950 636 950 716 847.5 c 128,-1,39
 796 745 796 745 796 580 c 0,40,41
 796 556 796 556 788 483 c 128,-1,42
 780 410 780 410 775 381 c 1,43,-1
 357 367 l 1,44,45
 359 303 359 303 398 271 c 128,-1,46
 437 239 437 239 517 239 c 0,47,48
 569 239 569 239 628.5 260 c 128,-1,49
 688 281 688 281 725 315 c 1,50,-1
 824 192 l 1,51,52
 794 143 794 143 766 109 c 128,-1,53
 738 75 738 75 693.5 40 c 128,-1,54
 649 5 649 5 587 -13 c 128,-1,55
 525 -31 525 -31 447 -31 c 0,56,57
 257 -31 257 -31 143 88 c 128,-1,58
 29 207 29 207 29 430 c 0,34,35
EndSplineSet
Substitution2: "Neuton-Regular-'smcp' Lowercase to Small Capitals in Latin lookup 0 subtable" edieresis.sc
Colour: ffffff
EndChar

StartChar: egrave
Encoding: 167 232 100
Width: 839
VWidth: 0
Flags: MW
LayerCount: 3
Fore
SplineSet
598 1003 m 1,0,-1
 364 977 l 1,1,-1
 103 1298 l 1,2,-1
 453 1308 l 1,3,-1
 598 1003 l 1,0,-1
352 498 m 1,4,-1
 487 521 l 1,5,6
 496 620 496 620 478 682.5 c 128,-1,7
 460 745 460 745 417 745 c 128,-1,8
 374 745 374 745 357 687 c 128,-1,9
 340 629 340 629 352 498 c 1,4,-1
29 430 m 0,10,11
 29 658 29 658 158.5 804 c 128,-1,12
 288 950 288 950 490 950 c 0,13,14
 636 950 636 950 716 847.5 c 128,-1,15
 796 745 796 745 796 580 c 0,16,17
 796 556 796 556 788 483 c 128,-1,18
 780 410 780 410 775 381 c 1,19,-1
 357 367 l 1,20,21
 359 303 359 303 398 271 c 128,-1,22
 437 239 437 239 517 239 c 0,23,24
 569 239 569 239 628.5 260 c 128,-1,25
 688 281 688 281 725 315 c 1,26,-1
 824 192 l 1,27,28
 794 143 794 143 766 109 c 128,-1,29
 738 75 738 75 693.5 40 c 128,-1,30
 649 5 649 5 587 -13 c 128,-1,31
 525 -31 525 -31 447 -31 c 0,32,33
 257 -31 257 -31 143 88 c 128,-1,34
 29 207 29 207 29 430 c 0,10,11
EndSplineSet
Substitution2: "Neuton-Regular-'smcp' Lowercase to Small Capitals in Latin lookup 0 subtable" egrave.sc
Colour: ffffff
EndChar

StartChar: eight
Encoding: 24 56 101
Width: 1043
VWidth: 0
Flags: MW
LayerCount: 3
Fore
SplineSet
448 986 m 0,0,1
 448 938 448 938 489 874.5 c 128,-1,2
 530 811 530 811 598 769 c 1,3,4
 637 795 637 795 637 874 c 0,5,6
 637 961 637 961 597.5 1012 c 128,-1,7
 558 1063 558 1063 511 1063 c 0,8,9
 483 1063 483 1063 465.5 1043 c 128,-1,10
 448 1023 448 1023 448 986 c 0,0,1
390 347 m 0,11,12
 390 247 390 247 434 181 c 128,-1,13
 478 115 478 115 566 115 c 0,14,15
 607 115 607 115 635.5 139.5 c 128,-1,16
 664 164 664 164 664 193 c 0,17,18
 664 216 664 216 653 237 c 128,-1,19
 642 258 642 258 615.5 282.5 c 128,-1,20
 589 307 589 307 562.5 328 c 128,-1,21
 536 349 536 349 488.5 386 c 128,-1,22
 441 423 441 423 404 454 c 1,23,24
 396 441 396 441 392.5 427 c 128,-1,25
 389 413 389 413 388.5 404 c 128,-1,26
 388 395 388 395 389 375.5 c 128,-1,27
 390 356 390 356 390 347 c 0,11,12
48 270 m 0,28,29
 48 471 48 471 262 558 c 1,30,-1
 262 573 l 1,31,32
 93 708 93 708 93 863 c 0,33,34
 93 928 93 928 121 987 c 128,-1,35
 149 1046 149 1046 203.5 1094 c 128,-1,36
 258 1142 258 1142 348 1170.5 c 128,-1,37
 438 1199 438 1199 553 1199 c 0,38,39
 725 1199 725 1199 830.5 1117 c 128,-1,40
 936 1035 936 1035 936 925 c 0,41,42
 936 856 936 856 884 789.5 c 128,-1,43
 832 723 832 723 743 681 c 1,44,-1
 744 665 l 1,45,46
 879 577 879 577 938 498.5 c 128,-1,47
 997 420 997 420 997 331 c 0,48,49
 997 184 997 184 852.5 78.5 c 128,-1,50
 708 -27 708 -27 485 -27 c 0,51,52
 375 -27 375 -27 289 -2 c 128,-1,53
 203 23 203 23 151.5 65.5 c 128,-1,54
 100 108 100 108 74 160 c 128,-1,55
 48 212 48 212 48 270 c 0,28,29
EndSplineSet
Substitution2: "Neuton-Regular-'onum' Oldstyle Figures lookup 1-1" eight.osf
Colour: ffffff
EndChar

StartChar: eight.osf
Encoding: 208 -1 102
Width: 1053
VWidth: 0
Flags: MW
LayerCount: 3
Fore
SplineSet
458 986 m 0,0,1
 458 938 458 938 499 874.5 c 128,-1,2
 540 811 540 811 608 769 c 1,3,4
 647 795 647 795 647 874 c 0,5,6
 647 961 647 961 607.5 1012 c 128,-1,7
 568 1063 568 1063 521 1063 c 0,8,9
 493 1063 493 1063 475.5 1043 c 128,-1,10
 458 1023 458 1023 458 986 c 0,0,1
400 347 m 0,11,12
 400 247 400 247 444 181 c 128,-1,13
 488 115 488 115 576 115 c 0,14,15
 617 115 617 115 645.5 139.5 c 128,-1,16
 674 164 674 164 674 193 c 0,17,18
 674 216 674 216 663 237 c 128,-1,19
 652 258 652 258 625.5 282.5 c 128,-1,20
 599 307 599 307 572.5 328 c 128,-1,21
 546 349 546 349 498.5 386 c 128,-1,22
 451 423 451 423 414 454 c 1,23,24
 406 441 406 441 402.5 427 c 128,-1,25
 399 413 399 413 398.5 404 c 128,-1,26
 398 395 398 395 399 375.5 c 128,-1,27
 400 356 400 356 400 347 c 0,11,12
48 270 m 0,28,29
 48 364 48 364 103.5 438 c 128,-1,30
 159 512 159 512 272 558 c 1,31,-1
 272 573 l 1,32,33
 103 708 103 708 103 863 c 0,34,35
 103 928 103 928 131 987 c 128,-1,36
 159 1046 159 1046 213.5 1094 c 128,-1,37
 268 1142 268 1142 358 1170.5 c 128,-1,38
 448 1199 448 1199 563 1199 c 0,39,40
 735 1199 735 1199 840.5 1117 c 128,-1,41
 946 1035 946 1035 946 925 c 0,42,43
 946 856 946 856 894 789.5 c 128,-1,44
 842 723 842 723 753 681 c 1,45,-1
 754 665 l 1,46,47
 889 577 889 577 948 498.5 c 128,-1,48
 1007 420 1007 420 1007 331 c 0,49,50
 1007 184 1007 184 862.5 78.5 c 128,-1,51
 718 -27 718 -27 495 -27 c 0,52,53
 280 -27 280 -27 164 60.5 c 128,-1,54
 48 148 48 148 48 270 c 0,28,29
EndSplineSet
Colour: ffffff
EndChar

StartChar: emdash
Encoding: 197 8212 103
Width: 1513
VWidth: 0
Flags: MW
LayerCount: 3
Fore
SplineSet
61 367 m 1,0,-1
 82 554 l 1,1,-1
 1452 562 l 1,2,-1
 1426 372 l 1,3,-1
 61 367 l 1,0,-1
EndSplineSet
Colour: ffffff
EndChar

StartChar: endash
Encoding: 196 8211 104
Width: 880
VWidth: 0
Flags: MW
LayerCount: 3
Fore
SplineSet
61 367 m 1,0,-1
 84 554 l 1,1,-1
 819 562 l 1,2,-1
 790 372 l 1,3,-1
 61 367 l 1,0,-1
EndSplineSet
Colour: ffffff
EndChar

StartChar: equal
Encoding: 29 61 105
Width: 768
VWidth: 0
Flags: MW
LayerCount: 3
Fore
SplineSet
68 276 m 1,0,-1
 79 464 l 1,1,-1
 704 464 l 1,2,-1
 691 276 l 1,3,-1
 68 276 l 1,0,-1
65 557 m 1,4,-1
 76 745 l 1,5,-1
 701 745 l 1,6,-1
 688 557 l 1,7,-1
 65 557 l 1,4,-1
EndSplineSet
Colour: ffffff
EndChar

StartChar: eth
Encoding: 175 240 106
Width: 1034
VWidth: 0
Flags: MW
LayerCount: 3
Back
SplineSet
0 451 m 0,0,1
 0 556 0 556 50 651.5 c 0
 100 747 100 747 177 810 c 0
 254 873 254 873 343.5 910 c 0
 433 947 433 947 514 947 c 1,2,3
 459.279 947 459.279 947 452.864 982.707 c 0
 448.362 1007.76 448.362 1007.76 466.722 1023.45 c 0
 487.347 1041.07 487.347 1041.07 502.386 1011.72 c 0
 503.756 1009.05 503.756 1009.05 505 1006 c 1,4,-1
 510 1012 l 1,5,6
 508 999 508 999 503 993 c 0
 498 987 498 987 493 992.5 c 0
 488 998 488 998 487 1015 c 1,7,-1
 336 997 l 1,8,-1
 345 1119 l 1,9,-1
 441 1136 l 1,10,11
 419 1220 419 1220 326 1302 c 1,12,-1
 542 1302 l 1,13,14
 538.043 1306.22 538.043 1306.22 540.79 1305.8 c 0
 556.414 1303.43 556.414 1303.43 614.456 1251.41 c 0
 641.357 1227.31 641.357 1227.31 668 1199 c 1,15,-1
 795 1219 l 1,16,-1
 784 1090 l 1,17,-1
 754 1084 l 1,18,19
 944 812 944 812 944 464 c 0,20,21
 944 354 944 354 900.5 259 c 0
 857 164 857 164 787.5 103 c 0
 718 42 718 42 635 7.5 c 0
 552 -27 552 -27 471 -27 c 0,22,23
 370 -27 370 -27 289.5 -0.5 c 0
 209 26 209 26 155.5 71 c 0
 102 116 102 116 66.5 178 c 0
 31 240 31 240 15.5 307.5 c 0
 0 375 0 375 0 451 c 0,0,1
334 497 m 1,24,25
 338 421 338 421 347 363 c 0
 356 305 356 305 373.5 255.5 c 0
 391 206 391 206 421 179.5 c 0
 451 153 451 153 492 153 c 0,26,27
 516 153 516 153 533.5 155.5 c 0
 551 158 551 158 565 160.5 c 0
 579 163 579 163 589 171.5 c 0
 599 180 599 180 606 186 c 0
 613 192 613 192 617 208.5 c 0
 621 225 621 225 623.5 235 c 0
 626 245 626 245 626.5 270.5 c 0
 627 296 627 296 627 312 c 0
 627 328 627 328 626.5 364 c 0
 626 400 626 400 626 423 c 0,28,29
 626 465 626 465 611.5 544.5 c 0
 597 624 597 624 566.5 701 c 0
 536 778 536 778 501 783 c 1,30,-1
 488 783 l 1,31,32
 428 786 428 786 396.5 765 c 0
 365 744 365 744 349.5 681 c 0
 334 618 334 618 334 497 c 1,24,25
EndSplineSet
Fore
SplineSet
381 497 m 1,0,1
 389 356 389 356 441 254.5 c 128,-1,2
 493 153 493 153 559 153 c 0,3,4
 584 153 584 153 601.5 160 c 128,-1,5
 619 167 619 167 630.5 186 c 128,-1,6
 642 205 642 205 648.5 225 c 128,-1,7
 655 245 655 245 658 285 c 128,-1,8
 661 325 661 325 662 359 c 128,-1,9
 663 393 663 393 663 453 c 0,10,11
 663 581 663 581 607.5 679.5 c 128,-1,12
 552 778 552 778 489 778 c 0,13,14
 442 778 442 778 411.5 709 c 128,-1,15
 381 640 381 640 381 497 c 1,0,1
47 451 m 0,16,17
 47 536 47 536 86.5 626.5 c 128,-1,18
 126 717 126 717 186.5 786.5 c 128,-1,19
 247 856 247 856 322 901 c 128,-1,20
 397 946 397 946 464 946 c 0,21,22
 539 946 539 946 591 887 c 1,23,-1
 595 893 l 1,24,25
 568 977 568 977 539 1046 c 1,26,-1
 337 1006 l 1,27,-1
 345 1132 l 1,28,-1
 483 1163 l 1,29,30
 432 1259 432 1259 383 1302 c 1,31,-1
 639 1302 l 1,32,33
 685 1266 685 1266 729 1219 c 1,34,-1
 893 1256 l 1,35,-1
 881 1114 l 1,36,-1
 819 1102 l 1,37,38
 901 977 901 977 945 827 c 128,-1,39
 989 677 989 677 989 531 c 0,40,41
 989 439 989 439 971.5 357.5 c 128,-1,42
 954 276 954 276 916.5 205 c 128,-1,43
 879 134 879 134 824.5 83 c 128,-1,44
 770 32 770 32 691.5 2.5 c 128,-1,45
 613 -27 613 -27 518 -27 c 0,46,47
 417 -27 417 -27 336.5 -0.5 c 128,-1,48
 256 26 256 26 202.5 71 c 128,-1,49
 149 116 149 116 113.5 178 c 128,-1,50
 78 240 78 240 62.5 307.5 c 128,-1,51
 47 375 47 375 47 451 c 0,16,17
EndSplineSet
Substitution2: "Neuton-Regular-'smcp' Lowercase to Small Capitals in Latin lookup 0 subtable" eth.sc
Colour: ffffff
EndChar

StartChar: exclam
Encoding: 1 33 107
Width: 518
VWidth: 0
Flags: MW
LayerCount: 3
Back
SplineSet
10 1094 m 5,0,-1
 30 1244 l 1,1,-1
 757 1244 l 1,2,-1
 741 1084 l 1,3,-1
 562 1017 l 1,4,-1
 562 223 l 1,5,-1
 742 160 l 1,6,-1
 729 0 l 1,7,-1
 12 0 l 1,8,-1
 22 142 l 1,9,-1
 198 221 l 1,10,-1
 198 1020 l 1,11,-1
 10 1094 l 5,0,-1
EndSplineSet
Fore
SplineSet
66 1194 m 0,0,1
 66 1306 66 1306 272 1306 c 0,2,3
 354 1306 354 1306 390 1286.5 c 128,-1,4
 426 1267 426 1267 426 1215 c 0,5,6
 426 1052 426 1052 402 810.5 c 128,-1,7
 378 569 378 569 347 362 c 1,8,-1
 180 391 l 1,9,10
 144 579 144 579 105 850.5 c 128,-1,11
 66 1122 66 1122 66 1194 c 0,0,1
47 127 m 0,12,13
 47 187 47 187 96.5 233.5 c 128,-1,14
 146 280 146 280 256 280 c 0,15,16
 373 280 373 280 423.5 234.5 c 128,-1,17
 474 189 474 189 474 130 c 0,18,19
 474 -26 474 -26 255 -26 c 0,20,21
 47 -26 47 -26 47 127 c 0,12,13
EndSplineSet
Colour: ffffff
EndChar

StartChar: exclamdown
Encoding: 96 161 108
Width: 521
VWidth: 0
Flags: MW
LayerCount: 3
Fore
SplineSet
407 -294 m 0,0,1
 407 -406 407 -406 201 -406 c 0,2,3
 119 -406 119 -406 83 -386.5 c 128,-1,4
 47 -367 47 -367 47 -315 c 0,5,6
 47 -152 47 -152 71 89.5 c 128,-1,7
 95 331 95 331 126 538 c 1,8,-1
 293 509 l 1,9,10
 329 321 329 321 368 49.5 c 128,-1,11
 407 -222 407 -222 407 -294 c 0,0,1
426 773 m 0,12,13
 426 713 426 713 376.5 666.5 c 128,-1,14
 327 620 327 620 217 620 c 0,15,16
 100 620 100 620 49.5 665.5 c 128,-1,17
 -1 711 -1 711 -1 770 c 0,18,19
 -1 926 -1 926 218 926 c 0,20,21
 426 926 426 926 426 773 c 0,12,13
EndSplineSet
Colour: ffffff
EndChar

StartChar: f
Encoding: 70 102 109
Width: 688
VWidth: 0
Flags: MW
LayerCount: 3
Back
SplineSet
272 730 m 5,0,-1
 5 680 l 1,1,-1
 18 838 l 1,2,-1
 280 813 l 1,3,-1
 693 856 l 1,4,-1
 679 680 l 1,5,-1
 272 730 l 5,0,-1
595 1313 m 4,6,7
 707 1313 707 1313 770.5 1252 c 0
 834 1191 834 1191 834 1105 c 0,8,9
 834 1036 834 1036 773.5 989.5 c 0
 713 943 713 943 651 942 c 1,10,11
 645.945 959.887 645.945 959.887 624.83 988.239 c 0
 603.716 1016.59 603.716 1016.59 574.755 1044.67 c 0
 545.795 1072.75 545.795 1072.75 508.758 1092.9 c 0
 471.722 1113.05 471.722 1113.05 440.053 1113.05 c 0,12,13
 401.484 1113.05 401.484 1113.05 420.594 766 c 2,14,-1
 450 232 l 1,15,-1
 669 175 l 1,16,-1
 646 0 l 1,17,-1
 28 0 l 1,18,-1
 49 143 l 1,19,-1
 154 215 l 1,20,-1
 140.58 439 l 2,21,22
 129.424 625.221 129.424 625.221 149.726 775.806 c 0
 170.029 926.391 170.029 926.391 212.865 1024.82 c 0
 255.701 1123.25 255.701 1123.25 318.036 1189.61 c 0
 380.371 1255.96 380.371 1255.96 449.401 1284.48 c 0
 518.431 1313 518.431 1313 595 1313 c 4,6,7
EndSplineSet
Fore
SplineSet
595 1313 m 0,0,1
 709 1313 709 1313 771.5 1260.5 c 128,-1,2
 834 1208 834 1208 834 1125 c 0,3,4
 834 1040 834 1040 774.5 991.5 c 128,-1,5
 715 943 715 943 651 942 c 1,6,7
 609 1010 609 1010 557.5 1061 c 128,-1,8
 506 1112 506 1112 472 1112 c 0,9,10
 462 1112 462 1112 454 1106 c 128,-1,11
 446 1100 446 1100 440.5 1088 c 128,-1,12
 435 1076 435 1076 431.5 1063 c 128,-1,13
 428 1050 428 1050 426.5 1030 c 128,-1,14
 425 1010 425 1010 424.5 993.5 c 128,-1,15
 424 977 424 977 424.5 952.5 c 128,-1,16
 425 928 425 928 426 912.5 c 128,-1,17
 427 897 427 897 428 871.5 c 128,-1,18
 429 846 429 846 430 835 c 1,19,20
 476 839 476 839 563.5 846 c 128,-1,21
 651 853 651 853 693 856 c 1,22,-1
 679 680 l 1,23,-1
 433 698 l 1,24,-1
 452 230 l 1,25,-1
 669 173 l 1,26,-1
 646 0 l 1,27,-1
 -10 0 l 1,28,-1
 11 143 l 1,29,-1
 126 215 l 1,30,-1
 115 694 l 1,31,32
 54 687 54 687 -12 680 c 1,33,-1
 1 838 l 1,34,-1
 120 831 l 1,35,36
 134 930 134 930 180 1020 c 128,-1,37
 226 1110 226 1110 290 1174 c 128,-1,38
 354 1238 354 1238 434.5 1275.5 c 128,-1,39
 515 1313 515 1313 595 1313 c 0,0,1
EndSplineSet
Substitution2: "Neuton-Regular-'smcp' Lowercase to Small Capitals in Latin lookup 0 subtable" f.sc
Colour: ffffff
EndChar

StartChar: five
Encoding: 21 53 110
Width: 921
VWidth: 0
Flags: MW
LayerCount: 3
Fore
SplineSet
43 7 m 1,0,-1
 120 428 l 1,1,-1
 270 392 l 1,2,-1
 312 117 l 1,3,4
 338 101 338 101 399 101 c 0,5,6
 467 101 467 101 507 138 c 128,-1,7
 547 175 547 175 547 248 c 0,8,9
 547 285 547 285 531.5 322.5 c 128,-1,10
 516 360 516 360 482.5 395.5 c 128,-1,11
 449 431 449 431 401.5 458.5 c 128,-1,12
 354 486 354 486 285.5 502.5 c 128,-1,13
 217 519 217 519 136 519 c 1,14,-1
 259 1166 l 1,15,-1
 808 1198 l 1,16,-1
 765 888 l 1,17,-1
 367 875 l 1,18,-1
 355 770 l 1,19,20
 486 769 486 769 588 736.5 c 128,-1,21
 690 704 690 704 750.5 648.5 c 128,-1,22
 811 593 811 593 841.5 525 c 128,-1,23
 872 457 872 457 872 381 c 0,24,25
 872 281 872 281 824 197.5 c 128,-1,26
 776 114 776 114 698 60.5 c 128,-1,27
 620 7 620 7 523.5 -22.5 c 128,-1,28
 427 -52 427 -52 326 -52 c 0,29,30
 250 -52 250 -52 168 -36.5 c 128,-1,31
 86 -21 86 -21 43 7 c 1,0,-1
EndSplineSet
Substitution2: "Neuton-Regular-'onum' Oldstyle Figures lookup 1-1" five.osf
Colour: ffffff
EndChar

StartChar: five.osf
Encoding: 209 -1 111
Width: 958
VWidth: 0
Flags: MW
LayerCount: 3
Fore
SplineSet
27 -108 m 0,0,1
 27 -26 27 -26 81.5 25.5 c 128,-1,2
 136 77 136 77 231 96 c 1,3,4
 286 -159 286 -159 468 -159 c 0,5,6
 542 -159 542 -159 583.5 -109.5 c 128,-1,7
 625 -60 625 -60 625 5 c 0,8,9
 625 112 625 112 499.5 193 c 128,-1,10
 374 274 374 274 161 292 c 1,11,-1
 321 980 l 1,12,-1
 883 1017 l 1,13,-1
 842 700 l 1,14,-1
 385 697 l 1,15,-1
 367 568 l 1,16,17
 501 554 501 554 606.5 513 c 128,-1,18
 712 472 712 472 776.5 413 c 128,-1,19
 841 354 841 354 874.5 284 c 128,-1,20
 908 214 908 214 908 138 c 0,21,22
 908 51 908 51 874.5 -28 c 128,-1,23
 841 -107 841 -107 777 -170 c 128,-1,24
 713 -233 713 -233 610 -270.5 c 128,-1,25
 507 -308 507 -308 379 -308 c 0,26,27
 230 -308 230 -308 128.5 -248.5 c 128,-1,28
 27 -189 27 -189 27 -108 c 0,0,1
EndSplineSet
Colour: ffffff
EndChar

StartChar: four
Encoding: 20 52 112
Width: 1210
VWidth: 0
Flags: MW
LayerCount: 3
Fore
SplineSet
362 514 m 1,0,-1
 578 514 l 1,1,-1
 578 817 l 1,2,-1
 362 514 l 1,0,-1
47 464 m 1,3,-1
 793 1243 l 1,4,-1
 919 1210 l 1,5,6
 907 970 907 970 907 682 c 2,7,-1
 907 514 l 1,8,-1
 1162 514 l 1,9,-1
 1146 316 l 1,10,-1
 907 316 l 1,11,-1
 907 183 l 1,12,-1
 1129 126 l 1,13,-1
 1121 -2 l 1,14,-1
 327 -2 l 1,15,-1
 331 107 l 1,16,-1
 579 182 l 1,17,-1
 579 319 l 1,18,-1
 72 319 l 1,19,-1
 47 464 l 1,3,-1
EndSplineSet
Substitution2: "Neuton-Regular-'onum' Oldstyle Figures lookup 1-1" four.osf
Colour: ffffff
EndChar

StartChar: four.osf
Encoding: 210 -1 113
Width: 1187
VWidth: 0
Flags: MW
LayerCount: 3
Fore
SplineSet
328 185 m 1,0,-1
 556 185 l 1,1,-1
 556 567 l 1,2,-1
 328 185 l 1,0,-1
45 181 m 1,3,-1
 743 1022 l 1,4,-1
 899 988 l 1,5,6
 890 808 890 808 890 346 c 2,7,-1
 890 185 l 1,8,-1
 1142 185 l 1,9,-1
 1122 8 l 1,10,-1
 895 8 l 1,11,-1
 895 -279 l 1,12,-1
 552 -324 l 1,13,-1
 552 13 l 1,14,-1
 84 13 l 1,15,-1
 45 181 l 1,3,-1
EndSplineSet
Colour: ffffff
EndChar

StartChar: g
Encoding: 71 103 114
Width: 914
VWidth: 0
Flags: MW
LayerCount: 3
Back
SplineSet
0 -149 m 0,0,1
 0 -105 0 -105 43 -58 c 0
 86 -11 86 -11 158 5 c 1,2,-1
 158 22 l 1,3,4
 64 68 64 68 64 154 c 0,5,6
 64 220 64 220 120.5 278.5 c 0
 177 337 177 337 263 352 c 1,7,-1
 260 370 l 1,8,9
 177 413 177 413 135 480 c 0
 93 547 93 547 93 623 c 0,10,11
 93 750 93 750 197.5 847 c 0
 302 944 302 944 472 944 c 0,12,13
 639 944 639 944 751 881 c 1,14,-1
 987 913 l 1,15,-1
 1017 879 l 1,16,-1
 972 686 l 1,17,-1
 938 682 l 1,18,-1
 848 710 l 1,19,-1
 843 705 l 1,20,21
 846 679 846 679 846 655 c 0,22,23
 846 554 846 554 795 479.5 c 0
 744 405 744 405 662 369 c 0
 580 333 580 333 480 333 c 0,24,25
 451 333 451 333 416 338 c 1,26,27
 398 289 398 289 426.5 268.5 c 0
 455 248 455 248 544 244 c 2,28,-1
 620 241 l 2,29,30
 795 234 795 234 877.5 178 c 0
 960 122 960 122 960 -4 c 0,31,32
 960 -73 960 -73 921 -140 c 0
 882 -207 882 -207 811.5 -262 c 0
 741 -317 741 -317 630 -351 c 0
 519 -385 519 -385 386 -385 c 0,33,34
 340 -385 340 -385 293 -379.5 c 0
 246 -374 246 -374 191.5 -358 c 0
 137 -342 137 -342 96 -317 c 0
 55 -292 55 -292 27.5 -248.5 c 0
 0 -205 0 -205 0 -149 c 0,0,1
295 3 m 1,35,36
 259 -94 259 -94 300.5 -150.5 c 0
 342 -207 342 -207 469 -207 c 0,37,38
 649 -207 649 -207 649 -103 c 0,39,40
 649 -51 649 -51 616.5 -28 c 0
 584 -5 584 -5 512 -3 c 2,41,-1
 295 3 l 1,35,36
371 645 m 0,42,43
 371 506.037 371 506.037 466.277 465.342 c 1
 465.19 464.129 465.19 464.129 463 464 c 1,44,45
 529 464 529 464 548.5 497 c 0
 568 530 568 530 568 638 c 0,46,47
 568 649 568 649 563.5 672.5 c 0
 559 696 559 696 548 730.5 c 0
 537 765 537 765 511.5 789.5 c 0
 486 814 486 814 450 814 c 0,48,49
 416 814 416 814 393.5 775 c 0
 371 736 371 736 371 645 c 0,42,43
EndSplineSet
Fore
SplineSet
356 565 m 0,0,1
 356 506 356 506 383.5 466 c 128,-1,2
 411 426 411 426 459 426 c 0,3,4
 555 426 555 426 555 578 c 0,5,6
 555 649 555 649 524.5 692 c 128,-1,7
 494 735 494 735 453 735 c 0,8,9
 405 735 405 735 380.5 689 c 128,-1,10
 356 643 356 643 356 565 c 0,0,1
271 -68 m 0,11,12
 271 -186 271 -186 472 -186 c 0,13,14
 536 -186 536 -186 574 -162 c 128,-1,15
 612 -138 612 -138 612 -102 c 0,16,17
 612 -50 612 -50 582 -25 c 128,-1,18
 552 0 552 0 485 0 c 2,19,-1
 288 0 l 1,20,21
 271 -39 271 -39 271 -68 c 0,11,12
852 607 m 0,22,23
 852 432 852 432 734 346.5 c 128,-1,24
 616 261 616 261 405 271 c 1,25,26
 400 254 400 254 400 247 c 0,27,28
 400 222 400 222 451 222 c 2,29,-1
 596 222 l 2,30,31
 909 222 909 222 909 -34 c 0,32,33
 909 -195 909 -195 761.5 -290 c 128,-1,34
 614 -385 614 -385 349 -385 c 0,35,36
 168 -385 168 -385 65.5 -331 c 128,-1,37
 -37 -277 -37 -277 -37 -169 c 0,38,39
 -37 -103 -37 -103 6 -56 c 128,-1,40
 49 -9 49 -9 121 2 c 1,41,-1
 121 19 l 1,42,43
 87 30 87 30 60.5 65.5 c 128,-1,44
 34 101 34 101 34 137 c 0,45,46
 34 192 34 192 94 234.5 c 128,-1,47
 154 277 154 277 232 287 c 1,48,-1
 232 305 l 1,49,50
 56 381 56 381 56 593 c 0,51,52
 56 659 56 659 85 721.5 c 128,-1,53
 114 784 114 784 166.5 834 c 128,-1,54
 219 884 219 884 299.5 914 c 128,-1,55
 380 944 380 944 475 944 c 0,56,57
 546 944 546 944 607 926 c 1,58,59
 612 963 612 963 612 1047 c 0,60,61
 612 1113 612 1113 594 1177 c 1,62,63
 615 1189 615 1189 655 1197.5 c 128,-1,64
 695 1206 695 1206 728 1206 c 0,65,66
 786 1206 786 1206 821 1170 c 128,-1,67
 856 1134 856 1134 856 1077 c 0,68,69
 856 1008 856 1008 807.5 957.5 c 128,-1,70
 759 907 759 907 694 889 c 1,71,-1
 694 881 l 1,72,73
 769 839 769 839 810.5 768 c 128,-1,74
 852 697 852 697 852 607 c 0,22,23
EndSplineSet
Substitution2: "Neuton-Regular-'smcp' Lowercase to Small Capitals in Latin lookup 0 subtable" g.sc
Colour: ffffff
EndChar

StartChar: germandbls
Encoding: 158 223 115
Width: 1380
VWidth: 0
Flags: MW
LayerCount: 3
Back
SplineSet
0 0 m 1,0,-1
 12 158 l 1,1,-1
 165 230 l 1,2,-1
 165 704 l 1,3,-1
 26 704 l 1,4,-1
 31 832 l 1,5,-1
 167 855 l 1,6,7
 174 925 174 925 224.5 1005.5 c 0
 275 1086 275 1086 349.5 1154 c 0
 424 1222 424 1222 521 1267 c 0
 618 1312 618 1312 710 1312 c 0,8,9
 770 1312 770 1312 816 1294.5 c 0
 862 1277 862 1277 889 1250 c 0
 916 1223 916 1223 933 1187 c 0
 950 1151 950 1151 956 1118.5 c 0
 962 1086 962 1086 962 1052 c 0,10,11
 962 989 962 989 946.5 943 c 0
 931 897 931 897 908 873.5 c 0
 885 850 885 850 858.5 829.5 c 0
 832 809 832 809 809 794 c 0
 786 779 786 779 770.5 752 c 0
 755 725 755 725 755 687 c 0,12,13
 755 671 755 671 776.5 657.5 c 0
 798 644 798 644 833.5 635 c 0
 869 626 869 626 914 612.5 c 0
 959 599 959 599 1006.5 584 c 0
 1054 569 1054 569 1099 541 c 0
 1144 513 1144 513 1179.5 478 c 0
 1215 443 1215 443 1236.5 387 c 0
 1258 331 1258 331 1258 262 c 0,14,15
 1258 191 1258 191 1203 124 c 0
 1148 57 1148 57 1068 18 c 0
 988 -21 988 -21 912 -21 c 0,16,17
 841 -21 841 -21 780 -12 c 0
 719 -3 719 -3 681.5 9.5 c 0
 644 22 644 22 617 36 c 0
 590 50 590 50 579 61 c 0
 568 72 568 72 568 77 c 0,18,19
 568 185 568 185 630 243.5 c 0
 692 302 692 302 802 299 c 1,20,21
 813.508 287.492 813.508 287.492 900.664 222.199 c 1
 965.152 171.977 965.152 171.977 944 170 c 1,22,23
 946 170 946 170 956.5 157.5 c 0
 967 145 967 145 976 136.5 c 0
 985 128 985 128 992.5 139.5 c 0
 1000 151 1000 151 1000 191 c 0,24,25
 1000 207 1000 207 974 221.5 c 0
 948 236 948 236 906 250 c 0
 864 264 864 264 813 281 c 0
 762 298 762 298 711.5 325 c 0
 661 352 661 352 619 386 c 0
 577 420 577 420 551 474 c 0
 525 528 525 528 525 594 c 0,26,27
 525 643 525 643 542 685 c 0
 559 727 559 727 583.5 756.5 c 0
 608 786 608 786 633 812 c 0
 658 838 658 838 675 868 c 0
 692 898 692 898 692 929 c 0,28,29
 692 944 692 944 692.5 969 c 0
 693 994 693 994 693 1005.5 c 0
 693 1017 693 1017 691.5 1035.5 c 0
 690 1054 690 1054 686.5 1063 c 0
 683 1072 683 1072 676 1083.5 c 0
 669 1095 669 1095 657.5 1100 c 0
 646 1105 646 1105 629.5 1108.5 c 0
 613 1112 613 1112 590 1112 c 0,30,31
 547.453 1112 547.453 1112 530.353 1100.63 c 0
 463 1055.85 463 1055.85 463 766 c 2,32,-1
 465 0 l 1,33,-1
 0 0 l 1,0,-1
EndSplineSet
Fore
SplineSet
46 0 m 1,0,-1
 58 158 l 1,1,-1
 213 230 l 1,2,-1
 213 700 l 1,3,-1
 63 700 l 1,4,-1
 73 849 l 1,5,-1
 211 873 l 1,6,7
 219 1004 219 1004 298 1104 c 128,-1,8
 377 1204 377 1204 500 1255 c 128,-1,9
 623 1306 623 1306 768 1306 c 0,10,11
 892 1306 892 1306 988 1279 c 128,-1,12
 1084 1252 1084 1252 1140.5 1197 c 128,-1,13
 1197 1142 1197 1142 1197 1067 c 0,14,15
 1197 1019 1197 1019 1178.5 982 c 128,-1,16
 1160 945 1160 945 1130.5 923 c 128,-1,17
 1101 901 1101 901 1065.5 884.5 c 128,-1,18
 1030 868 1030 868 994.5 855 c 128,-1,19
 959 842 959 842 930 828.5 c 128,-1,20
 901 815 901 815 882.5 794 c 128,-1,21
 864 773 864 773 864 745 c 0,22,23
 864 716 864 716 899.5 689.5 c 128,-1,24
 935 663 935 663 987.5 642 c 128,-1,25
 1040 621 1040 621 1102 588 c 128,-1,26
 1164 555 1164 555 1216.5 517 c 128,-1,27
 1269 479 1269 479 1304.5 415 c 128,-1,28
 1340 351 1340 351 1340 272 c 0,29,30
 1340 126 1340 126 1220 45 c 128,-1,31
 1100 -36 1100 -36 909 -36 c 0,32,33
 825 -36 825 -36 746 -12 c 128,-1,34
 667 12 667 12 614 59.5 c 128,-1,35
 561 107 561 107 561 167 c 0,36,37
 561 239 561 239 611 279.5 c 128,-1,38
 661 320 661 320 753 328 c 1,39,40
 781 229 781 229 829 176 c 128,-1,41
 877 123 877 123 936 123 c 0,42,43
 996 123 996 123 1020.5 136.5 c 128,-1,44
 1045 150 1045 150 1045 186 c 0,45,46
 1045 209 1045 209 1020 231.5 c 128,-1,47
 995 254 995 254 955.5 275 c 128,-1,48
 916 296 916 296 868 320 c 128,-1,49
 820 344 820 344 772 375 c 128,-1,50
 724 406 724 406 684.5 442.5 c 128,-1,51
 645 479 645 479 620 531 c 128,-1,52
 595 583 595 583 595 644 c 0,53,54
 595 697 595 697 609.5 738.5 c 128,-1,55
 624 780 624 780 647 806.5 c 128,-1,56
 670 833 670 833 698 855 c 128,-1,57
 726 877 726 877 754 895 c 128,-1,58
 782 913 782 913 805 932.5 c 128,-1,59
 828 952 828 952 842.5 979.5 c 128,-1,60
 857 1007 857 1007 857 1041 c 0,61,62
 857 1088 857 1088 814.5 1121 c 128,-1,63
 772 1154 772 1154 703 1154 c 0,64,65
 682 1154 682 1154 660 1150 c 128,-1,66
 638 1146 638 1146 609.5 1133 c 128,-1,67
 581 1120 581 1120 560 1099 c 128,-1,68
 539 1078 539 1078 524 1040.5 c 128,-1,69
 509 1003 509 1003 509 955 c 2,70,-1
 509 0 l 1,71,-1
 46 0 l 1,0,-1
EndSplineSet
Substitution2: "Neuton-Regular-'smcp' Lowercase to Small Capitals in Latin lookup 0 subtable" germandbls.sc
Colour: ffffff
EndChar

StartChar: grave
Encoding: 64 96 116
Width: 584
VWidth: 0
Flags: MW
LayerCount: 3
Fore
SplineSet
540 1333 m 1,0,-1
 306 1307 l 1,1,-1
 45 1628 l 1,2,-1
 395 1638 l 1,3,-1
 540 1333 l 1,0,-1
EndSplineSet
Colour: ffffff
EndChar

StartChar: greater
Encoding: 30 62 117
Width: 877
VWidth: 0
Flags: MW
LayerCount: 3
Fore
SplineSet
42 36 m 1,0,-1
 390 454 l 1,1,-1
 54 840 l 1,2,-1
 201 974 l 1,3,-1
 830 504 l 1,4,-1
 820 410 l 1,5,-1
 188 -84 l 1,6,-1
 42 36 l 1,0,-1
EndSplineSet
Colour: ffffff
EndChar

StartChar: guillemotleft
Encoding: 106 171 118
Width: 767
VWidth: 0
Flags: MW
LayerCount: 3
Fore
SplineSet
49 469 m 1,0,-1
 316 818 l 1,1,-1
 390 712 l 1,2,-1
 275 460 l 1,3,-1
 403 192 l 1,4,-1
 309 75 l 1,5,-1
 46 447 l 1,6,-1
 49 469 l 1,0,-1
359 469 m 1,7,-1
 626 818 l 1,8,-1
 700 712 l 1,9,-1
 585 460 l 1,10,-1
 713 192 l 1,11,-1
 619 75 l 1,12,-1
 356 447 l 1,13,-1
 359 469 l 1,7,-1
EndSplineSet
Colour: ffffff
EndChar

StartChar: guillemotright
Encoding: 122 187 119
Width: 767
VWidth: 0
Flags: MW
LayerCount: 3
Fore
SplineSet
719 469 m 1,0,-1
 722 447 l 1,1,-1
 459 75 l 1,2,-1
 365 192 l 1,3,-1
 493 460 l 1,4,-1
 378 712 l 1,5,-1
 452 818 l 1,6,-1
 719 469 l 1,0,-1
409 469 m 1,7,-1
 412 447 l 1,8,-1
 149 75 l 1,9,-1
 55 192 l 1,10,-1
 183 460 l 1,11,-1
 68 712 l 1,12,-1
 142 818 l 1,13,-1
 409 469 l 1,7,-1
EndSplineSet
Colour: ffffff
EndChar

StartChar: guilsinglleft
Encoding: 205 8249 120
Width: 457
VWidth: 0
Flags: MW
LayerCount: 3
Fore
SplineSet
52 469 m 1,0,-1
 319 818 l 1,1,-1
 393 712 l 1,2,-1
 278 460 l 1,3,-1
 406 192 l 1,4,-1
 312 75 l 1,5,-1
 49 447 l 1,6,-1
 52 469 l 1,0,-1
EndSplineSet
Colour: ffffff
EndChar

StartChar: guilsinglright
Encoding: 206 8250 121
Width: 457
VWidth: 0
Flags: MW
LayerCount: 3
Fore
SplineSet
357 469 m 1,0,-1
 360 447 l 1,1,-1
 97 75 l 1,2,-1
 3 192 l 1,3,-1
 131 460 l 1,4,-1
 16 712 l 1,5,-1
 90 818 l 1,6,-1
 357 469 l 1,0,-1
EndSplineSet
Colour: ffffff
EndChar

StartChar: h
Encoding: 72 104 122
Width: 1085
VWidth: 0
Flags: MW
LayerCount: 3
Back
SplineSet
449 607 m 1,0,-1
 449 215 l 1,1,-1
 572 152 l 1,2,-1
 544 0 l 1,3,-1
 5 0 l 1,4,-1
 26 143 l 1,5,-1
 131 215 l 1,6,-1
 131 670 l 1,7,-1
 13 751 l 1,8,-1
 40 889 l 1,9,-1
 396 918 l 1,10,-1
 434 879 l 1,11,-1
 434 771 l 1,12,-1
 449 771 l 1,13,14
 525 850 525 850 592 889.5 c 0
 659 929 659 929 738 929 c 0,15,16
 854 929 854 929 919 859.5 c 0
 984 790 984 790 984 641 c 2,17,-1
 984 212 l 1,18,-1
 1083 155 l 1,19,-1
 1060 0 l 1,20,-1
 649 0 l 1,21,-1
 663 143 l 1,22,-1
 667 189 l 1,23,-1
 667 494 l 2,24,25
 667 575.138 667 575.138 639.922 607.546 c 0
 612.845 639.954 612.845 639.954 557.122 639.954 c 0,26,27
 507.709 639.954 507.709 639.954 449 607 c 1,0,-1
EndSplineSet
Fore
SplineSet
667 189 m 1,0,-1
 667 494 l 2,1,2
 667 575 667 575 640 607.5 c 128,-1,3
 613 640 613 640 557 640 c 0,4,5
 508 640 508 640 449 607 c 1,6,-1
 449 215 l 1,7,-1
 572 152 l 1,8,-1
 544 0 l 1,9,-1
 5 0 l 1,10,-1
 26 143 l 1,11,-1
 131 215 l 1,12,-1
 131 1052 l 1,13,-1
 10 1133 l 1,14,-1
 39 1277 l 1,15,-1
 390 1304 l 1,16,-1
 430 1259 l 1,17,-1
 430 898 l 1,18,-1
 404 751 l 1,19,-1
 419 751 l 1,20,21
 502 840 502 840 576.5 884.5 c 128,-1,22
 651 929 651 929 738 929 c 0,23,24
 854 929 854 929 919 859.5 c 128,-1,25
 984 790 984 790 984 641 c 2,26,-1
 984 212 l 1,27,-1
 1083 155 l 1,28,-1
 1060 0 l 1,29,-1
 649 0 l 1,30,-1
 663 143 l 1,31,-1
 667 189 l 1,0,-1
EndSplineSet
Substitution2: "Neuton-Regular-'smcp' Lowercase to Small Capitals in Latin lookup 0 subtable" h.sc
Colour: ffffff
EndChar

StartChar: hyphen
Encoding: 13 45 123
Width: 717
VWidth: 0
Flags: MW
LayerCount: 3
Fore
SplineSet
61 357 m 1,0,-1
 76 535 l 1,1,-1
 656 557 l 1,2,-1
 641 372 l 1,3,-1
 61 357 l 1,0,-1
EndSplineSet
Colour: ffffff
EndChar

StartChar: i
Encoding: 73 105 124
Width: 546
VWidth: 0
Flags: MW
LayerCount: 3
Back
SplineSet
750 -198 m 1,0,-1
 750 107 l 2,1,2
 750 188.138 750 188.138 722.922 220.546 c 0
 695.845 252.954 695.845 252.954 640.122 252.954 c 0,3,4
 590.711 252.954 590.711 252.954 532 220 c 1,5,-1
 532 -172 l 1,6,-1
 655 -235 l 1,7,-1
 627 -387 l 1,8,-1
 88 -387 l 1,9,-1
 109 -244 l 1,10,-1
 214 -172 l 1,11,-1
 214 665 l 1,12,-1
 93 746 l 1,13,-1
 122 890 l 1,14,-1
 483 917 l 1,15,-1
 523 872 l 1,16,-1
 523 511 l 1,17,-1
 487 364 l 1,18,-1
 502 364 l 1,19,20
 585 453 585 453 659.5 497.5 c 0
 734 542 734 542 821 542 c 0,21,22
 937 542 937 542 1002 472.5 c 0
 1067 403 1067 403 1067 254 c 2,23,-1
 1067 -175 l 1,24,-1
 1166 -232 l 1,25,-1
 1143 -387 l 1,26,-1
 732 -387 l 1,27,-1
 746 -244 l 1,28,-1
 750 -198 l 1,0,-1
EndSplineSet
Fore
SplineSet
53 1138 m 0,0,1
 53 1204 53 1204 114 1247 c 128,-1,2
 175 1290 175 1290 285 1290 c 0,3,4
 389 1290 389 1290 445 1246 c 128,-1,5
 501 1202 501 1202 501 1137 c 0,6,7
 501 1069 501 1069 447 1023.5 c 128,-1,8
 393 978 393 978 283 978 c 0,9,10
 161 978 161 978 107 1022.5 c 128,-1,11
 53 1067 53 1067 53 1138 c 0,0,1
445 872 m 1,12,-1
 445 212 l 1,13,-1
 544 155 l 1,14,-1
 521 0 l 1,15,-1
 5 0 l 1,16,-1
 26 143 l 1,17,-1
 131 215 l 1,18,-1
 131 665 l 1,19,-1
 10 746 l 1,20,-1
 39 890 l 1,21,-1
 405 917 l 1,22,-1
 445 872 l 1,12,-1
EndSplineSet
Layer: 2
SplineSet
527 607 m 5,0,-1
 527 215 l 1,1,-1
 650 152 l 1,2,-1
 622 0 l 1,3,-1
 83 0 l 1,4,-1
 104 143 l 1,5,-1
 209 215 l 1,6,-1
 209 670 l 1,7,-1
 91 751 l 1,8,-1
 118 889 l 1,9,-1
 474 918 l 1,10,-1
 512 879 l 1,11,-1
 512 771 l 1,12,-1
 527 771 l 1,13,14
 603 850 603 850 670 889.5 c 128,-1,15
 737 929 737 929 816 929 c 0,16,17
 932 929 932 929 997 859.5 c 128,-1,18
 1062 790 1062 790 1062 641 c 2,19,-1
 1062 212 l 1,20,-1
 1161 155 l 1,21,-1
 1138 0 l 1,22,-1
 727 0 l 1,23,-1
 741 143 l 1,24,-1
 745 189 l 1,25,-1
 745 494 l 2,26,27
 745 575.138 745 575.138 717.922 607.546 c 128,-1,28
 690.845 639.954 690.845 639.954 635.122 639.954 c 0,29,30
 585.709 639.954 585.709 639.954 527 607 c 5,0,-1
EndSplineSet
Substitution2: "Neuton-Regular-'smcp' Lowercase to Small Capitals in Latin lookup 0 subtable" i.sc
Colour: ffffff
EndChar

StartChar: iacute
Encoding: 172 237 125
Width: 739
VWidth: 0
Flags: MW
LayerCount: 3
Fore
SplineSet
49 0 m 1,0,-1
 57 176 l 1,1,-1
 211 230 l 1,2,-1
 211 619 l 1,3,-1
 63 728 l 1,4,-1
 96 901 l 1,5,-1
 469 928 l 1,6,-1
 525 872 l 1,7,-1
 525 230 l 1,8,-1
 687 174 l 1,9,-1
 676 0 l 1,10,-1
 49 0 l 1,0,-1
194 1003 m 1,11,-1
 339 1308 l 1,12,-1
 689 1298 l 1,13,-1
 428 977 l 1,14,-1
 194 1003 l 1,11,-1
EndSplineSet
Substitution2: "Neuton-Regular-'smcp' Lowercase to Small Capitals in Latin lookup 0 subtable" iacute.sc
Colour: ffffff
EndChar

StartChar: icircumflex
Encoding: 173 238 126
Width: 739
VWidth: 0
Flags: MW
LayerCount: 3
Fore
SplineSet
49 0 m 1,0,-1
 57 176 l 1,1,-1
 211 230 l 1,2,-1
 211 619 l 1,3,-1
 63 728 l 1,4,-1
 96 901 l 1,5,-1
 469 928 l 1,6,-1
 525 872 l 1,7,-1
 525 230 l 1,8,-1
 687 174 l 1,9,-1
 676 0 l 1,10,-1
 49 0 l 1,0,-1
19 1017 m 1,11,-1
 172 1272 l 1,12,-1
 497 1272 l 1,13,-1
 651 1017 l 1,14,-1
 398 1008 l 1,15,-1
 334 1129 l 1,16,-1
 320 1129 l 1,17,-1
 252 1007 l 1,18,-1
 19 1017 l 1,11,-1
EndSplineSet
Substitution2: "Neuton-Regular-'smcp' Lowercase to Small Capitals in Latin lookup 0 subtable" icircumflex.sc
Colour: ffffff
EndChar

StartChar: idieresis
Encoding: 174 239 127
Width: 739
VWidth: 0
Flags: MW
LayerCount: 3
Fore
SplineSet
49 0 m 1,0,-1
 57 176 l 1,1,-1
 211 230 l 1,2,-1
 211 619 l 1,3,-1
 63 728 l 1,4,-1
 96 901 l 1,5,-1
 469 928 l 1,6,-1
 525 872 l 1,7,-1
 525 230 l 1,8,-1
 687 174 l 1,9,-1
 676 0 l 1,10,-1
 49 0 l 1,0,-1
337 1114 m 0,11,12
 337 1133 337 1133 343.5 1150.5 c 128,-1,13
 350 1168 350 1168 365 1184.5 c 128,-1,14
 380 1201 380 1201 408 1211 c 128,-1,15
 436 1221 436 1221 475 1221 c 0,16,17
 516 1221 516 1221 545 1211 c 128,-1,18
 574 1201 574 1201 589.5 1185 c 128,-1,19
 605 1169 605 1169 611.5 1152 c 128,-1,20
 618 1135 618 1135 618 1116 c 0,21,22
 618 1007 618 1007 474 1007 c 0,23,24
 337 1007 337 1007 337 1114 c 0,11,12
28 1114 m 0,25,26
 28 1133 28 1133 34.5 1150.5 c 128,-1,27
 41 1168 41 1168 56 1184.5 c 128,-1,28
 71 1201 71 1201 99 1211 c 128,-1,29
 127 1221 127 1221 166 1221 c 0,30,31
 207 1221 207 1221 236 1211 c 128,-1,32
 265 1201 265 1201 280.5 1185 c 128,-1,33
 296 1169 296 1169 302.5 1152 c 128,-1,34
 309 1135 309 1135 309 1116 c 0,35,36
 309 1007 309 1007 165 1007 c 0,37,38
 28 1007 28 1007 28 1114 c 0,25,26
EndSplineSet
Substitution2: "Neuton-Regular-'smcp' Lowercase to Small Capitals in Latin lookup 0 subtable" idieresis.sc
Colour: ffffff
EndChar

StartChar: igrave
Encoding: 171 236 128
Width: 739
VWidth: 0
Flags: MW
LayerCount: 3
Fore
SplineSet
49 0 m 1,0,-1
 57 176 l 1,1,-1
 211 230 l 1,2,-1
 211 619 l 1,3,-1
 63 728 l 1,4,-1
 96 901 l 1,5,-1
 469 928 l 1,6,-1
 525 872 l 1,7,-1
 525 230 l 1,8,-1
 687 174 l 1,9,-1
 676 0 l 1,10,-1
 49 0 l 1,0,-1
496 1003 m 1,11,-1
 262 977 l 1,12,-1
 1 1298 l 1,13,-1
 351 1308 l 1,14,-1
 496 1003 l 1,11,-1
EndSplineSet
Substitution2: "Neuton-Regular-'smcp' Lowercase to Small Capitals in Latin lookup 0 subtable" igrave.sc
Colour: ffffff
EndChar

StartChar: j
Encoding: 74 106 129
Width: 544
VWidth: 0
Flags: MW
LayerCount: 3
Back
SplineSet
445 872 m 5,0,-1
 445 212 l 1,1,-1
 544 155 l 1,2,-1
 521 0 l 1,3,-1
 5 0 l 1,4,-1
 26 143 l 1,5,-1
 131 215 l 1,6,-1
 131 665 l 1,7,-1
 10 746 l 1,8,-1
 39 890 l 1,9,-1
 405 917 l 1,10,-1
 445 872 l 5,0,-1
53 1138 m 4,11,12
 53 1204 53 1204 114 1247 c 0
 175 1290 175 1290 285 1290 c 0,13,14
 389 1290 389 1290 445 1246 c 0
 501 1202 501 1202 501 1137 c 0,15,16
 501 1069 501 1069 447 1023.5 c 0
 393 978 393 978 283 978 c 0,17,18
 161 978 161 978 107 1022.5 c 0
 53 1067 53 1067 53 1138 c 4,11,12
EndSplineSet
Fore
SplineSet
447 872 m 1,0,-1
 447 150 l 2,1,2
 447 79 447 79 432 17 c 128,-1,3
 417 -45 417 -45 393.5 -91 c 128,-1,4
 370 -137 370 -137 332.5 -177.5 c 128,-1,5
 295 -218 295 -218 259.5 -245.5 c 128,-1,6
 224 -273 224 -273 176 -298.5 c 128,-1,7
 128 -324 128 -324 91.5 -339 c 128,-1,8
 55 -354 55 -354 7 -371 c 1,9,-1
 -44 -382 l 1,10,-1
 -125 -213 l 1,11,12
 -118 -208 -118 -208 -92 -189.5 c 128,-1,13
 -66 -171 -66 -171 -56.5 -164 c 128,-1,14
 -47 -157 -47 -157 -23 -137 c 128,-1,15
 1 -117 1 -117 12 -105 c 128,-1,16
 23 -93 23 -93 43 -70 c 128,-1,17
 63 -47 63 -47 72.5 -27.5 c 128,-1,18
 82 -8 82 -8 95.5 20.5 c 128,-1,19
 109 49 109 49 115 77.5 c 128,-1,20
 121 106 121 106 126 142 c 128,-1,21
 131 178 131 178 131 218 c 2,22,-1
 131 665 l 1,23,-1
 10 746 l 1,24,-1
 39 890 l 1,25,-1
 407 917 l 1,26,-1
 447 872 l 1,0,-1
53 1140 m 0,27,28
 53 1206 53 1206 114.5 1249 c 128,-1,29
 176 1292 176 1292 287 1292 c 0,30,31
 392 1292 392 1292 448.5 1248 c 128,-1,32
 505 1204 505 1204 505 1139 c 0,33,34
 505 1071 505 1071 450.5 1025.5 c 128,-1,35
 396 980 396 980 285 980 c 0,36,37
 162 980 162 980 107.5 1024.5 c 128,-1,38
 53 1069 53 1069 53 1140 c 0,27,28
EndSplineSet
Substitution2: "Neuton-Regular-'smcp' Lowercase to Small Capitals in Latin lookup 0 subtable" j.sc
Colour: ffffff
EndChar

StartChar: k
Encoding: 75 107 130
Width: 1013
VWidth: 0
Flags: MW
LayerCount: 3
Fore
SplineSet
468 404 m 1,0,-1
 478 449 l 1,1,-1
 640 698 l 1,2,-1
 522 771 l 1,3,-1
 543 917 l 1,4,-1
 984 917 l 1,5,-1
 955 716 l 1,6,-1
 888 653 l 1,7,-1
 729 498 l 1,8,-1
 779 414 l 1,9,10
 821 346 821 346 878 275.5 c 128,-1,11
 935 205 935 205 980 165 c 2,12,-1
 1021 128 l 1,13,-1
 994 0 l 1,14,15
 917 -23 917 -23 839 -23 c 0,16,17
 773 -23 773 -23 718.5 -0.5 c 128,-1,18
 664 22 664 22 625 64 c 128,-1,19
 586 106 586 106 558.5 156.5 c 128,-1,20
 531 207 531 207 511 272 c 2,21,-1
 468 404 l 1,0,-1
445 1262 m 1,22,-1
 445 212 l 1,23,-1
 445 155 l 1,24,-1
 481 0 l 1,25,-1
 5 0 l 1,26,-1
 26 143 l 1,27,-1
 131 215 l 1,28,-1
 131 1054 l 1,29,-1
 10 1136 l 1,30,-1
 39 1280 l 1,31,-1
 405 1306 l 1,32,-1
 445 1262 l 1,22,-1
EndSplineSet
Layer: 2
SplineSet
1038 902 m 1,0,-1
 1038 242 l 1,1,-1
 1137 185 l 1,2,-1
 1114 30 l 1,3,-1
 598 30 l 1,4,-1
 619 173 l 1,5,-1
 724 245 l 1,6,-1
 724 695 l 1,7,-1
 603 776 l 1,8,-1
 632 920 l 1,9,-1
 998 947 l 1,10,-1
 1038 902 l 1,0,-1
646 1168 m 0,11,12
 646 1234 646 1234 707 1277 c 128,-1,13
 768 1320 768 1320 878 1320 c 0,14,15
 982 1320 982 1320 1038 1276 c 128,-1,16
 1094 1232 1094 1232 1094 1167 c 0,17,18
 1094 1099 1094 1099 1040 1053.5 c 128,-1,19
 986 1008 986 1008 876 1008 c 0,20,21
 754 1008 754 1008 700 1052.5 c 128,-1,22
 646 1097 646 1097 646 1168 c 0,11,12
EndSplineSet
Substitution2: "Neuton-Regular-'smcp' Lowercase to Small Capitals in Latin lookup 0 subtable" k.sc
Colour: ffff00
EndChar

StartChar: l
Encoding: 76 108 131
Width: 546
VWidth: 0
Flags: MW
LayerCount: 3
Fore
SplineSet
445 1262 m 1,0,-1
 445 212 l 1,1,-1
 544 155 l 1,2,-1
 521 0 l 1,3,-1
 5 0 l 1,4,-1
 26 143 l 1,5,-1
 131 215 l 1,6,-1
 131 1054 l 1,7,-1
 10 1136 l 1,8,-1
 39 1280 l 1,9,-1
 405 1306 l 1,10,-1
 445 1262 l 1,0,-1
EndSplineSet
Substitution2: "Neuton-Regular-'smcp' Lowercase to Small Capitals in Latin lookup 0 subtable" l.sc
Colour: ffffff
EndChar

StartChar: less
Encoding: 28 60 132
Width: 877
VWidth: 0
Flags: MW
LayerCount: 3
Fore
SplineSet
793 36 m 1,0,-1
 647 -84 l 1,1,-1
 15 410 l 1,2,-1
 5 504 l 1,3,-1
 634 974 l 1,4,-1
 781 840 l 1,5,-1
 445 454 l 1,6,-1
 793 36 l 1,0,-1
EndSplineSet
Colour: ffffff
EndChar

StartChar: logicalnot
Encoding: 107 172 133
Width: 934
VWidth: 0
Flags: MW
LayerCount: 3
Fore
SplineSet
57 459 m 1,0,-1
 69 661 l 1,1,-1
 872 661 l 1,2,-1
 872 261 l 1,3,-1
 653 241 l 1,4,-1
 653 459 l 1,5,-1
 57 459 l 1,0,-1
EndSplineSet
Colour: ffffff
EndChar

StartChar: m
Encoding: 77 109 134
Width: 1616
VWidth: 0
Flags: MW
LayerCount: 3
Back
SplineSet
529 607 m 5,0,-1
 529 215 l 1,1,-1
 652 152 l 1,2,-1
 624 0 l 1,3,-1
 85 0 l 1,4,-1
 106 143 l 1,5,-1
 211 215 l 1,6,-1
 211 670 l 1,7,-1
 93 751 l 1,8,-1
 120 889 l 1,9,-1
 476 918 l 1,10,-1
 514 879 l 1,11,-1
 514 771 l 1,12,-1
 529 771 l 1,13,14
 605 850 605 850 672 889.5 c 0
 739 929 739 929 818 929 c 0,15,16
 998.474 929 998.474 929 1046.95 771 c 1,17,-1
 1063.88 771 l 1,18,19
 1141.3 849.876 1141.3 849.876 1210.19 889.438 c 0
 1279.07 929 1279.07 929 1359.88 929 c 0,20,21
 1475.58 929 1475.58 929 1540.73 859.705 c 0
 1605.88 790.41 1605.88 790.41 1605.88 641 c 2,22,-1
 1605.88 212 l 1,23,-1
 1704.88 155 l 1,24,-1
 1681.88 0 l 1,25,-1
 1270.88 0 l 1,26,-1
 1284.88 143 l 1,27,-1
 1288.88 189 l 1,28,-1
 1288.88 494 l 2,29,30
 1288.88 575.137 1288.88 575.137 1261.8 607.546 c 0
 1234.72 639.954 1234.72 639.954 1179 639.954 c 0,31,32
 1127 639.954 1127 639.954 1064 610.569 c 1,33,-1
 1064 212 l 1,34,-1
 1163 155 l 1,35,-1
 1140 0 l 1,36,-1
 729 0 l 1,37,-1
 743 143 l 1,38,-1
 747 189 l 1,39,-1
 747 494 l 2,40,41
 747 575.138 747 575.138 719.923 607.546 c 0
 692.845 639.954 692.845 639.954 637.122 639.954 c 0,42,43
 587.709 639.954 587.709 639.954 529 607 c 5,0,-1
EndSplineSet
Fore
SplineSet
449 607 m 1,0,-1
 449 215 l 1,1,-1
 572 152 l 1,2,-1
 544 0 l 1,3,-1
 5 0 l 1,4,-1
 26 143 l 1,5,-1
 131 215 l 1,6,-1
 131 670 l 1,7,-1
 13 751 l 1,8,-1
 40 889 l 1,9,-1
 396 918 l 1,10,-1
 434 879 l 1,11,-1
 434 771 l 1,12,-1
 449 771 l 1,13,14
 525 850 525 850 592 889.5 c 128,-1,15
 659 929 659 929 738 929 c 0,16,17
 918 929 918 929 967 771 c 1,18,-1
 984 771 l 1,19,20
 1061 850 1061 850 1130 889.5 c 128,-1,21
 1199 929 1199 929 1280 929 c 0,22,23
 1391 929 1391 929 1453 859.5 c 128,-1,24
 1515 790 1515 790 1515 641 c 2,25,-1
 1515 212 l 1,26,-1
 1614 155 l 1,27,-1
 1591 0 l 1,28,-1
 1180 0 l 1,29,-1
 1194 143 l 1,30,-1
 1198 189 l 1,31,-1
 1198 494 l 2,32,33
 1198 575 1198 575 1173.5 607.5 c 128,-1,34
 1149 640 1149 640 1099 640 c 0,35,36
 1047 640 1047 640 984 611 c 1,37,-1
 984 212 l 1,38,-1
 1083 155 l 1,39,-1
 1060 0 l 1,40,-1
 649 0 l 1,41,-1
 663 143 l 1,42,-1
 667 189 l 1,43,-1
 667 494 l 2,44,45
 667 575 667 575 640 607.5 c 128,-1,46
 613 640 613 640 557 640 c 0,47,48
 508 640 508 640 449 607 c 1,0,-1
EndSplineSet
Substitution2: "Neuton-Regular-'smcp' Lowercase to Small Capitals in Latin lookup 0 subtable" m.sc
Colour: ffffff
EndChar

StartChar: macron
Encoding: 110 175 135
Width: 628
VWidth: 0
Flags: MW
LayerCount: 3
Fore
SplineSet
77 1379 m 1,0,-1
 98 1574 l 1,1,-1
 551 1574 l 1,2,-1
 529 1379 l 1,3,-1
 77 1379 l 1,0,-1
EndSplineSet
Colour: ffffff
EndChar

StartChar: multiply
Encoding: 150 215 136
Width: 659
VWidth: 0
Flags: MW
LayerCount: 3
Back
SplineSet
622 318 m 5,0,-1
 462 455 l 1,1,-1
 622 616 l 1,2,-1
 497 752 l 1,3,-1
 333 556 l 1,4,-1
 175 749 l 1,5,-1
 50 617 l 1,6,-1
 206 452 l 1,7,-1
 46 318 l 1,8,-1
 174 176 l 1,9,-1
 332 346 l 1,10,-1
 498 175 l 1,11,-1
 622 318 l 5,0,-1
EndSplineSet
Fore
SplineSet
46 318 m 1,0,-1
 205 455 l 1,1,-1
 46 616 l 1,2,-1
 171 752 l 1,3,-1
 339 552 l 1,4,-1
 496 752 l 1,5,-1
 621 615 l 1,6,-1
 466 451 l 1,7,-1
 622 318 l 1,8,-1
 497 176 l 1,9,-1
 330 350 l 1,10,-1
 170 175 l 1,11,-1
 46 318 l 1,0,-1
EndSplineSet
Colour: ffffff
EndChar

StartChar: n
Encoding: 78 110 137
Width: 1085
VWidth: 0
Flags: MW
LayerCount: 3
Fore
SplineSet
449 607 m 1,0,-1
 449 215 l 1,1,-1
 572 152 l 1,2,-1
 544 0 l 1,3,-1
 5 0 l 1,4,-1
 26 143 l 1,5,-1
 131 215 l 1,6,-1
 131 670 l 1,7,-1
 13 751 l 1,8,-1
 40 889 l 1,9,-1
 396 918 l 1,10,-1
 434 879 l 1,11,-1
 434 771 l 1,12,-1
 449 771 l 1,13,14
 525 850 525 850 592 889.5 c 128,-1,15
 659 929 659 929 738 929 c 0,16,17
 854 929 854 929 919 859.5 c 128,-1,18
 984 790 984 790 984 641 c 2,19,-1
 984 212 l 1,20,-1
 1083 155 l 1,21,-1
 1060 0 l 1,22,-1
 649 0 l 1,23,-1
 663 143 l 1,24,-1
 667 189 l 1,25,-1
 667 494 l 2,26,27
 667 575 667 575 640 607.5 c 128,-1,28
 613 640 613 640 557 640 c 0,29,30
 508 640 508 640 449 607 c 1,0,-1
EndSplineSet
Substitution2: "Neuton-Regular-'smcp' Lowercase to Small Capitals in Latin lookup 0 subtable" n.sc
Colour: ffffff
EndChar

StartChar: nine
Encoding: 25 57 139
Width: 1019
VWidth: 0
Flags: MW
LayerCount: 3
Fore
SplineSet
409 866 m 0,0,1
 409 741 409 741 427.5 682 c 128,-1,2
 446 623 446 623 489 623 c 0,3,4
 536 623 536 623 578 659 c 1,5,6
 586 715 586 715 586 828 c 0,7,8
 586 1068 586 1068 488 1066 c 0,9,10
 445 1065 445 1065 427 1019 c 128,-1,11
 409 973 409 973 409 866 c 0,0,1
49 758 m 0,12,13
 49 868 49 868 86.5 957 c 128,-1,14
 124 1046 124 1046 188 1102 c 128,-1,15
 252 1158 252 1158 333.5 1187.5 c 128,-1,16
 415 1217 415 1217 506 1217 c 0,17,18
 741 1217 741 1217 854 1102.5 c 128,-1,19
 967 988 967 988 967 781 c 0,20,21
 967 573 967 573 880 395.5 c 128,-1,22
 793 218 793 218 634 105.5 c 128,-1,23
 475 -7 475 -7 274 -25 c 1,24,-1
 225 90 l 1,25,26
 369 147 369 147 462 244.5 c 128,-1,27
 555 342 555 342 576 467 c 1,28,-1
 568 476 l 1,29,30
 506 422 506 422 354 422 c 0,31,32
 301 422 301 422 248 443.5 c 128,-1,33
 195 465 195 465 150 505.5 c 128,-1,34
 105 546 105 546 77 612 c 128,-1,35
 49 678 49 678 49 758 c 0,12,13
EndSplineSet
Substitution2: "Neuton-Regular-'onum' Oldstyle Figures lookup 1-1" nine.osf
Colour: ffffff
EndChar

StartChar: nine.osf
Encoding: 211 -1 140
Width: 1014
VWidth: 0
Flags: MW
LayerCount: 3
Fore
SplineSet
411 607 m 0,0,1
 411 461 411 461 433 392.5 c 128,-1,2
 455 324 455 324 507 324 c 0,3,4
 544 324 544 324 576 360 c 1,5,6
 588 424 588 424 588 569 c 0,7,8
 588 876 588 876 491 876 c 1,9,10
 447 875 447 875 429 813.5 c 128,-1,11
 411 752 411 752 411 607 c 0,0,1
51 499 m 0,12,13
 51 626 51 626 88.5 728 c 128,-1,14
 126 830 126 830 190 894.5 c 128,-1,15
 254 959 254 959 335.5 993 c 128,-1,16
 417 1027 417 1027 508 1027 c 0,17,18
 626 1027 626 1027 714.5 987 c 128,-1,19
 803 947 803 947 855.5 873.5 c 128,-1,20
 908 800 908 800 933.5 705 c 128,-1,21
 959 610 959 610 959 492 c 0,22,23
 959 319 959 319 901 172 c 128,-1,24
 843 25 843 25 742.5 -76.5 c 128,-1,25
 642 -178 642 -178 507.5 -240 c 128,-1,26
 373 -302 373 -302 219 -314 c 1,27,-1
 170 -199 l 1,28,29
 323 -147 323 -147 433.5 -42 c 128,-1,30
 544 63 544 63 564 208 c 1,31,-1
 556 217 l 1,32,33
 533 179 533 179 478 157 c 128,-1,34
 423 135 423 135 358 135 c 0,35,36
 213 135 213 135 132 236.5 c 128,-1,37
 51 338 51 338 51 499 c 0,12,13
EndSplineSet
Colour: ffffff
EndChar

StartChar: ntilde
Encoding: 176 241 141
Width: 1085
VWidth: 0
Flags: MW
LayerCount: 3
Fore
SplineSet
320 992 m 1,0,-1
 203 1003 l 1,1,2
 205 1083 205 1083 221.5 1139.5 c 128,-1,3
 238 1196 238 1196 265 1227 c 128,-1,4
 292 1258 292 1258 331 1270.5 c 128,-1,5
 370 1283 370 1283 413 1279.5 c 128,-1,6
 456 1276 456 1276 508 1260 c 2,7,-1
 578 1238 l 2,8,9
 645 1216 645 1216 680 1226.5 c 128,-1,10
 715 1237 715 1237 729 1288 c 1,11,-1
 844 1277 l 1,12,13
 834 1091 834 1091 761.5 1033 c 128,-1,14
 689 975 689 975 550 1018 c 2,15,-1
 484 1038 l 1,16,17
 397 1062 397 1062 367.5 1052 c 128,-1,18
 338 1042 338 1042 320 992 c 1,0,-1
449 607 m 1,19,-1
 449 215 l 1,20,-1
 572 152 l 1,21,-1
 544 0 l 1,22,-1
 5 0 l 1,23,-1
 26 143 l 1,24,-1
 131 215 l 1,25,-1
 131 670 l 1,26,-1
 13 751 l 1,27,-1
 40 889 l 1,28,-1
 396 918 l 1,29,-1
 434 879 l 1,30,-1
 434 771 l 1,31,-1
 449 771 l 1,32,33
 525 850 525 850 592 889.5 c 128,-1,34
 659 929 659 929 738 929 c 0,35,36
 854 929 854 929 919 859.5 c 128,-1,37
 984 790 984 790 984 641 c 2,38,-1
 984 212 l 1,39,-1
 1083 155 l 1,40,-1
 1060 0 l 1,41,-1
 649 0 l 1,42,-1
 663 143 l 1,43,-1
 667 189 l 1,44,-1
 667 494 l 2,45,46
 667 575 667 575 640 607.5 c 128,-1,47
 613 640 613 640 557 640 c 0,48,49
 508 640 508 640 449 607 c 1,19,-1
EndSplineSet
Substitution2: "Neuton-Regular-'smcp' Lowercase to Small Capitals in Latin lookup 0 subtable" ntilde.sc
Colour: ffffff
EndChar

StartChar: numbersign
Encoding: 3 35 142
Width: 1238
VWidth: 0
Flags: MW
LayerCount: 3
Back
SplineSet
-285.096 896.475 m 1,0,-1
 -98.5312 1109.69 l 1,1,-1
 113.069 -665.491 l 1,2,-1
 96.1084 46.8428 l 1,3,-1
 -285.096 896.475 l 1,0,-1
838.325 -43.6123 m 1,4,-1
 1540.97 -180.91 l 1,5,-1
 58.1494 550.807 l 1,6,-1
 -654.185 688.105 l 1,7,-1
 838.325 -43.6123 l 1,4,-1
EndSplineSet
Fore
SplineSet
42 266 m 1,0,-1
 97 488 l 1,1,-1
 311 488 l 1,2,-1
 336 650 l 1,3,-1
 114 650 l 1,4,-1
 169 872 l 1,5,-1
 369 872 l 1,6,-1
 410 1146 l 1,7,-1
 623 1156 l 1,8,-1
 580 872 l 1,9,-1
 724 872 l 1,10,-1
 765 1146 l 1,11,-1
 979 1155 l 1,12,-1
 937 872 l 1,13,-1
 1196 872 l 1,14,-1
 1143 650 l 1,15,-1
 903 650 l 1,16,-1
 879 488 l 1,17,-1
 1122 488 l 1,18,-1
 1068 266 l 1,19,-1
 846 266 l 1,20,-1
 803 -19 l 1,21,-1
 589 -26 l 1,22,-1
 633 266 l 1,23,-1
 490 266 l 1,24,-1
 447 -19 l 1,25,-1
 234 -26 l 1,26,-1
 278 266 l 1,27,-1
 42 266 l 1,0,-1
666 488 m 1,28,-1
 691 650 l 1,29,-1
 547 650 l 1,30,-1
 523 488 l 1,31,-1
 666 488 l 1,28,-1
EndSplineSet
Substitution2: "Neuton-Regular-'onum' Oldstyle Figures lookup 1-1" numbersign.osf
Colour: ffffff
EndChar

StartChar: o
Encoding: 79 111 143
Width: 962
VWidth: 0
Flags: MW
LayerCount: 3
Fore
SplineSet
363 489 m 0,0,1
 363 349 363 349 402 264 c 128,-1,2
 441 179 441 179 504 179 c 0,3,4
 589 179 589 179 589 418 c 0,5,6
 589 476 589 476 581 530.5 c 128,-1,7
 573 585 573 585 558 631.5 c 128,-1,8
 543 678 543 678 516.5 706 c 128,-1,9
 490 734 490 734 456 734 c 0,10,11
 404 734 404 734 383.5 673.5 c 128,-1,12
 363 613 363 613 363 489 c 0,0,1
29 456 m 0,13,14
 29 569 29 569 68 664.5 c 128,-1,15
 107 760 107 760 172.5 822 c 128,-1,16
 238 884 238 884 321 918 c 128,-1,17
 404 952 404 952 494 952 c 0,18,19
 707 952 707 952 817 835 c 128,-1,20
 927 718 927 718 927 491 c 0,21,22
 927 239 927 239 809 103 c 128,-1,23
 691 -33 691 -33 473 -33 c 0,24,25
 242 -33 242 -33 135.5 90 c 128,-1,26
 29 213 29 213 29 456 c 0,13,14
EndSplineSet
Substitution2: "Neuton-Regular-'smcp' Lowercase to Small Capitals in Latin lookup 0 subtable" o.sc
Colour: ffffff
EndChar

StartChar: oacute
Encoding: 178 243 144
Width: 962
VWidth: 0
Flags: MW
LayerCount: 3
Fore
SplineSet
327 1004 m 1,0,-1
 472 1309 l 1,1,-1
 822 1299 l 1,2,-1
 561 978 l 1,3,-1
 327 1004 l 1,0,-1
363 489 m 0,4,5
 363 349 363 349 402 264 c 128,-1,6
 441 179 441 179 504 179 c 0,7,8
 589 179 589 179 589 418 c 0,9,10
 589 476 589 476 581 530.5 c 128,-1,11
 573 585 573 585 558 631.5 c 128,-1,12
 543 678 543 678 516.5 706 c 128,-1,13
 490 734 490 734 456 734 c 0,14,15
 404 734 404 734 383.5 673.5 c 128,-1,16
 363 613 363 613 363 489 c 0,4,5
29 456 m 0,17,18
 29 569 29 569 68 664.5 c 128,-1,19
 107 760 107 760 172.5 822 c 128,-1,20
 238 884 238 884 321 918 c 128,-1,21
 404 952 404 952 494 952 c 0,22,23
 707 952 707 952 817 835 c 128,-1,24
 927 718 927 718 927 491 c 0,25,26
 927 239 927 239 809 103 c 128,-1,27
 691 -33 691 -33 473 -33 c 0,28,29
 242 -33 242 -33 135.5 90 c 128,-1,30
 29 213 29 213 29 456 c 0,17,18
EndSplineSet
Substitution2: "Neuton-Regular-'smcp' Lowercase to Small Capitals in Latin lookup 0 subtable" oacute.sc
Colour: ffffff
EndChar

StartChar: ocircumflex
Encoding: 179 244 145
Width: 962
VWidth: 0
Flags: MW
LayerCount: 3
Fore
SplineSet
190 1013 m 1,0,-1
 343 1268 l 1,1,-1
 668 1268 l 1,2,-1
 822 1013 l 1,3,-1
 569 1004 l 1,4,-1
 505 1125 l 1,5,-1
 491 1125 l 1,6,-1
 423 1003 l 1,7,-1
 190 1013 l 1,0,-1
363 489 m 0,8,9
 363 349 363 349 402 264 c 128,-1,10
 441 179 441 179 504 179 c 0,11,12
 589 179 589 179 589 418 c 0,13,14
 589 476 589 476 581 530.5 c 128,-1,15
 573 585 573 585 558 631.5 c 128,-1,16
 543 678 543 678 516.5 706 c 128,-1,17
 490 734 490 734 456 734 c 0,18,19
 404 734 404 734 383.5 673.5 c 128,-1,20
 363 613 363 613 363 489 c 0,8,9
29 456 m 0,21,22
 29 569 29 569 68 664.5 c 128,-1,23
 107 760 107 760 172.5 822 c 128,-1,24
 238 884 238 884 321 918 c 128,-1,25
 404 952 404 952 494 952 c 0,26,27
 707 952 707 952 817 835 c 128,-1,28
 927 718 927 718 927 491 c 0,29,30
 927 239 927 239 809 103 c 128,-1,31
 691 -33 691 -33 473 -33 c 0,32,33
 242 -33 242 -33 135.5 90 c 128,-1,34
 29 213 29 213 29 456 c 0,21,22
EndSplineSet
Substitution2: "Neuton-Regular-'smcp' Lowercase to Small Capitals in Latin lookup 0 subtable" ocircumflex.sc
Colour: ffffff
EndChar

StartChar: odieresis
Encoding: 181 246 146
Width: 962
VWidth: 0
Flags: MW
LayerCount: 3
Fore
SplineSet
515 1122 m 0,0,1
 515 1141 515 1141 521.5 1158.5 c 128,-1,2
 528 1176 528 1176 543 1192.5 c 128,-1,3
 558 1209 558 1209 586 1219 c 128,-1,4
 614 1229 614 1229 653 1229 c 0,5,6
 694 1229 694 1229 723 1219 c 128,-1,7
 752 1209 752 1209 767.5 1193 c 128,-1,8
 783 1177 783 1177 789.5 1160 c 128,-1,9
 796 1143 796 1143 796 1124 c 0,10,11
 796 1015 796 1015 652 1015 c 0,12,13
 515 1015 515 1015 515 1122 c 0,0,1
206 1122 m 0,14,15
 206 1141 206 1141 212.5 1158.5 c 128,-1,16
 219 1176 219 1176 234 1192.5 c 128,-1,17
 249 1209 249 1209 277 1219 c 128,-1,18
 305 1229 305 1229 344 1229 c 0,19,20
 385 1229 385 1229 414 1219 c 128,-1,21
 443 1209 443 1209 458.5 1193 c 128,-1,22
 474 1177 474 1177 480.5 1160 c 128,-1,23
 487 1143 487 1143 487 1124 c 0,24,25
 487 1015 487 1015 343 1015 c 0,26,27
 206 1015 206 1015 206 1122 c 0,14,15
363 489 m 0,28,29
 363 349 363 349 402 264 c 128,-1,30
 441 179 441 179 504 179 c 0,31,32
 589 179 589 179 589 418 c 0,33,34
 589 476 589 476 581 530.5 c 128,-1,35
 573 585 573 585 558 631.5 c 128,-1,36
 543 678 543 678 516.5 706 c 128,-1,37
 490 734 490 734 456 734 c 0,38,39
 404 734 404 734 383.5 673.5 c 128,-1,40
 363 613 363 613 363 489 c 0,28,29
29 456 m 0,41,42
 29 569 29 569 68 664.5 c 128,-1,43
 107 760 107 760 172.5 822 c 128,-1,44
 238 884 238 884 321 918 c 128,-1,45
 404 952 404 952 494 952 c 0,46,47
 707 952 707 952 817 835 c 128,-1,48
 927 718 927 718 927 491 c 0,49,50
 927 239 927 239 809 103 c 128,-1,51
 691 -33 691 -33 473 -33 c 0,52,53
 242 -33 242 -33 135.5 90 c 128,-1,54
 29 213 29 213 29 456 c 0,41,42
EndSplineSet
Substitution2: "Neuton-Regular-'smcp' Lowercase to Small Capitals in Latin lookup 0 subtable" odieresis.sc
Colour: ffffff
EndChar

StartChar: ograve
Encoding: 177 242 147
Width: 962
VWidth: 0
Flags: MW
LayerCount: 3
Fore
SplineSet
618 1003 m 1,0,-1
 384 977 l 1,1,-1
 123 1298 l 1,2,-1
 473 1308 l 1,3,-1
 618 1003 l 1,0,-1
363 489 m 0,4,5
 363 349 363 349 402 264 c 128,-1,6
 441 179 441 179 504 179 c 0,7,8
 589 179 589 179 589 418 c 0,9,10
 589 476 589 476 581 530.5 c 128,-1,11
 573 585 573 585 558 631.5 c 128,-1,12
 543 678 543 678 516.5 706 c 128,-1,13
 490 734 490 734 456 734 c 0,14,15
 404 734 404 734 383.5 673.5 c 128,-1,16
 363 613 363 613 363 489 c 0,4,5
29 456 m 0,17,18
 29 569 29 569 68 664.5 c 128,-1,19
 107 760 107 760 172.5 822 c 128,-1,20
 238 884 238 884 321 918 c 128,-1,21
 404 952 404 952 494 952 c 0,22,23
 707 952 707 952 817 835 c 128,-1,24
 927 718 927 718 927 491 c 0,25,26
 927 239 927 239 809 103 c 128,-1,27
 691 -33 691 -33 473 -33 c 0,28,29
 242 -33 242 -33 135.5 90 c 128,-1,30
 29 213 29 213 29 456 c 0,17,18
EndSplineSet
Substitution2: "Neuton-Regular-'smcp' Lowercase to Small Capitals in Latin lookup 0 subtable" ograve.sc
Colour: ffffff
EndChar

StartChar: one
Encoding: 17 49 148
Width: 893
VWidth: 0
Flags: MW
LayerCount: 3
Fore
SplineSet
43 -5 m 1,0,-1
 60 124 l 1,1,-1
 284 191 l 1,2,-1
 284 915 l 1,3,-1
 68 915 l 1,4,-1
 80 1082 l 1,5,-1
 576 1186 l 1,6,-1
 667 1186 l 1,7,-1
 667 178 l 1,8,-1
 904 132 l 1,9,-1
 891 -5 l 1,10,-1
 43 -5 l 1,0,-1
EndSplineSet
Substitution2: "Neuton-Regular-'onum' Oldstyle Figures lookup 1-1" one.osf
Colour: ffffff
EndChar

StartChar: one.osf
Encoding: 212 -1 149
Width: 890
VWidth: 0
Flags: MW
LayerCount: 3
Fore
SplineSet
45 -5 m 1,0,-1
 62 124 l 1,1,-1
 266 191 l 1,2,-1
 266 745 l 1,3,-1
 70 745 l 1,4,-1
 82 912 l 1,5,-1
 538 1016 l 1,6,-1
 629 1016 l 1,7,-1
 629 178 l 1,8,-1
 846 132 l 1,9,-1
 833 -5 l 1,10,-1
 45 -5 l 1,0,-1
EndSplineSet
Colour: ffffff
EndChar

StartChar: onehalf
Encoding: 124 189 150
Width: 1928
VWidth: 0
Flags: MW
LayerCount: 3
Fore
SplineSet
269 35 m 1,0,-1
 826 588 l 1,1,-1
 1369 1207 l 1,2,-1
 1671 1205 l 1,3,-1
 1671 1130 l 1,4,-1
 1130 591 l 1,5,-1
 637 -19 l 1,6,-1
 269 35 l 1,0,-1
45 528 m 1,7,-1
 60 658 l 1,8,-1
 188 693 l 1,9,-1
 188 1073 l 1,10,-1
 67 1073 l 1,11,-1
 78 1241 l 1,12,-1
 456 1274 l 1,13,-1
 525 1274 l 1,14,-1
 525 686 l 1,15,-1
 662 666 l 1,16,-1
 655 528 l 1,17,-1
 45 528 l 1,7,-1
1210 118 m 1,18,-1
 1326 201 l 2,19,20
 1422 270 1422 270 1471 339 c 128,-1,21
 1520 408 1520 408 1520 456 c 0,22,23
 1520 485 1520 485 1501 501.5 c 128,-1,24
 1482 518 1482 518 1448 518 c 0,25,26
 1431 518 1431 518 1401 507 c 1,27,-1
 1361 334 l 1,28,-1
 1252 344 l 1,29,-1
 1210 572 l 1,30,31
 1267 625 1267 625 1357.5 656.5 c 128,-1,32
 1448 688 1448 688 1553 688 c 0,33,34
 1629 688 1629 688 1689 669 c 128,-1,35
 1749 650 1749 650 1782.5 620.5 c 128,-1,36
 1816 591 1816 591 1833 559 c 128,-1,37
 1850 527 1850 527 1850 497 c 0,38,39
 1850 443 1850 443 1822 392.5 c 128,-1,40
 1794 342 1794 342 1748 304 c 128,-1,41
 1702 266 1702 266 1656 239 c 128,-1,42
 1610 212 1610 212 1560 192 c 2,43,-1
 1480 159 l 1,44,-1
 1681 139 l 1,45,-1
 1769 260 l 1,46,-1
 1880 254 l 1,47,-1
 1846 -60 l 1,48,-1
 1224 -60 l 1,49,-1
 1210 118 l 1,18,-1
EndSplineSet
Colour: ffffff
EndChar

StartChar: onequarter
Encoding: 123 188 151
Width: 1865
VWidth: 0
Flags: MW
LayerCount: 3
Fore
SplineSet
269 35 m 1,0,-1
 826 588 l 1,1,-1
 1369 1207 l 1,2,-1
 1671 1205 l 1,3,-1
 1671 1130 l 1,4,-1
 1130 591 l 1,5,-1
 637 -19 l 1,6,-1
 269 35 l 1,0,-1
45 528 m 1,7,-1
 60 658 l 1,8,-1
 188 693 l 1,9,-1
 188 1073 l 1,10,-1
 67 1073 l 1,11,-1
 78 1241 l 1,12,-1
 456 1274 l 1,13,-1
 525 1274 l 1,14,-1
 525 686 l 1,15,-1
 662 666 l 1,16,-1
 655 528 l 1,17,-1
 45 528 l 1,7,-1
1279 275 m 1,18,-1
 1404 275 l 1,19,-1
 1404 441 l 1,20,-1
 1279 275 l 1,18,-1
1076 295 m 1,21,-1
 1574 707 l 1,22,-1
 1685 681 l 1,23,24
 1674 553 1674 553 1674 425 c 2,25,-1
 1674 314 l 1,26,-1
 1822 314 l 1,27,-1
 1813 145 l 1,28,-1
 1674 145 l 1,29,-1
 1674 63 l 1,30,-1
 1773 35 l 1,31,-1
 1766 -60 l 1,32,-1
 1281 -60 l 1,33,-1
 1286 30 l 1,34,-1
 1385 62 l 1,35,-1
 1385 148 l 1,36,-1
 1091 148 l 1,37,-1
 1076 295 l 1,21,-1
EndSplineSet
Colour: ffffff
EndChar

StartChar: one.superior
Encoding: 120 185 152
Width: 718
VWidth: 0
Flags: MW
LayerCount: 3
Fore
SplineSet
50 528 m 1,0,-1
 65 658 l 1,1,-1
 193 693 l 1,2,-1
 193 1073 l 1,3,-1
 72 1073 l 1,4,-1
 83 1241 l 1,5,-1
 461 1274 l 1,6,-1
 530 1274 l 1,7,-1
 530 686 l 1,8,-1
 667 666 l 1,9,-1
 660 528 l 1,10,-1
 50 528 l 1,0,-1
EndSplineSet
Colour: ffffff
EndChar

StartChar: ordfeminine
Encoding: 105 170 153
Width: 836
VWidth: 0
Flags: MW
LayerCount: 3
Back
SplineSet
431.186 963.202 m 5,0,-1
 431.186 1042.58 l 2,1,2
 431.186 1068.66 431.186 1068.66 413.967 1087.21 c 0
 396.747 1105.76 396.747 1105.76 370.436 1105.76 c 0,3,4
 337.239 1105.76 337.239 1105.76 301.232 1067.32 c 0
 265.225 1028.88 265.225 1028.88 244.076 976.973 c 1,5,6
 173.622 983.892 173.622 983.892 133.303 1020.32 c 0
 92.9844 1056.75 92.9844 1056.75 92.9844 1104.23 c 0,7,8
 92.9844 1153.24 92.9844 1153.24 122.017 1189.82 c 0
 151.049 1226.4 151.049 1226.4 200.702 1246.62 c 0
 250.355 1266.85 250.355 1266.85 307.669 1276.42 c 0
 364.983 1286 364.983 1286 430 1286 c 0,9,10
 487.127 1286 487.127 1286 530.803 1274.22 c 0
 574.479 1262.43 574.479 1262.43 609.256 1235.73 c 0
 644.034 1209.03 644.034 1209.03 662.35 1161.22 c 0
 680.666 1113.4 680.666 1113.4 680.666 1045.82 c 2,11,-1
 680.666 829.553 l 2,12,13
 680.666 759.888 680.666 759.888 697.479 730.241 c 0
 714.292 700.594 714.292 700.594 751.945 688.612 c 1,14,-1
 774.626 682.133 l 1,15,-1
 754.376 554.152 l 1,16,17
 679.849 507.172 679.849 507.172 611.816 507.172 c 0,18,19
 544.232 507.172 544.232 507.172 505.217 538.576 c 0
 466.202 569.98 466.202 569.98 461.966 628.672 c 2,20,-1
 461.155 639.202 l 1,21,-1
 449.815 639.202 l 1,22,23
 440.679 590.711 440.679 590.711 382.165 550.134 c 0
 323.652 509.557 323.652 509.557 252.994 509.557 c 0,24,25
 161.549 509.557 161.549 509.557 107.66 566.162 c 0
 53.7715 622.766 53.7715 622.766 53.7715 705.184 c 0,26,27
 53.7715 773.777 53.7715 773.777 84.1067 825.797 c 0
 114.442 877.817 114.442 877.817 167.343 907.965 c 0
 220.244 938.113 220.244 938.113 286.977 951.973 c 0
 353.709 965.833 353.709 965.833 431.186 963.202 c 5,0,-1
364.766 708.862 m 4,28,29
 398.301 708.862 398.301 708.862 431.186 732.353 c 1,30,-1
 431.186 836.842 l 1,31,32
 413.703 836.842 413.703 836.842 393.608 833.351 c 0
 373.512 829.859 373.512 829.859 351.452 822.12 c 0
 329.392 814.38 329.392 814.38 315.006 798.502 c 0
 300.619 782.623 300.619 782.623 300.619 761.24 c 0,33,34
 300.619 737.159 300.619 737.159 317.117 723.011 c 0
 333.615 708.862 333.615 708.862 364.766 708.862 c 4,28,29
EndSplineSet
Fore
SplineSet
365 709 m 0,0,1
 399 709 399 709 431 732 c 1,2,-1
 431 837 l 1,3,4
 414 837 414 837 394 833.5 c 128,-1,5
 374 830 374 830 351.5 822 c 128,-1,6
 329 814 329 814 315 798.5 c 128,-1,7
 301 783 301 783 301 761 c 0,8,9
 301 737 301 737 317.5 723 c 128,-1,10
 334 709 334 709 365 709 c 0,0,1
431 963 m 1,11,-1
 431 1043 l 2,12,13
 431 1069 431 1069 414 1087.5 c 128,-1,14
 397 1106 397 1106 370 1106 c 0,15,16
 337 1106 337 1106 301 1067.5 c 128,-1,17
 265 1029 265 1029 244 977 c 1,18,19
 174 984 174 984 133.5 1020.5 c 128,-1,20
 93 1057 93 1057 93 1104 c 0,21,22
 93 1153 93 1153 122 1189.5 c 128,-1,23
 151 1226 151 1226 200.5 1246.5 c 128,-1,24
 250 1267 250 1267 307.5 1276.5 c 128,-1,25
 365 1286 365 1286 430 1286 c 0,26,27
 487 1286 487 1286 530.5 1274 c 128,-1,28
 574 1262 574 1262 609 1235.5 c 128,-1,29
 644 1209 644 1209 662.5 1161 c 128,-1,30
 681 1113 681 1113 681 1046 c 2,31,-1
 681 830 l 2,32,33
 681 760 681 760 697.5 730.5 c 128,-1,34
 714 701 714 701 752 689 c 1,35,-1
 775 682 l 1,36,-1
 754 554 l 1,37,38
 679 507 679 507 612 507 c 0,39,40
 544 507 544 507 505 538.5 c 128,-1,41
 466 570 466 570 462 629 c 2,42,-1
 461 639 l 1,43,-1
 450 639 l 1,44,45
 441 591 441 591 382.5 550.5 c 128,-1,46
 324 510 324 510 253 510 c 0,47,48
 162 510 162 510 108 566.5 c 128,-1,49
 54 623 54 623 54 705 c 0,50,51
 54 774 54 774 84 826 c 128,-1,52
 114 878 114 878 167 908 c 128,-1,53
 220 938 220 938 287 952 c 128,-1,54
 354 966 354 966 431 963 c 1,11,-1
EndSplineSet
Colour: ffffff
EndChar

StartChar: ordmasculine
Encoding: 121 186 154
Width: 889
VWidth: 0
Flags: MW
LayerCount: 3
Fore
SplineSet
338 951 m 0,0,1
 338 800 338 800 366 731.5 c 128,-1,2
 394 663 394 663 465 663 c 0,3,4
 514 663 514 663 530.5 694 c 128,-1,5
 547 725 547 725 547 814 c 0,6,7
 547 851 547 851 546.5 870 c 128,-1,8
 546 889 546 889 545 923 c 128,-1,9
 544 957 544 957 540.5 976.5 c 128,-1,10
 537 996 537 996 532 1022.5 c 128,-1,11
 527 1049 527 1049 518 1064 c 128,-1,12
 509 1079 509 1079 496.5 1094.5 c 128,-1,13
 484 1110 484 1110 466.5 1116.5 c 128,-1,14
 449 1123 449 1123 427 1123 c 0,15,16
 373 1123 373 1123 355.5 1082.5 c 128,-1,17
 338 1042 338 1042 338 951 c 0,0,1
51 900 m 0,18,19
 51 988 51 988 89 1063.5 c 128,-1,20
 127 1139 127 1139 187.5 1187 c 128,-1,21
 248 1235 248 1235 318.5 1262 c 128,-1,22
 389 1289 389 1289 457 1289 c 0,23,24
 641 1289 641 1289 739 1196.5 c 128,-1,25
 837 1104 837 1104 837 920 c 0,26,27
 837 732 837 732 727 619.5 c 128,-1,28
 617 507 617 507 440 507 c 0,29,30
 355 507 355 507 287 529 c 128,-1,31
 219 551 219 551 175.5 588 c 128,-1,32
 132 625 132 625 103.5 676 c 128,-1,33
 75 727 75 727 63 782.5 c 128,-1,34
 51 838 51 838 51 900 c 0,18,19
EndSplineSet
Colour: ffffff
EndChar

StartChar: oslash
Encoding: 183 248 155
Width: 1079
VWidth: 0
Flags: MW
LayerCount: 3
Fore
SplineSet
61 465 m 0,0,1
 61 575 61 575 107 669 c 128,-1,2
 153 763 153 763 225.5 823.5 c 128,-1,3
 298 884 298 884 384.5 917.5 c 128,-1,4
 471 951 471 951 556 951 c 0,5,6
 695 951 695 951 793 909 c 1,7,-1
 834 956 l 1,8,-1
 1039 921 l 1,9,-1
 934 799 l 1,10,11
 1019 686 1019 686 1019 490 c 0,12,13
 1019 254 1019 254 886.5 113.5 c 128,-1,14
 754 -27 754 -27 535 -27 c 0,15,16
 389 -27 389 -27 286 24 c 1,17,-1
 249 -20 l 1,18,-1
 41 14 l 1,19,-1
 148 142 l 1,20,21
 61 265 61 265 61 465 c 0,0,1
437 252 m 1,22,23
 478 168 478 168 566 168 c 0,24,25
 630 168 630 168 655.5 209 c 128,-1,26
 681 250 681 250 681 357 c 0,27,28
 681 476 681 476 671 547 c 1,29,-1
 437 252 l 1,22,23
404 371 m 1,30,-1
 638 664 l 1,31,32
 598 743 598 743 518 743 c 0,33,34
 449 743 449 743 422 690 c 128,-1,35
 395 637 395 637 395 528 c 0,36,37
 395 437 395 437 404 371 c 1,30,-1
EndSplineSet
Substitution2: "Neuton-Regular-'smcp' Lowercase to Small Capitals in Latin lookup 0 subtable" oslash.sc
Colour: ffffff
EndChar

StartChar: otilde
Encoding: 180 245 156
Width: 962
VWidth: 0
Flags: MW
LayerCount: 3
Fore
SplineSet
293 995 m 1,0,-1
 176 1006 l 1,1,2
 178 1086 178 1086 194.5 1142.5 c 128,-1,3
 211 1199 211 1199 238 1230 c 128,-1,4
 265 1261 265 1261 304 1273.5 c 128,-1,5
 343 1286 343 1286 386 1282.5 c 128,-1,6
 429 1279 429 1279 481 1263 c 2,7,-1
 551 1241 l 2,8,9
 618 1219 618 1219 653 1229.5 c 128,-1,10
 688 1240 688 1240 702 1291 c 1,11,-1
 817 1280 l 1,12,13
 807 1094 807 1094 734.5 1036 c 128,-1,14
 662 978 662 978 523 1021 c 2,15,-1
 457 1041 l 1,16,17
 370 1065 370 1065 340.5 1055 c 128,-1,18
 311 1045 311 1045 293 995 c 1,0,-1
363 489 m 0,19,20
 363 349 363 349 402 264 c 128,-1,21
 441 179 441 179 504 179 c 0,22,23
 589 179 589 179 589 418 c 0,24,25
 589 476 589 476 581 530.5 c 128,-1,26
 573 585 573 585 558 631.5 c 128,-1,27
 543 678 543 678 516.5 706 c 128,-1,28
 490 734 490 734 456 734 c 0,29,30
 404 734 404 734 383.5 673.5 c 128,-1,31
 363 613 363 613 363 489 c 0,19,20
29 456 m 0,32,33
 29 569 29 569 68 664.5 c 128,-1,34
 107 760 107 760 172.5 822 c 128,-1,35
 238 884 238 884 321 918 c 128,-1,36
 404 952 404 952 494 952 c 0,37,38
 707 952 707 952 817 835 c 128,-1,39
 927 718 927 718 927 491 c 0,40,41
 927 239 927 239 809 103 c 128,-1,42
 691 -33 691 -33 473 -33 c 0,43,44
 242 -33 242 -33 135.5 90 c 128,-1,45
 29 213 29 213 29 456 c 0,32,33
EndSplineSet
Substitution2: "Neuton-Regular-'smcp' Lowercase to Small Capitals in Latin lookup 0 subtable" otilde.sc
Colour: ffffff
EndChar

StartChar: p
Encoding: 80 112 157
Width: 1024
VWidth: 0
Flags: MW
LayerCount: 3
Back
SplineSet
499 771 m 5,0,1
 545 848 545 848 619.5 894 c 0
 694 940 694 940 781 940 c 0,2,3
 923 940 923 940 1008 817.5 c 0
 1093 695 1093 695 1093 497 c 0,4,5
 1093 332.247 1093 332.247 1022.1 212.558 c 0
 951.209 92.8697 951.209 92.8697 822.811 31.2859 c 0
 694.412 -30.2979 694.412 -30.2979 521.885 -30.2979 c 0,6,7
 371.982 -30.2979 371.982 -30.2979 221 8 c 1,8,-1
 221 1052 l 1,9,-1
 100 1133 l 1,10,-1
 129 1277 l 1,11,-1
 470 1304 l 1,12,-1
 510 1259 l 1,13,-1
 510 928 l 1,14,-1
 484 771 l 1,15,-1
 499 771 l 5,0,1
537 226 m 5,16,17
 585 195 585 195 632 195 c 0,18,19
 697 195 697 195 736 250.5 c 0
 775 306 775 306 775 427 c 0,20,21
 775 675 775 675 655 675 c 0,22,23
 623 675 623 675 599 665 c 0
 575 655 575 655 537 628 c 1,24,-1
 537 226 l 5,16,17
EndSplineSet
Fore
SplineSet
411 771 m 1,0,1
 510 940 510 940 660 940 c 0,2,3
 725 940 725 940 782 915.5 c 128,-1,4
 839 891 839 891 886.5 841 c 128,-1,5
 934 791 934 791 961.5 703.5 c 128,-1,6
 989 616 989 616 989 500 c 0,7,8
 989 398 989 398 962 311.5 c 128,-1,9
 935 225 935 225 890 166 c 128,-1,10
 845 107 845 107 785.5 65 c 128,-1,11
 726 23 726 23 661 4 c 128,-1,12
 596 -15 596 -15 529 -15 c 0,13,14
 468 -15 468 -15 428 3 c 1,15,-1
 427 -140 l 1,16,-1
 646 -197 l 1,17,-1
 623 -372 l 1,18,-1
 5 -372 l 1,19,-1
 26 -229 l 1,20,-1
 131 -157 l 1,21,-1
 131 670 l 1,22,-1
 13 751 l 1,23,-1
 40 889 l 1,24,-1
 358 918 l 1,25,-1
 396 879 l 1,26,-1
 396 771 l 1,27,-1
 411 771 l 1,0,1
428 209 m 1,28,29
 478 200 478 200 522 200 c 0,30,31
 590 200 590 200 631 260 c 128,-1,32
 672 320 672 320 672 439 c 0,33,34
 672 546 672 546 642 609.5 c 128,-1,35
 612 673 612 673 550 673 c 0,36,37
 490 673 490 673 430 610 c 1,38,-1
 428 209 l 1,28,29
EndSplineSet
Substitution2: "Neuton-Regular-'smcp' Lowercase to Small Capitals in Latin lookup 0 subtable" p.sc
Colour: ffffff
EndChar

StartChar: paragraph
Encoding: 117 182 158
Width: 1681
VWidth: 0
Flags: MW
LayerCount: 3
Fore
SplineSet
1193 -2 m 1,0,-1
 1193 1245 l 1,1,-1
 1634 1245 l 1,2,-1
 1615 1089 l 1,3,-1
 1437 1022 l 1,4,-1
 1437 214 l 1,5,-1
 1627 148 l 1,6,-1
 1618 -2 l 1,7,-1
 1193 -2 l 1,0,-1
49 796 m 0,8,9
 49 1000 49 1000 182.5 1122.5 c 128,-1,10
 316 1245 316 1245 549 1245 c 2,11,-1
 1080 1245 l 1,12,-1
 1080 -2 l 1,13,-1
 536 -2 l 1,14,-1
 547 136 l 1,15,-1
 805 216 l 1,16,-1
 805 1068 l 1,17,18
 705 1088 705 1088 632 1088 c 0,19,20
 513 1088 513 1088 454 1033 c 128,-1,21
 395 978 395 978 395 859 c 0,22,23
 395 812 395 812 411.5 767.5 c 128,-1,24
 428 723 428 723 460.5 684 c 128,-1,25
 493 645 493 645 550 622 c 128,-1,26
 607 599 607 599 680 601 c 1,27,-1
 662 408 l 1,28,29
 377 383 377 383 213 488.5 c 128,-1,30
 49 594 49 594 49 796 c 0,8,9
EndSplineSet
Substitution2: "Neuton-Regular-'c2sc' Capitals to Small Capitals in Latin lookup 3-1" paragraph.sc
Colour: ffffff
EndChar

StartChar: parenleft
Encoding: 8 40 159
Width: 569
VWidth: 0
Flags: MW
LayerCount: 3
Fore
SplineSet
485 1130 m 1,0,1
 448 1082 448 1082 423 1034.5 c 128,-1,2
 398 987 398 987 374 910.5 c 128,-1,3
 350 834 350 834 338 720.5 c 128,-1,4
 326 607 326 607 326 454 c 0,5,6
 326 258 326 258 350 110 c 128,-1,7
 374 -38 374 -38 407 -120 c 128,-1,8
 440 -202 440 -202 491 -278 c 1,9,-1
 360 -376 l 1,10,11
 359 -375 359 -375 339.5 -356 c 128,-1,12
 320 -337 320 -337 306 -323 c 128,-1,13
 292 -309 292 -309 265.5 -279 c 128,-1,14
 239 -249 239 -249 218.5 -221 c 128,-1,15
 198 -193 198 -193 171 -150 c 128,-1,16
 144 -107 144 -107 123.5 -64.5 c 128,-1,17
 103 -22 103 -22 82 35 c 128,-1,18
 61 92 61 92 47.5 150 c 128,-1,19
 34 208 34 208 25.5 279.5 c 128,-1,20
 17 351 17 351 17 426 c 0,21,22
 17 533 17 533 33 633.5 c 128,-1,23
 49 734 49 734 72.5 809.5 c 128,-1,24
 96 885 96 885 130 955 c 128,-1,25
 164 1025 164 1025 194.5 1071 c 128,-1,26
 225 1117 225 1117 260.5 1158.5 c 128,-1,27
 296 1200 296 1200 316 1219.5 c 128,-1,28
 336 1239 336 1239 355 1255 c 1,29,-1
 485 1130 l 1,0,1
EndSplineSet
Colour: ffffff
EndChar

StartChar: parenright
Encoding: 9 41 160
Width: 568
VWidth: 0
Flags: MW
LayerCount: 3
Fore
SplineSet
45 1130 m 1,0,-1
 175 1255 l 1,1,2
 194 1239 194 1239 214 1219.5 c 128,-1,3
 234 1200 234 1200 269.5 1158.5 c 128,-1,4
 305 1117 305 1117 335.5 1071 c 128,-1,5
 366 1025 366 1025 400 955 c 128,-1,6
 434 885 434 885 457.5 809.5 c 128,-1,7
 481 734 481 734 497 633.5 c 128,-1,8
 513 533 513 533 513 426 c 0,9,10
 513 351 513 351 504.5 279.5 c 128,-1,11
 496 208 496 208 482.5 150 c 128,-1,12
 469 92 469 92 448 35 c 128,-1,13
 427 -22 427 -22 406.5 -64.5 c 128,-1,14
 386 -107 386 -107 359 -150 c 128,-1,15
 332 -193 332 -193 311.5 -221 c 128,-1,16
 291 -249 291 -249 264.5 -279 c 128,-1,17
 238 -309 238 -309 224 -323 c 128,-1,18
 210 -337 210 -337 190.5 -356 c 128,-1,19
 171 -375 171 -375 170 -376 c 1,20,-1
 39 -278 l 1,21,22
 90 -202 90 -202 123 -120 c 128,-1,23
 156 -38 156 -38 180 110 c 128,-1,24
 204 258 204 258 204 454 c 0,25,26
 204 607 204 607 192 720.5 c 128,-1,27
 180 834 180 834 156 910.5 c 128,-1,28
 132 987 132 987 107 1034.5 c 128,-1,29
 82 1082 82 1082 45 1130 c 1,0,-1
EndSplineSet
Colour: ffffff
EndChar

StartChar: percent
Encoding: 5 37 161
Width: 1686
VWidth: 0
Flags: MW
LayerCount: 3
Back
SplineSet
-151 892 m 0,0,1
 -151 973 -151 973 -92.5 1047 c 0
 -34 1121 -34 1121 52.5 1163 c 0
 139 1205 139 1205 224 1205 c 0,2,3
 364 1205 364 1205 470 1112.5 c 0
 576 1020 576 1020 576 889 c 0,4,5
 576 808 576 808 522 735 c 0
 468 662 468 662 387.5 621 c 0
 307 580 307 580 226 580 c 0,6,7
 63 580 63 580 -44 666 c 0
 -151 752 -151 752 -151 892 c 0,0,1
159 882 m 0,8,9
 159 832 159 832 161 803.5 c 0
 163 775 163 775 169.5 749.5 c 0
 176 724 176 724 190 713.5 c 0
 204 703 204 703 226 703 c 0,10,11
 257 703 257 703 268.5 745.5 c 0
 280 788 280 788 280 885 c 0,12,13
 280 978 280 978 265.5 1034 c 0
 251 1090 251 1090 224 1090 c 0,14,15
 186 1090 186 1090 172.5 1036 c 0
 159 982 159 982 159 882 c 0,8,9
EndSplineSet
Fore
SplineSet
1223 266 m 0,0,1
 1223 216 1223 216 1225 187.5 c 128,-1,2
 1227 159 1227 159 1233.5 133.5 c 128,-1,3
 1240 108 1240 108 1254 97.5 c 128,-1,4
 1268 87 1268 87 1290 87 c 0,5,6
 1321 87 1321 87 1332.5 129.5 c 128,-1,7
 1344 172 1344 172 1344 269 c 0,8,9
 1344 362 1344 362 1329.5 418 c 128,-1,10
 1315 474 1315 474 1288 474 c 0,11,12
 1250 474 1250 474 1236.5 420 c 128,-1,13
 1223 366 1223 366 1223 266 c 0,0,1
913 276 m 0,14,15
 913 357 913 357 971.5 431 c 128,-1,16
 1030 505 1030 505 1116.5 547 c 128,-1,17
 1203 589 1203 589 1288 589 c 0,18,19
 1428 589 1428 589 1534 496.5 c 128,-1,20
 1640 404 1640 404 1640 273 c 0,21,22
 1640 192 1640 192 1586 119 c 128,-1,23
 1532 46 1532 46 1451.5 5 c 128,-1,24
 1371 -36 1371 -36 1290 -36 c 0,25,26
 1127 -36 1127 -36 1020 50 c 128,-1,27
 913 136 913 136 913 276 c 0,14,15
125 35 m 1,28,-1
 682 588 l 1,29,-1
 1152 1124 l 1,30,-1
 662 1105 l 1,31,32
 767 1024 767 1024 767 896 c 0,33,34
 767 811 767 811 713.5 736.5 c 128,-1,35
 660 662 660 662 579 620.5 c 128,-1,36
 498 579 498 579 414 578 c 0,37,38
 247 577 247 577 146 662.5 c 128,-1,39
 45 748 45 748 45 896 c 0,40,41
 45 963 45 963 96 1036 c 128,-1,42
 147 1109 147 1109 231 1158.5 c 128,-1,43
 315 1208 315 1208 400 1208 c 0,44,45
 409 1208 409 1208 422 1206 c 1,46,-1
 432 1087 l 1,47,48
 430 1087 430 1087 421.5 1088.5 c 128,-1,49
 413 1090 413 1090 412 1090 c 0,50,51
 351 1090 351 1090 351 896 c 2,52,53
 351 891 l 2,54,55
 351 836 351 836 352 810 c 128,-1,56
 353 784 353 784 358.5 752 c 128,-1,57
 364 720 364 720 377.5 707.5 c 128,-1,58
 391 695 391 695 414 695 c 0,59,60
 449 695 449 695 462 746 c 128,-1,61
 475 797 475 797 475 896 c 0,62,63
 475 1104 475 1104 466 1208 c 1,64,-1
 1225 1207 l 1,65,-1
 1527 1205 l 1,66,-1
 1527 1130 l 1,67,-1
 986 591 l 1,68,-1
 493 -19 l 1,69,-1
 125 35 l 1,28,-1
EndSplineSet
Substitution2: "Neuton-Regular-'onum' Oldstyle Figures lookup 1-1" percent.osf
Colour: ffffff
EndChar

StartChar: period
Encoding: 14 46 162
Width: 546
VWidth: 0
Flags: MW
LayerCount: 3
Fore
SplineSet
60 127 m 0,0,1
 60 187 60 187 109.5 233.5 c 128,-1,2
 159 280 159 280 269 280 c 0,3,4
 386 280 386 280 436.5 234.5 c 128,-1,5
 487 189 487 189 487 130 c 0,6,7
 487 -26 487 -26 268 -26 c 0,8,9
 60 -26 60 -26 60 127 c 0,0,1
EndSplineSet
Colour: ffffff
EndChar

